<svg width="182" height="182" viewBox="0 0 182 182" fill="none" xmlns="http://www.w3.org/2000/svg">
<path opacity="0.79" d="M91.0034 180.428C140.393 180.428 180.432 140.39 180.432 90.9998C180.432 41.61 140.393 1.57153 91.0034 1.57153C41.6136 1.57153 1.5752 41.61 1.5752 90.9998C1.5752 140.39 41.6136 180.428 91.0034 180.428Z" stroke="#CBCBCB" stroke-opacity="0.5" stroke-width="1.41779" stroke-miterlimit="10"/>
<path d="M130 166C130 161.029 134.029 157 139 157C143.971 157 148 161.029 148 166C148 170.971 143.971 175 139 175C134.029 175 130 170.971 130 166Z" fill="white"/>
<path d="M134 166C134 163.239 136.239 161 139 161C141.761 161 144 163.239 144 166C144 168.761 141.761 171 139 171C136.239 171 134 168.761 134 166Z" fill="#FF0000"/>
</svg>
