<svg width="250" height="250" viewBox="0 0 250 250" fill="none" xmlns="http://www.w3.org/2000/svg">
<path opacity="0.79" d="M125.002 248.886C193.422 248.886 248.887 193.421 248.887 125.001C248.887 56.5817 193.422 1.11646 125.002 1.11646C56.5823 1.11646 1.11719 56.5817 1.11719 125.001C1.11719 193.421 56.5823 248.886 125.002 248.886Z" stroke="#CBCBCB" stroke-opacity="0.5" stroke-width="1.16463" stroke-miterlimit="10"/>
<path d="M229 74C229 69.0294 233.029 65 238 65C242.971 65 247 69.0294 247 74C247 78.9706 242.971 83 238 83C233.029 83 229 78.9706 229 74Z" fill="white"/>
<path d="M233 74C233 71.2386 235.239 69 238 69C240.761 69 243 71.2386 243 74C243 76.7614 240.761 79 238 79C235.239 79 233 76.7614 233 74Z" fill="#FF0000"/>
</svg>
