<svg width="388" height="388" viewBox="0 0 388 388" fill="none" xmlns="http://www.w3.org/2000/svg">
<path opacity="0.85" d="M194.003 386.799C300.483 386.799 386.801 300.481 386.801 194.001C386.801 87.5215 300.483 1.20276 194.003 1.20276C87.5237 1.20276 1.20508 87.5215 1.20508 194.001C1.20508 300.481 87.5237 386.799 194.003 386.799Z" stroke="#CBCBCB" stroke-opacity="0.5" stroke-width="0.658263" stroke-miterlimit="10"/>
<path d="M14 283C14 278.03 18.0294 274 23 274C27.9706 274 32 278.03 32 283C32 287.971 27.9706 292 23 292C18.0294 292 14 287.971 14 283Z" fill="white"/>
<path d="M18 283C18 280.239 20.2386 278 23 278C25.7614 278 28 280.239 28 283C28 285.762 25.7614 288 23 288C20.2386 288 18 285.762 18 283Z" fill="#FF0000"/>
</svg>
