<svg width="385" height="385" viewBox="0 0 385 385" fill="none" xmlns="http://www.w3.org/2000/svg">
<path opacity="0.79" d="M153.999 345.971C238.846 367.147 324.794 315.531 345.97 230.684C367.146 145.837 315.53 59.8881 230.683 38.7124C145.836 17.5368 59.8874 69.1527 38.7117 154C17.536 238.847 69.1519 324.795 153.999 345.971Z" stroke="#CBCBCB" stroke-opacity="0.5" stroke-width="0.911475" stroke-miterlimit="10"/>
<path d="M142.07 38.5922C143.273 33.7695 148.158 30.8357 152.981 32.0393C157.804 33.243 160.737 38.1282 159.534 42.9508C158.33 47.7735 153.445 50.7073 148.622 49.5037C143.8 48.3001 140.866 43.4148 142.07 38.5922Z" fill="white"/>
<path d="M145.951 39.5607C146.619 36.8815 149.333 35.2516 152.013 35.9202C154.692 36.5889 156.322 39.3029 155.653 41.9822C154.984 44.6614 152.27 46.2913 149.591 45.6226C146.912 44.954 145.282 42.2399 145.951 39.5607Z" fill="#FF0000"/>
</svg>
