<svg width="120" height="30" viewBox="0 0 120 30" fill="none" xmlns="http://www.w3.org/2000/svg">
<g clip-path="url(#clip0_1482_33259)">
<path d="M87.6219 25.448C91.785 25.448 95.1599 22.1242 95.1599 18.0242C95.1599 13.9241 91.785 10.6003 87.6219 10.6003C83.4588 10.6003 80.084 13.9241 80.084 18.0242C80.084 22.1242 83.4588 25.448 87.6219 25.448Z" fill="#FF0000"/>
<path d="M0 0H7.58555V13.1636H7.66489L16.0518 0H23.9984L14.1634 14.5858L24.6372 29.2498H15.7662L7.65696 16.602H7.57761V29.2498H0V0Z" fill="#0D1019"/>
<path d="M26.208 0H32.8692V9.32665H32.9485C33.5119 8.32639 34.3053 7.61526 35.3368 7.19328C36.3684 6.77129 37.4832 6.5603 38.6892 6.5603C39.2248 6.5603 39.7723 6.60719 40.3357 6.69706C40.8991 6.79083 41.4465 6.9354 41.9821 7.13076C42.5177 7.33003 43.0255 7.5801 43.5056 7.88096C43.9856 8.18573 44.4022 8.54519 44.7513 8.96718C45.2314 9.52201 45.6083 10.0612 45.8741 10.5887C46.1399 11.1162 46.3502 11.6945 46.497 12.3274C46.6438 12.9604 46.739 13.652 46.7786 14.4022C46.8183 15.1524 46.8382 16.0159 46.8382 16.9927V29.2459H40.177V17.3092C40.177 17.0474 40.1572 16.6567 40.1175 16.1448C40.0778 15.6291 39.9509 15.125 39.7366 14.621C39.5224 14.1209 39.1693 13.6793 38.6734 13.2964C38.1775 12.9135 37.4911 12.7221 36.6064 12.7221C35.6701 12.7221 34.948 12.9018 34.4402 13.2574C33.9324 13.6129 33.5634 14.0271 33.3373 14.5038C33.1112 14.9766 32.9763 15.4611 32.9366 15.9456C32.8969 16.434 32.8771 16.8091 32.8771 17.0709V29.2459H26.2159V0H26.208Z" fill="#0D1019"/>
<path d="M73.888 29.2498H67.2269V26.8781H67.1475C66.8539 27.4056 66.477 27.8666 66.0247 28.2613C65.5685 28.6559 65.0488 28.988 64.4577 29.2498C63.8705 29.5116 63.2476 29.703 62.593 29.8242C61.9384 29.9414 61.2877 30.0039 60.645 30.0039C58.8796 30.0039 57.3006 29.6874 55.908 29.0544C54.5155 28.4215 53.3451 27.5658 52.397 26.4835C51.4488 25.4051 50.7188 24.1586 50.2109 22.7481C49.7031 21.3376 49.4492 19.8411 49.4492 18.2626C49.4492 16.4691 49.7547 14.8515 50.3736 13.4019C50.9885 11.9523 51.8058 10.7215 52.8215 9.70565C53.8371 8.68976 55.0233 7.91222 56.3722 7.37301C57.7251 6.83381 59.1494 6.56421 60.645 6.56421C61.5536 6.56421 62.3708 6.66189 63.0929 6.86116C63.8149 7.06043 64.4418 7.3105 64.9774 7.61136C65.513 7.91612 65.9533 8.24433 66.3025 8.5999C66.6516 8.95546 66.9293 9.30711 67.1435 9.64704H67.2229V7.3144H73.884V29.2537L73.888 29.2498ZM56.1064 18.3407C56.1064 18.8682 56.2056 19.4465 56.4079 20.0794C56.6103 20.7124 56.9316 21.3102 57.372 21.8768C57.8124 22.4433 58.3797 22.92 59.0779 23.299C59.7722 23.6819 60.6292 23.8734 61.6448 23.8734C62.6604 23.8734 63.565 23.6819 64.2752 23.299C64.9853 22.9161 65.5606 22.4433 66.0009 21.8768C66.4413 21.3102 66.7547 20.6968 66.9452 20.0404C67.1316 19.38 67.2269 18.7901 67.2269 18.2626C67.2269 17.6022 67.1118 16.9458 66.8857 16.2855C66.6595 15.6252 66.3104 15.0274 65.8423 14.4881C65.3741 13.9489 64.783 13.5152 64.0768 13.1831C63.3666 12.8549 62.5454 12.6908 61.6091 12.6908C60.6728 12.6908 59.8238 12.8705 59.1414 13.2261C58.459 13.5817 57.8917 14.0349 57.4355 14.5897C56.9792 15.1446 56.646 15.7502 56.4317 16.4066C56.2175 17.0669 56.1104 17.7116 56.1104 18.3446L56.1064 18.3407Z" fill="#0D1019"/>
<path d="M76.6172 18.2626C76.6172 16.9185 76.8632 15.5548 77.3591 14.1716C77.855 12.7885 78.5969 11.5382 79.5887 10.4168C80.5766 9.29538 81.8223 8.38108 83.322 7.66996C84.8216 6.95883 86.5871 6.60327 88.6184 6.60327C90.6497 6.60327 92.4191 6.95883 93.9148 7.66996C95.4144 8.38108 96.6562 9.29929 97.648 10.4168C98.6399 11.5382 99.3818 12.7885 99.8777 14.1716C100.374 15.5548 100.62 16.9185 100.62 18.2626C100.62 19.6067 100.374 20.9703 99.8777 22.3535C99.3818 23.7366 98.6399 24.987 97.648 26.1084C96.6562 27.2297 95.4144 28.144 93.9148 28.8552C92.4151 29.5663 90.6497 29.9218 88.6184 29.9218C86.5871 29.9218 84.8177 29.5663 83.322 28.8552C81.8223 28.144 80.5806 27.2297 79.5887 26.1084C78.5969 24.987 77.855 23.7366 77.3591 22.3535C76.8632 20.9703 76.6172 19.6067 76.6172 18.2626ZM83.2783 18.2626C83.2783 19.0518 83.4172 19.7903 83.6989 20.478C83.9806 21.1618 84.3654 21.7478 84.8613 22.2362C85.3572 22.7247 85.9246 23.1076 86.5673 23.3811C87.21 23.6585 87.8924 23.7952 88.6144 23.7952C89.3365 23.7952 90.0189 23.6585 90.6616 23.3811C91.3043 23.1037 91.8716 22.7247 92.3675 22.2362C92.8634 21.7478 93.2522 21.1618 93.5299 20.478C93.8116 19.7942 93.9505 19.0557 93.9505 18.2626C93.9505 17.4694 93.8116 16.7348 93.5299 16.0471C93.2483 15.3634 92.8595 14.7773 92.3675 14.2889C91.8716 13.8005 91.3043 13.4175 90.6616 13.144C90.0189 12.8666 89.3365 12.7299 88.6144 12.7299C87.8924 12.7299 87.21 12.8666 86.5673 13.144C85.9246 13.4215 85.3572 13.8044 84.8613 14.2889C84.3654 14.7734 83.9766 15.3634 83.6989 16.0471C83.4172 16.7309 83.2783 17.4694 83.2783 18.2626Z" fill="#0D1019"/>
<path d="M112.776 13.4801C112.776 13.3746 112.756 13.2222 112.716 13.0268C112.676 12.8276 112.589 12.6439 112.454 12.472C112.319 12.3001 112.113 12.1477 111.831 12.0188C111.55 11.8859 111.169 11.8195 110.689 11.8195C109.994 11.8195 109.506 11.9914 109.225 12.3352C108.943 12.6791 108.804 12.9956 108.804 13.2847C108.804 13.8903 109.153 14.3709 109.848 14.7265C110.542 15.0821 111.331 15.3907 112.216 15.6564C113.152 15.9182 114.089 16.2034 115.025 16.5043C115.961 16.8091 116.798 17.2115 117.532 17.7116C118.266 18.2118 118.861 18.8448 119.318 19.6106C119.774 20.3764 120 21.3493 120 22.5371C120 23.7249 119.758 24.7369 119.278 25.659C118.798 26.5811 118.139 27.3665 117.31 28.0112C116.481 28.6559 115.517 29.1521 114.422 29.4921C113.323 29.8359 112.161 30.0039 110.931 30.0039C110.074 30.0039 109.149 29.8984 108.162 29.6874C107.17 29.4764 106.233 29.0935 105.353 28.5426C104.468 27.9878 103.706 27.2454 103.063 26.3076C102.421 25.3738 102.02 24.1782 101.857 22.7325H108.479C108.558 23.2326 108.721 23.6233 108.959 23.8968C109.201 24.1743 109.459 24.3696 109.741 24.4908C110.022 24.608 110.284 24.6822 110.522 24.7096C110.764 24.7369 110.923 24.7486 111.002 24.7486C111.565 24.7486 112.093 24.5962 112.589 24.2954C113.085 23.9906 113.331 23.5765 113.331 23.049C113.331 22.627 113.224 22.2831 113.01 22.0214C112.795 21.7596 112.454 21.5056 111.986 21.2712C111.518 21.0328 110.907 20.7828 110.161 20.521C109.411 20.2592 108.503 19.9271 107.432 19.5324C106.709 19.2941 106.027 19.0049 105.384 18.6611C104.742 18.3173 104.178 17.9109 103.698 17.4342C103.218 16.9575 102.837 16.4183 102.556 15.8127C102.274 15.2071 102.135 14.535 102.135 13.7966C102.135 12.7182 102.369 11.7296 102.837 10.8309C103.305 9.93618 103.932 9.17036 104.722 8.53738C105.511 7.9044 106.428 7.41599 107.471 7.07606C108.515 6.73222 109.61 6.5603 110.76 6.5603C111.482 6.5603 112.311 6.65408 113.248 6.83772C114.184 7.02136 115.073 7.3652 115.918 7.86533C116.759 8.36546 117.505 9.06486 118.143 9.95963C118.786 10.8544 119.175 12.0266 119.306 13.4762H112.764L112.776 13.4801Z" fill="#0D1019"/>
</g>
<defs>
<clipPath id="clip0_1482_33259">
<rect width="120" height="30" fill="white"/>
</clipPath>
</defs>
</svg>
