<svg width="192" height="112" viewBox="0 0 192 112" fill="none" xmlns="http://www.w3.org/2000/svg">
<g filter="url(#filter0_d_1482_33133)">
<rect width="131.813" height="38" rx="19" transform="matrix(0.99024 0.139373 -0.138974 0.990296 33.4766 28)" fill="#FF5050" shape-rendering="crispEdges"/>
<rect x="0.429676" y="0.570272" width="20.9904" height="20.9904" rx="10.4952" transform="matrix(0.99024 0.139373 -0.139096 0.990279 46.314 37.8196)" stroke="white" stroke-width="1.00964"/>
<g clip-path="url(#clip0_1482_33133)">
<path d="M61.4923 47.8483L53.7281 53.6982L51.0682 50.1681" stroke="white" stroke-width="2.2869" stroke-linecap="round" stroke-linejoin="round"/>
</g>
<path d="M76.7333 58.8297L78.1484 48.7467L81.8407 49.2663C82.5561 49.367 83.132 49.5686 83.5681 49.871C84.0048 50.1701 84.3115 50.5362 84.4883 50.9694C84.6656 51.3994 84.7193 51.8638 84.6492 52.3627C84.5903 52.7828 84.4634 53.1265 84.2686 53.3936C84.0743 53.6574 83.8353 53.8581 83.5516 53.9956C83.2716 54.1302 82.9719 54.2152 82.6523 54.2506L82.6385 54.349C82.971 54.4125 83.2823 54.5668 83.5726 54.8118C83.8666 55.0541 84.093 55.3721 84.252 55.766C84.4109 56.1599 84.4537 56.6178 84.3805 57.1396C84.3082 57.655 84.1218 58.1007 83.8213 58.4768C83.5246 58.85 83.1084 59.1211 82.5726 59.2901C82.0373 59.4557 81.3791 59.4836 80.598 59.3736L76.7333 58.8297ZM78.4377 57.7391L80.6334 58.0481C81.362 58.1507 81.9036 58.083 82.2583 57.8451C82.613 57.6071 82.8201 57.2765 82.8795 56.8531C82.9242 56.5347 82.8847 56.2313 82.7612 55.9428C82.6377 55.6543 82.4377 55.4102 82.1611 55.2106C81.8879 55.0115 81.5477 54.8833 81.1408 54.826L78.8909 54.5094L78.4377 57.7391ZM79.0574 53.3229L81.0956 53.6097C81.4369 53.6578 81.753 53.6353 82.0438 53.5424C82.3379 53.4499 82.582 53.2968 82.776 53.0831C82.9737 52.8666 83.0954 52.5959 83.141 52.2709C83.1995 51.8541 83.1025 51.484 82.85 51.1606C82.5975 50.8372 82.1693 50.633 81.5654 50.548L79.4879 50.2556L79.0574 53.3229ZM90.9162 57.6277L91.5373 53.2017L93.0143 53.4095L91.953 60.9718L90.5056 60.7681L90.6894 59.4585L90.6106 59.4474C90.38 59.8266 90.0539 60.1238 89.6321 60.3389C89.2141 60.5512 88.7211 60.6173 88.1534 60.5374C87.6676 60.469 87.2526 60.3019 86.9084 60.0359C86.5679 59.767 86.3208 59.4059 86.1668 58.9525C86.0162 58.4995 85.9847 57.9612 86.0722 57.3376L86.7472 52.5275L88.2192 52.7346L87.569 57.3675C87.4967 57.8828 87.5819 58.3132 87.8246 58.6586C88.0673 59.0041 88.4168 59.2089 88.873 59.2731C89.1487 59.3119 89.4324 59.2815 89.7241 59.182C90.0192 59.083 90.2765 58.9067 90.4962 58.6531C90.7191 58.4 90.8591 58.0582 90.9162 57.6277ZM96.6812 64.6898C96.0806 64.6053 95.5747 64.4537 95.1636 64.2352C94.7558 64.0171 94.4339 63.7593 94.1978 63.4617C93.9618 63.164 93.7982 62.8515 93.7069 62.524L95.0454 62.1802C95.1137 62.3371 95.2105 62.5063 95.3356 62.688C95.4635 62.8733 95.6474 63.0415 95.8873 63.1924C96.1305 63.3437 96.4555 63.4481 96.8625 63.5053C97.4205 63.5839 97.9007 63.5126 98.3032 63.2914C98.7053 63.0735 98.9478 62.6692 99.0307 62.0784L99.2394 60.5916L99.1458 60.5784C99.0347 60.7267 98.8816 60.8876 98.6865 61.061C98.4948 61.2348 98.2444 61.3736 97.9353 61.4774C97.6262 61.5812 97.2403 61.6005 96.7775 61.5353C96.1802 61.4513 95.6615 61.236 95.2215 60.8896C94.7852 60.5403 94.466 60.072 94.264 59.4846C94.0657 58.8944 94.0229 58.1972 94.1358 57.3931C94.2486 56.5889 94.4816 55.9188 94.8346 55.3828C95.1909 54.8472 95.63 54.4605 96.1521 54.2227C96.6745 53.9816 97.2394 53.9038 97.8465 53.9892C98.3159 54.0553 98.6839 54.1874 98.9506 54.3856C99.2178 54.5805 99.4173 54.7927 99.5491 55.0221C99.6841 55.252 99.7849 55.4519 99.8514 55.622L99.9598 55.6372L100.132 54.4113L101.574 54.6143L100.49 62.344C100.398 62.9939 100.172 63.506 99.812 63.8803C99.4516 64.2547 98.9997 64.5057 98.4563 64.6334C97.9162 64.7615 97.3245 64.7803 96.6812 64.6898ZM97.2738 60.3601C97.6972 60.4197 98.0687 60.3716 98.3885 60.2157C98.7119 60.0571 98.9752 59.803 99.1782 59.4533C99.385 59.1009 99.525 58.6637 99.5982 58.1418C99.6696 57.6331 99.657 57.1744 99.5604 56.7659C99.4638 56.3573 99.2846 56.0242 99.0229 55.7664C98.7617 55.5054 98.4161 55.3446 97.9861 55.2841C97.543 55.2218 97.1577 55.2847 96.8301 55.4729C96.5029 55.6578 96.2364 55.9349 96.0306 56.3042C95.8281 56.674 95.693 57.1001 95.6253 57.5826C95.5558 58.0783 95.5702 58.5238 95.6687 58.9192C95.7671 59.3146 95.9493 59.6381 96.2152 59.8898C96.4844 60.1419 96.8373 60.2987 97.2738 60.3601ZM106.274 62.9874L107.689 52.9044L113.942 53.7844L113.758 55.094L109.027 54.4282L108.596 57.5003L112.879 58.1031L112.696 59.4078L108.412 58.805L107.795 63.2016L106.274 62.9874ZM116.888 64.6369C116.179 64.5371 115.583 64.2876 115.1 63.8883C114.617 63.489 114.271 62.9766 114.061 62.3513C113.851 61.7259 113.801 61.0227 113.91 60.2415C114.02 59.4571 114.263 58.7916 114.637 58.2452C115.012 57.6988 115.486 57.3003 116.06 57.0498C116.634 56.7992 117.275 56.7238 117.984 56.8236C118.693 56.9233 119.289 57.1729 119.772 57.5722C120.255 57.9715 120.601 58.4855 120.811 59.1141C121.02 59.7428 121.07 60.4493 120.96 61.2337C120.85 62.0149 120.608 62.6771 120.234 63.2202C119.86 63.7633 119.386 64.1602 118.812 64.4107C118.238 64.6613 117.597 64.7367 116.888 64.6369ZM117.066 63.4019C117.526 63.4665 117.923 63.3987 118.259 63.1983C118.596 62.9979 118.864 62.706 119.065 62.3226C119.269 61.9397 119.406 61.5053 119.474 61.0196C119.542 60.5371 119.53 60.0836 119.439 59.6591C119.352 59.2318 119.174 58.8738 118.907 58.5851C118.639 58.2964 118.276 58.1198 117.817 58.0551C117.354 57.99 116.953 58.059 116.613 58.2622C116.276 58.4659 116.006 58.7608 115.801 59.147C115.6 59.5304 115.465 59.9634 115.398 60.4458C115.329 60.9316 115.339 61.3865 115.427 61.8106C115.518 62.2351 115.697 62.59 115.965 62.8754C116.236 63.1612 116.603 63.3367 117.066 63.4019ZM127.308 62.7497L127.929 58.3236L129.406 58.5315L128.344 66.0937L126.897 65.89L127.081 64.5804L127.002 64.5693C126.771 64.9486 126.445 65.2457 126.023 65.4608C125.605 65.6731 125.112 65.7393 124.545 65.6594C124.059 65.591 123.644 65.4238 123.3 65.1578C122.959 64.889 122.712 64.5278 122.558 64.0744C122.408 63.6214 122.376 63.0831 122.463 62.4595L123.139 57.6494L124.611 57.8566L123.96 62.4895C123.888 63.0048 123.973 63.4351 124.216 63.7806C124.459 64.126 124.808 64.3308 125.264 64.395C125.54 64.4338 125.824 64.4035 126.115 64.304C126.411 64.2049 126.668 64.0286 126.888 63.775C127.11 63.5219 127.25 63.1801 127.308 62.7497ZM132.424 62.0892L131.794 66.5793L130.322 66.3721L131.383 58.8098L132.796 59.0087L132.624 60.2395L132.717 60.2527C132.947 59.8768 133.265 59.5934 133.67 59.4028C134.078 59.2125 134.566 59.1574 135.134 59.2373C135.649 59.3098 136.085 59.4817 136.442 59.7528C136.799 60.0206 137.055 60.3813 137.209 60.8347C137.363 61.2882 137.396 61.8267 137.309 62.4503L136.634 67.2604L135.162 67.0532L135.812 62.4204C135.889 61.8722 135.806 61.4238 135.564 61.0751C135.322 60.7231 134.952 60.512 134.453 60.4418C134.111 60.3937 133.797 60.4248 133.511 60.5351C133.228 60.6459 132.989 60.8332 132.794 61.097C132.604 61.358 132.48 61.6888 132.424 62.0892ZM141.418 68.0844C140.807 67.9985 140.284 67.7659 139.849 67.3866C139.417 67.0046 139.106 66.5039 138.915 65.8846C138.728 65.2625 138.692 64.5428 138.806 63.7255C138.921 62.9082 139.155 62.2283 139.509 61.6856C139.867 61.1435 140.306 60.7519 140.829 60.5108C141.351 60.2697 141.916 60.1919 142.523 60.2773C142.993 60.3434 143.359 60.4753 143.623 60.673C143.89 60.8679 144.088 61.0799 144.216 61.3088C144.348 61.5383 144.447 61.738 144.514 61.908L144.602 61.9205L145.128 58.1738L146.6 58.381L145.185 68.464L143.747 68.2617L143.913 67.085L143.789 67.0677C143.678 67.216 143.524 67.3818 143.328 67.565C143.135 67.7487 142.883 67.8974 142.573 68.011C142.262 68.1246 141.877 68.1491 141.418 68.0844ZM141.919 66.8747C142.342 66.9343 142.716 66.873 143.039 66.6909C143.366 66.506 143.633 66.224 143.841 65.8448C144.051 65.4661 144.194 65.0109 144.268 64.4791C144.342 63.954 144.331 63.4838 144.235 63.0687C144.139 62.6536 143.961 62.3155 143.7 62.0545C143.439 61.7935 143.093 61.6327 142.663 61.5722C142.22 61.5099 141.835 61.5728 141.507 61.761C141.179 61.9491 140.912 62.2312 140.705 62.6071C140.502 62.9834 140.365 63.4211 140.295 63.92C140.224 64.4254 140.236 64.8906 140.33 65.3156C140.425 65.7406 140.603 66.092 140.865 66.3699C141.131 66.645 141.482 66.8132 141.919 66.8747Z" fill="white"/>
<rect x="1.2769" y="1.6945" width="128.813" height="35" rx="17.5" transform="matrix(0.99024 0.139373 -0.138974 0.990296 33.7245 27.8385)" stroke="#FEA4A4" stroke-width="3" shape-rendering="crispEdges"/>
</g>
<defs>
<filter id="filter0_d_1482_33133" x="-2.09397" y="-2.28928" width="196.386" height="116.581" filterUnits="userSpaceOnUse" color-interpolation-filters="sRGB">
<feFlood flood-opacity="0" result="BackgroundImageFix"/>
<feColorMatrix in="SourceAlpha" type="matrix" values="0 0 0 0 0 0 0 0 0 0 0 0 0 0 0 0 0 0 127 0" result="hardAlpha"/>
<feOffset/>
<feGaussianBlur stdDeviation="15.1446"/>
<feComposite in2="hardAlpha" operator="out"/>
<feColorMatrix type="matrix" values="0 0 0 0 0 0 0 0 0 0 0 0 0 0 0 0 0 0 0.15 0"/>
<feBlend mode="normal" in2="BackgroundImageFix" result="effect1_dropShadow_1482_33133"/>
<feBlend mode="normal" in="SourceGraphic" in2="effect1_dropShadow_1482_33133" result="shape"/>
</filter>
<clipPath id="clip0_1482_33133">
<rect width="15" height="15" fill="white" transform="matrix(0.99024 0.139373 -0.139096 0.990279 49.6357 42.3926)"/>
</clipPath>
</defs>
</svg>
