<svg width="500" height="500" viewBox="0 0 500 500" fill="none" xmlns="http://www.w3.org/2000/svg">
<path d="M250 500C388.071 500 500 388.071 500 250C500 111.929 388.071 0 250 0C111.929 0 0 111.929 0 250C0 388.071 111.929 500 250 500Z" fill="#EEEEEE"/>
<path d="M304.475 232.033C304.475 232.033 144.865 226.735 143.357 232.59L96.3818 415.068H353.988L400.961 232.59C402.469 226.735 304.472 232.03 304.472 232.03L304.475 232.033Z" fill="white"/>
<path d="M406.054 212.803H148.45L143.357 232.593H400.961L406.054 212.803Z" fill="#E6D0BE"/>
<path d="M163.527 222.836C162.887 225.322 160.355 227.336 157.868 227.336C155.382 227.336 153.887 225.32 154.527 222.836C155.166 220.35 157.699 218.336 160.185 218.336C162.671 218.336 164.169 220.352 163.527 222.836Z" fill="white"/>
<path d="M176.177 225.833C178.3 223.966 178.85 221.122 177.406 219.48C175.962 217.838 173.071 218.021 170.948 219.887C168.826 221.754 168.276 224.598 169.72 226.239C171.164 227.881 174.055 227.699 176.177 225.833Z" fill="white"/>
<path d="M190.719 225.837C192.842 223.97 193.392 221.126 191.948 219.484C190.504 217.842 187.613 218.024 185.49 219.891C183.368 221.757 182.818 224.602 184.262 226.243C185.706 227.885 188.597 227.703 190.719 225.837Z" fill="white"/>
<path d="M297.341 291.519H142.48L144.232 284.713H299.093L297.341 291.519Z" fill="#E6D0BE"/>
<path d="M363.305 291.519H307.652L309.404 284.713H365.059L363.305 291.519Z" fill="#E6D0BE"/>
<path d="M253.201 313.505H208.54L210.291 306.702H254.953L253.201 313.505Z" fill="#E6D0BE"/>
<path d="M352.15 313.505H263.514L265.265 306.702H353.902L352.15 313.505Z" fill="#E6D0BE"/>
<path d="M236.224 379.473H191.562L193.314 372.667H237.975L236.224 379.473Z" fill="#E6D0BE"/>
<path d="M335.172 379.473H246.535L248.287 372.667H336.926L335.172 379.473Z" fill="#E6D0BE"/>
<path d="M324.501 335.494H230.367L232.119 328.688H326.252L324.501 335.494Z" fill="#E6D0BE"/>
<path d="M274.865 357.483H224.707L226.458 350.677H276.617L274.865 357.483Z" fill="#E6D0BE"/>
<path d="M170.77 273.325C170.587 273.325 170.404 273.241 170.286 273.082L161.734 261.568L176.081 250.159C176.341 249.951 176.721 249.995 176.928 250.254C177.136 250.514 177.092 250.894 176.833 251.101L163.398 261.787L171.253 272.366C171.453 272.634 171.396 273.011 171.131 273.208C171.021 273.287 170.896 273.325 170.773 273.325H170.77Z" fill="#363E44"/>
<path d="M188.866 273.325C188.688 273.325 188.513 273.246 188.393 273.099C188.185 272.839 188.229 272.459 188.489 272.252L201.923 261.569L194.068 250.989C193.868 250.722 193.926 250.345 194.191 250.148C194.459 249.948 194.836 250.006 195.035 250.274L203.587 261.79L189.24 273.2C189.131 273.287 188.997 273.331 188.866 273.331V273.325Z" fill="#363E44"/>
<path d="M175.265 272.645C175.145 272.645 175.022 272.609 174.915 272.533C174.645 272.339 174.582 271.962 174.776 271.691L189.667 250.88C189.86 250.609 190.235 250.547 190.508 250.741C190.779 250.935 190.841 251.312 190.647 251.582L175.757 272.394C175.639 272.558 175.453 272.645 175.265 272.645Z" fill="#363E44"/>
<path d="M497.495 164.549H274.375V326.123H497.495V164.549Z" fill="white"/>
<path d="M497.495 326.724H274.375C274.041 326.724 273.773 326.454 273.773 326.123V164.549C273.773 164.216 274.044 163.948 274.375 163.948H497.495C497.828 163.948 498.096 164.219 498.096 164.549V326.123C498.096 326.456 497.825 326.724 497.495 326.724ZM274.976 325.519H496.891V165.15H274.976V325.519Z" fill="#776E42"/>
<path d="M496.94 164.547H274.932C274.626 164.547 274.377 164.801 274.377 165.112V178.886H497.497V165.112C497.497 164.798 497.249 164.547 496.943 164.547H496.94Z" fill="url(#paint0_linear_1507_32509)"/>
<path d="M286.926 171.817C286.926 173.618 285.495 175.079 283.727 175.079C281.959 175.079 280.527 173.62 280.527 171.817C280.527 170.014 281.959 168.555 283.727 168.555C285.495 168.555 286.926 170.014 286.926 171.817Z" fill="white"/>
<path d="M294.061 175.079C295.828 175.079 297.26 173.619 297.26 171.817C297.26 170.015 295.828 168.555 294.061 168.555C292.294 168.555 290.861 170.015 290.861 171.817C290.861 173.619 292.294 175.079 294.061 175.079Z" fill="white"/>
<path d="M307.596 171.817C307.596 173.618 306.164 175.079 304.397 175.079C302.629 175.079 301.197 173.62 301.197 171.817C301.197 170.014 302.629 168.555 304.397 168.555C306.164 168.555 307.596 170.014 307.596 171.817Z" fill="white"/>
<path d="M380.501 222.601H480.881V218.169H380.501V222.601Z" fill="#9E9569"/>
<path d="M300.856 222.601H368.053V218.169H300.856V222.601Z" fill="#9E9569"/>
<path d="M426.96 236.918H480.881V232.486H426.96V236.918Z" fill="#9E9569"/>
<path d="M307.491 236.918H414.51V232.486H307.491V236.918Z" fill="#9E9569"/>
<path d="M426.96 279.869H480.881V275.437H426.96V279.869Z" fill="#9E9569"/>
<path d="M307.491 279.869H414.51V275.437H307.491V279.869Z" fill="#9E9569"/>
<path d="M334.04 251.237H447.695V246.806H334.04V251.237Z" fill="#9E9569"/>
<path d="M387.135 265.552H447.695V261.12H387.135V265.552Z" fill="#9E9569"/>
<path d="M455.67 208.295C455.514 208.295 455.358 208.235 455.241 208.115L445.774 198.459C445.544 198.224 445.544 197.85 445.774 197.615L455.241 187.962C455.473 187.724 455.856 187.721 456.093 187.953C456.331 188.186 456.334 188.568 456.102 188.806L447.047 198.038L456.102 207.27C456.334 207.508 456.331 207.891 456.093 208.123C455.976 208.238 455.823 208.295 455.673 208.295H455.67Z" fill="#FB6A61"/>
<path d="M471.181 208.295C471.028 208.295 470.875 208.238 470.76 208.123C470.523 207.891 470.52 207.508 470.752 207.27L479.807 198.038L470.752 188.806C470.52 188.568 470.523 188.186 470.76 187.953C470.998 187.721 471.381 187.724 471.613 187.962L481.083 197.615C481.312 197.85 481.312 198.224 481.083 198.459L471.613 208.115C471.495 208.235 471.34 208.295 471.184 208.295H471.181Z" fill="#FB6A61"/>
<path d="M459.376 207.703C459.294 207.703 459.209 207.686 459.13 207.651C458.826 207.514 458.69 207.159 458.826 206.856L466.999 188.67C467.135 188.367 467.49 188.23 467.796 188.367C468.1 188.503 468.236 188.858 468.1 189.162L459.928 207.347C459.826 207.571 459.608 207.703 459.378 207.703H459.376Z" fill="#FB6A61"/>
<path d="M299.268 208.465L294.85 230.388L323.322 236.864L330.489 208.76L299.268 208.465Z" fill="#E2A18D"/>
<path d="M326.889 252.044H264.774V250.574C264.774 236.711 276.031 225.454 289.894 225.454H326.886V252.044H326.889Z" fill="#E6D0BE"/>
<path d="M293.644 231.356C293.497 231.356 293.349 231.301 293.232 231.192L287.751 226.063C287.508 225.836 287.497 225.454 287.723 225.211C287.953 224.968 288.333 224.954 288.576 225.183L294.057 230.312C294.3 230.539 294.311 230.921 294.084 231.164C293.967 231.29 293.805 231.356 293.644 231.356Z" fill="#363E44"/>
<path d="M287.416 233.104C287.268 233.104 287.121 233.049 287.003 232.94L281.522 227.812C281.279 227.585 281.268 227.202 281.495 226.959C281.722 226.716 282.104 226.702 282.347 226.932L287.828 232.06C288.071 232.287 288.082 232.67 287.856 232.913C287.738 233.039 287.577 233.104 287.416 233.104Z" fill="#363E44"/>
<path d="M363.496 189.771L386.482 200.963L393.373 170.588L365.223 163.433L363.496 189.771Z" fill="#E2A18D"/>
<path d="M408.579 225.146L408.368 167.621H381.734L381.945 200.845C381.945 214.266 392.841 225.143 406.284 225.143H408.579V225.146Z" fill="#E6D0BE"/>
<path d="M382.114 203.862C381.961 203.862 381.805 203.801 381.688 203.684C381.453 203.449 381.453 203.066 381.688 202.832L386.825 197.703C387.06 197.468 387.442 197.468 387.677 197.703C387.912 197.938 387.912 198.321 387.677 198.556L382.54 203.684C382.423 203.801 382.27 203.859 382.114 203.859V203.862Z" fill="#363E44"/>
<path d="M383.864 209.692C383.711 209.692 383.555 209.632 383.438 209.514C383.203 209.28 383.203 208.897 383.438 208.662L388.575 203.534C388.81 203.299 389.192 203.299 389.427 203.534C389.662 203.769 389.662 204.151 389.427 204.386L384.29 209.514C384.173 209.632 384.02 209.689 383.864 209.689V209.692Z" fill="#363E44"/>
<path d="M316.928 111.727C307.649 105.659 296.037 104.189 288.239 106.509C275.201 110.391 265.671 126.528 286.409 143.047L370.01 199.681L385.906 154.465L316.925 111.727H316.928Z" fill="url(#paint1_linear_1507_32509)"/>
<path fill-rule="evenodd" clip-rule="evenodd" d="M346.295 163.282L337.991 217.364H280.578L315.728 111.102L315.729 111.102L315.729 111.102L383.893 120.465L440.084 140.331C440.084 140.331 439.168 163.282 412.942 163.282H346.295Z" fill="url(#paint2_linear_1507_32509)"/>
<path d="M301.26 155.451C301.197 155.451 301.134 155.44 301.071 155.421C300.754 155.318 300.585 154.976 300.689 154.659L310.738 124.282C310.842 123.968 311.181 123.793 311.5 123.899C311.817 124.003 311.987 124.345 311.883 124.662L301.834 155.039C301.749 155.293 301.514 155.451 301.262 155.451H301.26Z" fill="#E6D0BE"/>
<path d="M343.02 185.211C342.987 185.211 342.954 185.211 342.921 185.203C342.594 185.148 342.37 184.84 342.424 184.512L345.859 163.525C345.905 163.233 346.159 163.02 346.454 163.02H388.069C388.402 163.02 388.67 163.29 388.67 163.621C388.67 163.952 388.4 164.222 388.069 164.222H346.968L343.618 184.703C343.569 184.998 343.315 185.209 343.025 185.209L343.02 185.211Z" fill="#E6D0BE"/>
<path d="M387.043 104.719L411.942 102.205L412.491 94.9978L388.204 89.4814L387.043 104.719Z" fill="#BC8271"/>
<path d="M393.77 125.495C402.942 127.41 410.524 120.814 411.279 110.896L411.94 102.208L349.284 86.9702C333.369 83.6478 321.94 90.279 319.336 104.757L342.199 111.67L393.77 125.498V125.495Z" fill="#E2A18D"/>
<path d="M338.571 115.178C340.188 115.517 341.775 114.478 342.114 112.864L342.726 109.937C343.065 108.323 342.027 106.738 340.409 106.399C338.792 106.06 337.204 107.099 336.866 108.713L336.254 111.639C335.915 113.254 336.953 114.839 338.571 115.178Z" fill="#E2A18D"/>
<path d="M332.705 113.954C334.323 114.293 335.91 113.255 336.249 111.64L336.861 108.714C337.2 107.099 336.162 105.514 334.544 105.175C332.927 104.837 331.339 105.875 331 107.49L330.388 110.416C330.05 112.031 331.088 113.615 332.705 113.954Z" fill="#BC8271"/>
<path d="M326.846 112.73C328.463 113.069 330.051 112.031 330.39 110.416L331.002 107.49C331.34 105.875 330.302 104.29 328.685 103.951C327.067 103.613 325.48 104.651 325.141 106.266L324.529 109.192C324.19 110.809 325.228 112.391 326.846 112.73Z" fill="#BC8271"/>
<path d="M320.983 111.506C322.6 111.845 324.188 110.806 324.526 109.192L325.138 106.265C325.477 104.651 324.439 103.066 322.821 102.727C321.204 102.388 319.616 103.427 319.278 105.041L318.666 107.968C318.327 109.582 319.365 111.167 320.983 111.506Z" fill="#BC8271"/>
<path d="M336.023 113.102C335.976 113.102 335.93 113.097 335.886 113.086C335.561 113.009 335.362 112.687 335.438 112.362L336.378 108.351C336.455 108.028 336.777 107.824 337.102 107.903C337.427 107.979 337.627 108.302 337.553 108.627L336.613 112.638C336.548 112.916 336.302 113.102 336.028 113.102H336.023Z" fill="#363E44"/>
<path d="M330.369 111.531C330.322 111.531 330.276 111.525 330.229 111.514C329.907 111.438 329.707 111.113 329.784 110.788L330.951 105.905C331.027 105.583 331.355 105.383 331.677 105.46C332 105.536 332.199 105.861 332.123 106.186L330.956 111.069C330.89 111.345 330.642 111.531 330.371 111.531H330.369Z" fill="#363E44"/>
<path d="M324.382 110.189C324.336 110.189 324.289 110.184 324.243 110.173C323.921 110.097 323.721 109.771 323.798 109.446L325 104.408C325.076 104.086 325.404 103.886 325.727 103.963C326.049 104.039 326.248 104.364 326.172 104.689L324.97 109.728C324.904 110.004 324.656 110.189 324.385 110.189H324.382Z" fill="#363E44"/>
<path d="M404.43 100.981C404.384 100.981 404.334 100.975 404.288 100.965L387.597 96.9044C387.274 96.8252 387.075 96.5001 387.154 96.1777C387.233 95.8553 387.558 95.6531 387.881 95.7351L404.572 99.7952C404.895 99.8744 405.094 100.2 405.015 100.522C404.946 100.798 404.701 100.981 404.43 100.981Z" fill="#363E44"/>
<path d="M446.792 149.694L463.09 101.224C463.09 101.224 468.445 84.5631 468.18 78.7872C467.68 67.9484 464.434 59.2708 451.024 52.4129C440.538 47.0495 423.658 45.9238 409.508 51.2708C393.8 57.208 393.041 84.7626 383.891 125.26L446.792 149.694Z" fill="#EFBC73"/>
<path d="M409.512 51.2708C409.512 51.2708 393.285 55.6342 388.812 71.708C384.809 86.0959 384.924 89.7489 384.924 89.7489L399.449 91.6888L409.514 51.2681L409.512 51.2708Z" fill="#EFBC73"/>
<path d="M390.831 90.9622C390.792 90.9622 390.754 90.9595 390.713 90.9513C390.385 90.8884 390.175 90.5715 390.238 90.2436C391.295 84.8638 392.276 80.7245 393.178 77.0551C393.257 76.7327 393.582 76.536 393.907 76.6152C394.229 76.6944 394.426 77.0223 394.347 77.3447C393.448 81.0004 392.473 85.1207 391.421 90.4759C391.363 90.7627 391.112 90.9622 390.831 90.9622Z" fill="#363E44"/>
<path d="M317.681 109.743H380.031V112.191L315.621 114.115L317.681 109.743Z" fill="white"/>
<path d="M282.011 116.817H337.333C339.278 116.817 340.565 114.798 339.74 113.039L315.232 60.7407H250.562L274.653 112.142C275.989 114.995 278.858 116.817 282.011 116.817Z" fill="#FB6A61"/>
<path d="M380.029 111.186C380.029 114.309 377.493 116.842 374.362 116.842H320.256L317.605 111.186H380.029Z" fill="#FB6A61"/>
<path d="M291.046 88.4839C291.866 90.5686 293.754 91.779 295.262 91.1861C296.77 90.5932 297.327 88.4238 296.508 86.3391C295.688 84.2544 293.8 83.044 292.292 83.6369C290.784 84.2298 290.226 86.3992 291.046 88.4839Z" fill="white"/>
<path d="M433.832 112.777L463.529 107.487V98.7712L433.832 94.356V112.777Z" fill="#E2A18D"/>
<path d="M435.881 63.208C437.775 60.1342 442.731 56.3337 446.335 56.0659C451.422 55.6916 458.564 57.0468 463.644 63.4102C471.324 73.0386 471.04 102.727 471.04 102.727L428.496 95.6479C428.496 95.6479 429.182 74.0905 435.884 63.208H435.881Z" fill="#EFBC73"/>
<path d="M433.757 97.0881C433.727 97.0881 433.694 97.0881 433.661 97.0799L427.877 96.1591L427.893 95.6291C427.896 95.4952 428.361 82.0854 431.787 71.1455C431.885 70.8285 432.221 70.6509 432.541 70.752C432.858 70.8504 433.035 71.1892 432.934 71.5061C429.94 81.0662 429.24 92.558 429.117 95.1373L433.85 95.8914C434.177 95.9433 434.402 96.252 434.35 96.5799C434.303 96.8777 434.046 97.0881 433.757 97.0881Z" fill="#363E44"/>
<path d="M443.82 137.134C455.02 138.598 463.531 129.978 463.531 117.989V107.484L386.826 94.8825C367.394 92.3416 354.263 101.355 352.457 118.995L380.569 125.216L443.82 137.131V137.134Z" fill="#E2A18D"/>
<path d="M354.61 110.659C354.534 110.659 354.457 110.645 354.383 110.615C354.075 110.489 353.927 110.137 354.053 109.831C358.424 99.1203 368.334 93.4482 381.962 93.8826C382.296 93.8935 382.555 94.1695 382.547 94.5028C382.536 94.8362 382.247 95.1067 381.927 95.0848C368.84 94.6804 359.34 100.074 355.17 110.284C355.075 110.516 354.85 110.659 354.613 110.659H354.61Z" fill="#363E44"/>
<path d="M376.523 129.768H376.529C378.504 130.028 380.313 128.637 380.572 126.662L381.04 123.093C381.299 121.118 379.906 119.306 377.93 119.047H377.925C375.949 118.787 374.141 120.178 373.881 122.153L373.414 125.722C373.154 127.697 374.548 129.509 376.523 129.768Z" fill="#E2A18D"/>
<path d="M369.365 128.834H369.37C371.346 129.093 373.155 127.702 373.414 125.727L373.881 122.159C374.141 120.183 372.748 118.372 370.772 118.112H370.767C368.791 117.853 366.982 119.243 366.723 121.219L366.256 124.787C365.996 126.762 367.39 128.574 369.365 128.834Z" fill="#E2A18D"/>
<path d="M362.207 127.896H362.212C364.188 128.156 365.996 126.765 366.256 124.789L366.723 121.221C366.983 119.246 365.589 117.434 363.614 117.175H363.608C361.633 116.915 359.824 118.306 359.565 120.281L359.098 123.85C358.838 125.825 360.231 127.636 362.207 127.896Z" fill="#E2A18D"/>
<path d="M355.049 126.959H355.054C357.03 127.219 358.838 125.828 359.098 123.852L359.565 120.284C359.825 118.309 358.431 116.497 356.456 116.238H356.45C354.475 115.978 352.666 117.369 352.407 119.344L351.939 122.913C351.68 124.888 353.071 126.699 355.049 126.959Z" fill="#E2A18D"/>
<path d="M373.218 127.385C373.188 127.385 373.155 127.385 373.125 127.377C372.797 127.325 372.571 127.019 372.623 126.689L373.604 120.372C373.655 120.044 373.964 119.82 374.292 119.869C374.62 119.921 374.847 120.227 374.795 120.558L373.814 126.875C373.767 127.172 373.511 127.385 373.218 127.385Z" fill="#363E44"/>
<path d="M366.279 126.014C366.246 126.014 366.216 126.014 366.183 126.006C365.855 125.954 365.631 125.645 365.683 125.315L366.64 119.342C366.691 119.014 367 118.787 367.331 118.842C367.659 118.894 367.883 119.203 367.831 119.533L366.875 125.506C366.828 125.801 366.571 126.014 366.282 126.014H366.279Z" fill="#363E44"/>
<path d="M358.959 124.948C358.929 124.948 358.896 124.948 358.863 124.94C358.535 124.888 358.311 124.58 358.363 124.252L359.347 118.088C359.398 117.76 359.699 117.533 360.038 117.588C360.366 117.64 360.59 117.948 360.538 118.276L359.554 124.44C359.508 124.738 359.251 124.948 358.961 124.948H358.959Z" fill="#363E44"/>
<path d="M454.332 106.577C454.3 106.577 454.267 106.577 454.234 106.569L433.802 103.213C433.474 103.159 433.25 102.85 433.305 102.522C433.36 102.194 433.668 101.97 433.996 102.025L454.428 105.38C454.756 105.435 454.98 105.743 454.925 106.071C454.876 106.366 454.622 106.577 454.332 106.577Z" fill="#363E44"/>
<path d="M428.476 61.0084L428.024 61.0473C423.163 61.4667 418.875 57.8601 418.456 52.9984L415.917 23.5639C415.571 19.5542 418.546 16.0177 422.556 15.6719L426.094 15.3666C430.104 15.0207 433.641 17.9956 433.986 22.0053L436.525 51.4397C436.945 56.3014 433.338 60.589 428.476 61.0084Z" fill="#E2A18D"/>
<path d="M422.88 10.4046C422.244 10.3172 416.129 9.55762 412.257 13.5904C409.378 16.5904 408.878 20.5768 409.055 27.391C409.263 35.4128 410.512 40.1806 412.749 41.8554C416.287 44.503 427.443 39.38 431.842 32.5686C435.017 27.6505 434.954 21.1423 432.031 16.0248C429.115 10.921 423.285 10.462 422.878 10.4046H422.88Z" fill="#E2A18D"/>
<path d="M409.445 19.3936C414.363 17.7297 415.915 17.9947 416.344 18.645C416.705 19.1969 416.126 19.8171 416.571 20.3636C417.314 21.2789 419.369 20.0712 422.369 20.9073C422.719 21.0056 423 21.1067 423.183 21.1778C423.033 23.9373 422.882 26.6942 422.729 29.4537C426.596 29.4947 430.459 29.5357 434.325 29.5739C434.904 28.9974 435.806 28.2078 437.044 27.5084C439.91 25.8881 441.382 26.3116 442.615 25.2024C444.956 23.0931 443.448 17.9127 442.995 16.3499C441.413 10.8991 437.56 7.74334 436.093 6.5712C432.56 3.75427 429.101 2.77612 427.26 2.27612C425.262 1.73241 419.268 0.153178 412.855 2.54662C409.82 3.6805 408.303 5.07394 407.964 5.39634C405.464 7.75973 403.486 11.675 404.702 13.4018C405.246 14.1723 405.995 13.9045 407.148 14.7597C408.721 15.9237 409.249 17.8854 409.445 19.3963V19.3936Z" fill="#363E44"/>
<path d="M417.533 43.1724C417.254 43.1724 417.003 42.9784 416.943 42.6915C416.874 42.3664 417.085 42.0467 417.41 41.9784C421.85 41.0549 428.284 37.2516 431.361 32.4866C431.541 32.2079 431.912 32.126 432.194 32.3063C432.473 32.4866 432.555 32.8582 432.372 33.1396C429 38.3582 422.273 42.197 417.653 43.1587C417.612 43.1669 417.571 43.1724 417.53 43.1724H417.533Z" fill="#363E44"/>
<path d="M421.808 24.4729C421.808 24.4729 420.978 26.7898 419.035 28.5303C418.625 28.8964 416.431 24.9073 416.983 24.7434C419.447 24.0084 421.811 24.4729 421.811 24.4729H421.808Z" fill="white"/>
<path d="M411.184 30.4894C411.184 30.4894 414.725 31.1862 417.657 29.525C418.171 29.2354 418.63 28.8911 419.04 28.5222C419.067 26.943 418.255 25.5359 417.001 24.7354C416.441 24.902 415.876 25.1288 415.332 25.4348C412.397 27.096 411.182 30.4894 411.182 30.4894H411.184Z" fill="#363E44"/>
<path d="M414.128 36.0984C413.72 36.0984 413.305 35.9892 412.934 35.7706C412.647 35.6012 412.554 35.2323 412.723 34.9454C412.893 34.6586 413.264 34.5657 413.548 34.7351C413.964 34.981 414.477 34.9427 414.802 34.6422C415.196 34.2733 415.076 33.664 415.073 33.6586C415.005 33.3361 415.21 33.0137 415.532 32.9427C415.857 32.8717 416.174 33.0684 416.248 33.3908C416.261 33.4427 416.535 34.6722 415.622 35.5219C415.215 35.9017 414.677 36.0984 414.128 36.0984Z" fill="#363E44"/>
<path d="M409.699 29.9453C409.707 30.336 409.661 30.9071 409.366 31.4918C409.011 32.1939 408.557 32.3934 408.549 32.8442C408.543 33.1475 408.737 33.5901 409.713 34.1448L409.699 29.948V29.9453Z" fill="#BC8271"/>
<path d="M409.713 34.7459C409.612 34.7459 409.511 34.7213 409.415 34.6666C408.415 34.0983 407.935 33.5 407.945 32.8333C407.954 32.3688 408.202 32.0683 408.421 31.806C408.56 31.6393 408.702 31.4672 408.828 31.2186C409.014 30.8497 409.107 30.4235 409.096 29.9563C409.09 29.6229 409.355 29.3497 409.689 29.3442C410.027 29.3306 410.295 29.6038 410.301 29.9344C410.312 30.6011 410.178 31.2158 409.902 31.7623C409.713 32.1311 409.503 32.388 409.347 32.5738C409.26 32.6803 409.15 32.8115 409.148 32.8524C409.148 32.9481 409.323 33.2295 410.006 33.6175C410.295 33.7814 410.396 34.1502 410.232 34.4399C410.12 34.6339 409.918 34.7459 409.708 34.7459H409.713Z" fill="#363E44"/>
<path d="M425.013 25.1835C425.425 23.1807 428.111 22.3337 429.756 23.1998C431.846 24.2982 432.486 27.1916 431.182 29.6589C430.13 31.6561 428.128 32.7627 426.297 32.5332L424.619 31.8119C424.619 31.8119 424.595 27.219 425.013 25.1835Z" fill="#E2A18D"/>
<path d="M426.79 33.1666C426.602 33.1666 426.41 33.1557 426.222 33.1311C425.891 33.0901 425.659 32.7868 425.7 32.4589C425.741 32.1283 426.03 31.8934 426.372 31.9371C428.017 32.1447 429.735 31.1174 430.651 29.3797C431.271 28.2021 431.424 26.8688 431.069 25.7212C430.793 24.836 430.23 24.1311 429.479 23.7376C428.118 23.0218 426.339 23.418 425.052 24.724C424.82 24.9617 424.438 24.9644 424.2 24.7322C423.962 24.4999 423.959 24.1174 424.192 23.8797C425.85 22.1912 428.2 21.7049 430.039 22.6721C431.074 23.2158 431.85 24.1748 432.219 25.3661C432.67 26.8169 432.487 28.4863 431.716 29.9453C430.67 31.9316 428.741 33.1721 426.79 33.1721V33.1666Z" fill="#363E44"/>
<path d="M429.04 29.7214C428.912 29.7214 428.783 29.6804 428.671 29.5957C428.409 29.3935 428.36 29.0137 428.562 28.7514C428.647 28.6421 428.723 28.5247 428.786 28.4017C429.065 27.8717 429.136 27.276 428.977 26.7678C428.895 26.5028 428.715 26.1449 428.313 25.9345C428.136 25.8416 427.944 25.7924 427.737 25.787C427.403 25.7788 427.141 25.5055 427.147 25.1722C427.155 24.8443 427.423 24.582 427.748 24.582H427.761C428.155 24.5902 428.529 24.6859 428.871 24.8662C429.466 25.1804 429.912 25.7268 430.125 26.4099C430.376 27.2214 430.275 28.1531 429.849 28.9618C429.753 29.1449 429.638 29.3197 429.513 29.4864C429.395 29.6394 429.215 29.7214 429.035 29.7214H429.04Z" fill="#363E44"/>
<path d="M209.768 409.563L190.093 453.929L268.049 495.5C268.049 495.5 275.672 424.29 209.77 409.563H209.768Z" fill="white"/>
<path d="M201.262 337.156L203.218 412.631C203.472 412.601 248.357 437.448 248.043 435.309C247.835 433.896 250.625 372.366 252.543 330.801C252.805 325.137 252.038 319.634 250.415 314.481L219.434 319.724L201.262 337.159V337.156Z" fill="url(#paint3_linear_1507_32509)"/>
<path d="M223.699 444.426L252.617 470.828L274.899 457.675L251.12 424.743L223.699 444.426Z" fill="#9E6C5A"/>
<path d="M226.129 497.546H338.35C338.35 497.546 312.755 461.486 268.05 444.877L237.766 460.052C237.766 460.052 230.085 479.172 226.129 497.549V497.546Z" fill="#E6D0BE"/>
<path d="M268.332 465.798C268.195 465.798 268.058 465.751 267.946 465.658C267.692 465.445 267.657 465.066 267.87 464.809L279.433 450.984C279.646 450.729 280.026 450.694 280.28 450.907C280.534 451.12 280.569 451.5 280.356 451.757L268.793 465.582C268.676 465.724 268.504 465.798 268.332 465.798Z" fill="#363E44"/>
<path d="M277.869 470.164C277.732 470.164 277.596 470.118 277.484 470.025C277.229 469.812 277.194 469.432 277.407 469.175L288.97 455.35C289.183 455.096 289.563 455.06 289.817 455.273C290.071 455.486 290.106 455.866 289.893 456.123L278.331 469.948C278.21 470.09 278.041 470.164 277.869 470.164Z" fill="#363E44"/>
<path d="M130.571 348.981L226.148 453.084L259.64 426.694L206.396 339.899C206.396 339.899 189.107 314.825 166.058 326.47C143.008 338.115 130.571 348.983 130.571 348.983V348.981Z" fill="url(#paint4_linear_1507_32509)"/>
<mask id="mask0_1507_32509" style="mask-type:luminance" maskUnits="userSpaceOnUse" x="9" y="276" width="243" height="97">
<path d="M251.568 276.675H9.51074V372.426H251.568V276.675Z" fill="white"/>
</mask>
<g mask="url(#mask0_1507_32509)">
<path d="M213.814 282.388C146.407 270.811 80.8033 293.178 16.552 341.003C16.552 341.003 12.0246 371.112 47.4399 379.391C82.8552 387.669 200.984 326.47 200.984 326.47L201.26 337.158L250.413 314.481C245.279 298.186 231.486 285.424 213.814 282.388Z" fill="url(#paint5_linear_1507_32509)"/>
</g>
<path d="M144.3 353.738C144.074 353.738 143.855 353.607 143.754 353.388C143.615 353.085 143.746 352.73 144.049 352.587L213.388 320.582C213.691 320.443 214.049 320.574 214.188 320.877C214.328 321.18 214.197 321.536 213.893 321.678L144.554 353.683C144.472 353.721 144.388 353.738 144.303 353.738H144.3Z" fill="#363E44"/>
<path d="M247.265 407.126C247.063 407.126 246.864 407.025 246.751 406.839L203.902 336.795C203.727 336.511 203.817 336.139 204.101 335.967C204.383 335.792 204.754 335.882 204.929 336.167L247.779 406.21C247.954 406.495 247.864 406.866 247.579 407.038C247.481 407.098 247.372 407.126 247.265 407.126Z" fill="#363E44"/>
<path d="M104.506 153.232C104.506 153.232 95.8908 154.462 89.6066 148.421C83.3225 142.38 67.1531 138.721 53.9755 148.8C27.7596 168.852 28.858 133.732 5.5957 146.12V154.779C8.09024 153.852 12.0383 153.888 16.9482 159.035C24.1995 166.637 28.8197 165.391 30.1176 164.792C30.3607 164.667 30.4946 164.587 30.4946 164.587C30.4946 164.587 30.3662 164.678 30.1176 164.792C28.3826 165.691 20.9837 168.994 15.2706 163.44C11.6148 159.885 8.15308 159.798 5.5957 160.571V195.945C5.5957 195.945 10.6258 209.475 26.5192 203.746C42.4154 198.014 46.4973 179.325 62.8908 186.503C79.2842 193.68 75.7979 195.172 91.1312 187.828C106.465 180.484 104.506 153.232 104.506 153.232Z" fill="#363E44"/>
<path d="M105.947 199.874C99.6794 201.167 90.2396 186.024 90.2396 186.024L89.6221 166.486C93.245 158.246 102.863 154.503 111.103 158.128C119.343 161.751 123.087 171.369 119.461 179.609C119.461 179.609 112.33 198.56 105.947 199.874Z" fill="#9E6C5A"/>
<path d="M73.1055 204.038L90.7694 226.94L92.1956 209.691L107.775 174.27L89.6956 166.319L73.1055 204.038Z" fill="#9E6C5A"/>
<path d="M116.02 182.778C116.02 182.778 118.277 189.002 117.545 190.062C116.67 191.328 111.638 190.12 111.638 190.12C111.638 190.12 116.124 182.836 116.017 182.778H116.02Z" fill="#9E6C5A"/>
<path d="M102.837 176.218C102.837 176.218 105.924 175.972 108.938 177.297C109.577 177.579 106.116 182.174 105.635 181.617C103.523 179.166 102.837 176.218 102.837 176.218Z" fill="white"/>
<mask id="mask1_1507_32509" style="mask-type:luminance" maskUnits="userSpaceOnUse" x="102" y="176" width="14" height="10">
<path d="M102.837 176.218C102.837 176.218 107.381 175.857 110.818 178.374C114.255 180.89 115.288 185.327 115.288 185.327C115.288 185.327 110.744 185.688 107.307 183.172C103.87 180.655 102.837 176.218 102.837 176.218Z" fill="white"/>
</mask>
<g mask="url(#mask1_1507_32509)">
<path d="M109.121 177.221C111.987 176.106 115.217 177.524 116.334 180.393C117.449 183.259 116.031 186.489 113.162 187.606C110.296 188.721 107.066 187.303 105.949 184.434C104.834 181.568 106.252 178.338 109.121 177.221Z" fill="#363E44"/>
</g>
<path d="M107.739 191.877C106.774 191.877 105.856 191.396 105.321 190.576C104.722 189.664 104.695 188.464 105.253 187.522C105.422 187.235 105.791 187.139 106.078 187.308C106.365 187.478 106.46 187.847 106.291 188.134C105.966 188.685 105.982 189.385 106.329 189.918C106.692 190.47 107.351 190.759 108.007 190.653C108.335 190.601 108.643 190.825 108.695 191.153C108.747 191.481 108.523 191.789 108.195 191.841C108.042 191.866 107.892 191.877 107.742 191.877H107.739Z" fill="#363E44"/>
<path d="M100.999 199.298C100.884 199.298 100.766 199.265 100.663 199.197C95.2309 195.557 89.8401 186.967 89.6134 186.604C89.4385 186.322 89.5232 185.951 89.8046 185.773C90.0888 185.598 90.4576 185.683 90.6352 185.964C90.6899 186.052 96.1188 194.699 101.332 198.194C101.608 198.38 101.682 198.754 101.499 199.03C101.381 199.205 101.193 199.298 100.999 199.298Z" fill="#363E44"/>
<path d="M82.5925 173.505C80.4887 168.792 86.4996 159.502 93.2291 155.997C101.904 151.478 108.538 150.319 116.046 154.653C127.382 161.199 125.046 176.939 125.046 176.939C125.046 176.939 113.308 172.016 109.308 170.467C103.685 168.289 100.674 186.71 94.2182 176.202C93.5078 175.046 84.5898 197.658 74.8275 191.688C61.4559 183.513 84.8275 178.508 82.5953 173.505H82.5925Z" fill="#363E44"/>
<path d="M99.5063 180.147C101.684 177.969 101.684 174.438 99.5063 172.26C97.3286 170.083 93.7977 170.083 91.6199 172.26C89.4422 174.438 89.4422 177.969 91.6199 180.147C93.7977 182.325 97.3286 182.325 99.5063 180.147Z" fill="#9E6C5A"/>
<path d="M31.3909 206.063C29.604 206.063 27.7707 205.648 26.0466 204.822C22.9975 203.363 20.7242 200.839 19.8171 197.894C19.7188 197.577 19.8964 197.238 20.2161 197.139C20.533 197.041 20.8718 197.219 20.9702 197.538C21.7816 200.164 23.8226 202.424 26.5712 203.735C29.3199 205.049 32.3581 205.219 34.9128 204.202C38.5193 202.765 41.0494 199.486 43.4975 196.314C43.7652 195.97 44.0303 195.626 44.2953 195.284C46.9292 191.913 50.5712 187.997 55.4264 187.62C57.9947 187.426 60.4346 188.271 62.7953 189.09C64.7188 189.76 66.7079 190.451 68.7024 190.533C71.3581 190.642 74.0467 189.484 76.0958 187.358C78.145 185.232 79.1997 182.497 78.992 179.853C78.9674 179.522 79.2133 179.232 79.5467 179.205C79.8745 179.183 80.1696 179.426 80.1942 179.76C80.4264 182.746 79.2488 185.82 76.9619 188.194C74.6751 190.568 71.645 191.858 68.6532 191.738C66.4811 191.648 64.4073 190.926 62.3991 190.23C60.0549 189.413 57.8445 188.642 55.5193 188.822C51.1341 189.161 47.7242 192.85 45.2434 196.025C44.9783 196.363 44.7161 196.705 44.451 197.049C41.9046 200.35 39.2707 203.762 35.3581 205.32C34.115 205.817 32.768 206.063 31.3964 206.063H31.3909Z" fill="#363E44"/>
<path d="M40.3168 152.899C35.3441 152.899 30.3468 149.959 28.2403 145.415C28.1009 145.115 28.2321 144.754 28.5326 144.615C28.8386 144.475 29.1938 144.606 29.3332 144.907C31.6665 149.94 37.9097 152.806 43.2457 151.295C45.3414 150.702 47.1911 149.571 49.1501 148.374C50.0272 147.839 50.9343 147.284 51.8578 146.789C61.1884 141.781 73.5709 142.792 81.9698 149.243C82.2321 149.445 82.284 149.825 82.0791 150.087C81.8769 150.35 81.4971 150.401 81.2348 150.196C73.202 144.024 61.3523 143.057 52.4261 147.85C51.5326 148.328 50.6419 148.874 49.7785 149.401C47.8359 150.587 45.8304 151.814 43.5736 152.453C42.5108 152.754 41.4151 152.896 40.3168 152.896V152.899Z" fill="#363E44"/>
<path d="M227.519 280.732H170.244C166.358 280.732 163.208 277.582 163.208 273.697H227.522V280.732H227.519Z" fill="#363E44"/>
<path d="M227.947 280.532L245.294 225.945C246.472 222.243 244.423 218.286 240.72 217.109L221.242 278.401L227.947 280.532Z" fill="#363E44"/>
<path d="M221.438 271.358C221.378 271.358 221.315 271.35 221.255 271.331C220.938 271.229 220.764 270.891 220.865 270.574L237.914 216.926C238.015 216.609 238.354 216.434 238.671 216.535C238.988 216.637 239.162 216.975 239.061 217.292L222.012 270.94C221.93 271.197 221.692 271.361 221.438 271.361V271.358Z" fill="white"/>
<path d="M8.36328 345.912L113.396 299.169L97.5464 228.596L100.921 212.981L59.5081 197.391L52.5901 212.041C52.5901 212.041 18.3414 243.825 8.36602 345.915L8.36328 345.912Z" fill="white"/>
<path d="M193.937 259.726C190.145 258.295 175.344 249.822 168.677 254.147C161.964 258.502 159.328 266.915 159.511 274.885C159.533 274.907 159.56 274.934 159.582 274.956C160.557 276.937 162.325 279.754 165.473 281.634C169.063 283.776 171.011 282.647 175.15 284.322C182.139 287.147 183.41 293.333 185.825 292.196C187.484 291.418 186.902 287.781 185.503 284.601C184.065 281.336 181.757 279.828 182.115 279.366C182.508 278.858 184.653 280.694 187.533 282.732C188.871 283.68 190.934 288.53 193.361 287.798C195.292 287.213 194.415 281.636 191.188 277.901C188.907 275.259 185.546 274.743 185.768 274.147C185.934 273.699 187.929 274.054 189.555 274.871C192.24 276.218 194.404 281.158 196.623 280.442C198.795 279.74 197.943 274.882 195.194 271.259C192.877 268.205 189.101 267.808 189.371 267.065C189.563 266.543 191.29 266.371 194.85 267.095C197.822 267.699 203.21 270.784 204.309 267.784C205.235 265.262 199.653 261.89 193.932 259.729L193.937 259.726Z" fill="#9E6C5A"/>
<path d="M96.3904 264.726C87.9833 267.781 82.3904 275.951 82.9642 284.839C83.3413 290.666 86.3795 296.598 95.6063 299.959C118.071 308.136 166.784 274.934 166.784 274.934L172.451 252.972C146.83 252.456 119.533 256.319 96.3877 264.729L96.3904 264.726Z" fill="#9E6C5A"/>
<path d="M58.8765 225.243L81.6743 235.718L71.3956 270.836C71.3956 270.836 106.174 258.418 132.808 252.926L136.688 301.251L45.3492 322.169C26.4038 327.117 8.54589 311.085 11.6279 291.841C14.5486 273.601 22.9421 246.923 43.4147 227.743C47.5732 223.85 53.6934 222.861 58.8765 225.243Z" fill="white"/>
<path d="M38.3324 323.683C30.2176 323.683 22.4608 320.126 17.0428 313.642C16.8297 313.388 16.8652 313.005 17.1193 312.792C17.3734 312.579 17.7559 312.615 17.9663 312.869C24.6603 320.882 35.0947 324.227 45.1931 321.587L66.4171 316.727C66.7395 316.65 67.0646 316.855 67.1384 317.18C67.2122 317.505 67.01 317.828 66.6849 317.902L45.4799 322.757C43.0974 323.38 40.6985 323.683 38.3297 323.683H38.3324Z" fill="#363E44"/>
<path d="M71.3956 271.44C71.2453 271.44 71.095 271.382 70.983 271.276C70.8191 271.12 70.7535 270.885 70.8191 270.669L75.6633 254.12C75.7562 253.8 76.0896 253.617 76.412 253.71C76.7316 253.803 76.9147 254.139 76.8218 254.459L72.3081 269.882C76.0349 268.576 88.6661 264.218 103.204 259.932C103.529 259.839 103.86 260.022 103.953 260.339C104.046 260.658 103.866 260.992 103.546 261.087C86.3027 266.175 71.748 271.358 71.6032 271.41C71.5377 271.434 71.4693 271.445 71.401 271.445L71.3956 271.44Z" fill="#363E44"/>
<path d="M77.9067 249.191C77.8438 249.191 77.781 249.18 77.7181 249.161C77.4012 249.057 77.2291 248.716 77.3329 248.402C81.9313 234.448 64.8329 228.068 64.1034 227.803C63.7919 227.689 63.628 227.344 63.7427 227.033C63.8575 226.719 64.2017 226.557 64.5132 226.672C64.7045 226.741 83.4422 233.713 78.4777 248.782C78.393 249.036 78.158 249.197 77.9067 249.197V249.191Z" fill="#363E44"/>
<path d="M2.43118 468.514H152.844V361.855H2.43118V468.514Z" fill="#E6D0BE"/>
<path d="M148.126 454.653V366.574H7.15327V454.653H148.126Z" fill="white"/>
<path d="M61.8055 470.773H66.2591C66.2591 474.114 68.9667 476.822 72.3082 476.822H82.9722C86.3137 476.822 89.0214 474.114 89.0214 470.773H93.4749L97.9285 494.437V496.415H57.3574V494.437L61.811 470.773H61.8055Z" fill="#E6D0BE"/>
<path d="M97.9231 499.494H57.3521C57.0187 499.494 56.751 499.224 56.751 498.893C56.751 498.562 57.0215 498.292 57.3521 498.292H97.9231C98.2564 498.292 98.5242 498.562 98.5242 498.893C98.5242 499.224 98.2537 499.494 97.9231 499.494Z" fill="white"/>
<path d="M103.758 411.497H12.3398V448.205H103.758V411.497Z" fill="#F2E6DC"/>
<path d="M142.938 411.497H109.05V448.205H142.938V411.497Z" fill="#F2E6DC"/>
<path d="M142.938 407.863H12.3394C12.006 407.863 11.7383 407.593 11.7383 407.262V373.024C11.7383 372.691 12.0088 372.423 12.3394 372.423H142.938C143.271 372.423 143.539 372.694 143.539 373.024V407.262C143.539 407.595 143.268 407.863 142.938 407.863ZM12.9405 406.658H142.334V373.626H12.9405V406.658Z" fill="url(#paint6_linear_1507_32509)"/>
<path d="M136.282 380.502H107.124C106.79 380.502 106.522 380.232 106.522 379.901C106.522 379.571 106.793 379.3 107.124 379.3H136.282C136.615 379.3 136.883 379.571 136.883 379.901C136.883 380.232 136.613 380.502 136.282 380.502Z" fill="url(#paint7_linear_1507_32509)"/>
<path d="M136.282 385.15H102.206C101.872 385.15 101.604 384.879 101.604 384.549C101.604 384.218 101.875 383.948 102.206 383.948H136.282C136.615 383.948 136.883 384.218 136.883 384.549C136.883 384.879 136.613 385.15 136.282 385.15Z" fill="url(#paint8_linear_1507_32509)"/>
<path d="M136.282 389.795H102.206C101.872 389.795 101.604 389.524 101.604 389.194C101.604 388.863 101.875 388.593 102.206 388.593H136.282C136.615 388.593 136.883 388.863 136.883 389.194C136.883 389.524 136.613 389.795 136.282 389.795Z" fill="url(#paint9_linear_1507_32509)"/>
<path d="M129.827 430.495C130.17 428.381 128.735 426.389 126.621 426.046C124.508 425.703 122.516 427.139 122.173 429.252C121.83 431.366 123.265 433.357 125.379 433.7C127.492 434.043 129.484 432.608 129.827 430.495Z" fill="white"/>
<path d="M109.082 118.771C99.2272 105.025 95.3173 88.2651 98.0687 71.5766C100.82 54.888 109.908 40.2706 123.653 30.4154C137.399 20.5602 154.162 16.6503 170.847 19.4017C187.536 22.1531 202.153 31.2405 212.009 44.9864C221.864 58.7323 225.774 75.4946 223.022 92.1804C220.271 108.869 211.183 123.486 197.438 133.342C183.692 143.197 166.932 147.107 150.244 144.355C133.555 141.604 118.938 132.516 109.082 118.771ZM117.795 74.8279C113.908 98.399 129.924 120.738 153.495 124.626C177.066 128.514 199.405 112.497 203.293 88.9263C207.181 65.3552 191.164 43.0165 167.593 39.1285C144.022 35.2405 121.683 51.2569 117.795 74.8279Z" fill="#F2E6DC"/>
<path d="M111.113 117.314C101.648 104.112 97.8913 88.0112 100.533 71.9811C103.175 55.9511 111.905 41.9101 125.107 32.4456C138.309 22.9811 154.41 19.2243 170.44 21.8664C186.47 24.5084 200.511 33.2379 209.976 46.4401C219.44 59.6423 223.197 75.7434 220.555 91.7735C217.913 107.804 209.184 121.845 195.981 131.309C182.779 140.773 166.678 144.53 150.648 141.888C134.618 139.246 120.577 130.517 111.113 117.314ZM115.328 74.421C111.216 99.3527 128.156 122.981 153.088 127.09C178.02 131.202 201.645 114.263 205.757 89.3308C209.869 64.3991 192.93 40.7707 167.998 36.6614C143.066 32.5494 119.438 49.4893 115.328 74.421Z" fill="white"/>
<path d="M156.198 36.2567C137.162 38.0736 120.774 51.7704 116.061 70.8687L101.233 68.4234C104.512 53.8797 112.892 41.2048 125.11 32.4452C134.321 25.8414 144.941 22.0217 155.963 21.2075L156.201 36.254L156.198 36.2567Z" fill="#FB6A61"/>
<path d="M114.88 78.0188C112.872 101.587 129.359 123.177 153.088 127.09C165.544 129.144 177.678 125.942 187.211 119.114L196.913 130.62C196.604 130.852 196.293 131.082 195.979 131.308C182.777 140.773 166.676 144.53 150.645 141.888C134.615 139.246 120.574 130.516 111.11 117.314C102.353 105.098 98.4843 90.4013 100.05 75.5762L114.878 78.0215L114.88 78.0188Z" fill="#E6D0BE"/>
<path d="M190.274 47.019C184.134 41.7649 176.536 38.0682 168 36.6611C166.476 36.4097 164.957 36.2376 163.446 36.142L163.208 21.1064C165.615 21.2157 168.028 21.4671 170.44 21.8633C181.946 23.7594 192.427 28.7922 200.927 36.3633L190.274 47.0163V47.019Z" fill="#D3BBA3"/>
<path d="M209.973 46.4398C219.438 59.642 223.195 75.7431 220.553 91.7731C218.369 105.011 212.036 116.888 202.46 125.956L192.752 114.445C199.405 107.882 204.124 99.2404 205.757 89.3332C208.039 75.5026 203.837 62.0737 195.391 52.1529L206.039 41.5054C207.424 43.0737 208.738 44.7185 209.976 46.4398H209.973Z" fill="#EFBC73"/>
<path d="M194.418 79.8915C194.447 61.132 179.261 45.9005 160.498 45.871C141.736 45.8415 126.502 61.0252 126.472 79.7848C126.443 98.5443 141.629 113.776 160.392 113.805C179.154 113.835 194.388 98.6511 194.418 79.8915Z" fill="white"/>
<path d="M157.864 116.169C147.844 116.169 138.017 111.891 131.238 104.068C125.101 96.9837 122.09 87.9317 122.76 78.582C123.432 69.2323 127.702 60.705 134.79 54.5683C149.415 41.899 171.626 43.4919 184.298 58.1175C186.825 61.0356 188.839 64.3088 190.282 67.8498C190.407 68.1585 190.26 68.5082 189.951 68.6339C189.645 68.7596 189.292 68.6121 189.167 68.3033C187.773 64.8826 185.828 61.7214 183.388 58.9044C171.153 44.7787 149.708 43.2432 135.579 55.4755C128.738 61.4017 124.612 69.6367 123.965 78.6667C123.317 87.694 126.224 96.4345 132.15 103.276C141.361 113.907 156.407 117.76 169.588 112.861C169.902 112.746 170.246 112.904 170.364 113.216C170.478 113.527 170.32 113.874 170.008 113.992C166.058 115.459 161.945 116.169 157.866 116.169H157.864Z" fill="#84524D"/>
<path d="M139.241 80.9893L149.012 84.9729V90.5221L134.252 83.2871V78.6095L149.012 71.3745V76.9237L139.241 80.9865V80.9893Z" fill="#FB6A61"/>
<path d="M154.651 95.7187H150.965L160.153 64.3799H163.839L154.651 95.7187Z" fill="#FB6A61"/>
<path d="M176.317 80.932L166.358 76.9074V71.3965L181.287 78.6315V83.2899L166.358 90.544V85.014L176.317 80.932Z" fill="#FB6A61"/>
<path d="M447.827 456.399C447.791 456.399 447.758 456.396 447.723 456.391C447.395 456.334 447.176 456.022 447.234 455.694C452.633 424.918 455.51 418.503 463.198 401.353L464.491 398.465C464.627 398.161 464.98 398.025 465.286 398.161C465.589 398.298 465.726 398.653 465.589 398.957L464.297 401.844C456.652 418.894 453.791 425.273 448.42 455.902C448.368 456.194 448.114 456.399 447.827 456.399Z" fill="#363E44"/>
<path d="M435.477 471.992C435.154 471.992 434.887 471.738 434.876 471.413C433.195 426.199 421.575 407.732 409.272 388.18L408.706 387.281C408.529 387 408.613 386.628 408.895 386.451C409.176 386.273 409.548 386.358 409.725 386.639L410.291 387.538C422.682 407.23 434.387 425.831 436.081 471.369C436.094 471.702 435.835 471.981 435.501 471.995C435.493 471.995 435.485 471.995 435.479 471.995L435.477 471.992Z" fill="#363E44"/>
<path d="M453.836 498.393H418.833L414.83 452.511H457.836L453.836 498.393Z" fill="#FB6A61"/>
<path d="M386.351 340.134L387.075 343.306C385.594 343.943 384.182 344.694 382.846 345.541L380.632 343.158L372.559 350.653L374.777 353.041C373.826 354.322 372.977 355.675 372.236 357.087L369.121 356.128L365.878 366.656L368.988 367.615C368.805 369.186 368.742 370.781 368.813 372.393L365.641 373.118L368.094 383.858L371.266 383.134C371.903 384.615 372.654 386.027 373.501 387.363L371.116 389.577L378.611 397.65L380.999 395.432C382.28 396.383 383.632 397.232 385.045 397.973L384.086 401.087L394.613 404.331L395.572 401.221C397.143 401.404 398.739 401.467 400.351 401.396L401.075 404.568L411.815 402.115L411.091 398.943C412.572 398.306 413.985 397.555 415.321 396.708L417.534 399.093L425.608 391.598L423.389 389.21C424.34 387.929 425.19 386.577 425.93 385.164L429.045 386.123L432.288 375.596L429.179 374.637C429.362 373.066 429.425 371.47 429.354 369.858L432.526 369.134L430.072 358.393L426.9 359.118C426.264 357.637 425.512 356.224 424.665 354.888L427.05 352.675L419.556 344.601L417.168 346.82C415.887 345.869 414.534 345.019 413.122 344.279L414.081 341.164L403.553 337.921L402.594 341.03C401.023 340.847 399.428 340.784 397.815 340.855L397.091 337.683L386.351 340.137V340.134ZM417.1 374.224C416.441 379.016 413.734 383.328 409.703 386.006C396.007 395.098 378.829 384.311 381.07 368.025C381.728 363.232 384.436 358.921 388.466 356.243C402.162 347.148 419.34 357.934 417.1 374.224Z" fill="url(#paint10_linear_1507_32509)"/>
<path d="M399.038 395.833C394.445 395.833 389.934 394.544 385.95 392.044C380.363 388.535 376.475 383.06 375.005 376.628C372.497 365.658 377.715 354.38 387.691 349.202C387.986 349.049 388.349 349.164 388.502 349.459C388.655 349.754 388.54 350.117 388.245 350.27C378.756 355.194 373.794 365.923 376.18 376.358C377.579 382.475 381.275 387.683 386.59 391.022C391.904 394.358 398.202 395.426 404.319 394.027C404.641 393.953 404.967 394.156 405.04 394.481C405.114 394.806 404.912 395.128 404.587 395.202C402.743 395.623 400.882 395.83 399.035 395.83L399.038 395.833Z" fill="#776E42"/>
<path d="M460.845 365.708L461.313 367.757C460.356 368.17 459.444 368.653 458.583 369.2L457.154 367.661L451.941 372.5L453.373 374.044C452.758 374.872 452.209 375.743 451.733 376.656L449.722 376.036L447.63 382.833L449.638 383.451C449.52 384.465 449.479 385.495 449.526 386.536L447.477 387.003L449.061 393.937L451.11 393.47C451.523 394.426 452.007 395.339 452.553 396.2L451.015 397.629L455.854 402.842L457.397 401.41C458.225 402.025 459.097 402.574 460.009 403.049L459.389 405.06L466.187 407.153L466.804 405.145C467.818 405.262 468.848 405.303 469.889 405.257L470.356 407.306L477.291 405.721L476.824 403.672C477.78 403.26 478.692 402.776 479.553 402.23L480.982 403.768L486.195 398.929L484.763 397.385C485.378 396.558 485.927 395.686 486.403 394.773L488.414 395.394L490.509 388.596L488.501 387.978C488.619 386.965 488.66 385.935 488.613 384.894L490.662 384.426L489.078 377.492L487.028 377.959C486.616 377.003 486.132 376.09 485.586 375.23L487.124 373.801L482.285 368.588L480.742 370.019C479.914 369.404 479.042 368.855 478.13 368.38L478.75 366.369L471.952 364.276L471.335 366.284C470.321 366.167 469.291 366.126 468.25 366.172L467.783 364.123L460.848 365.708H460.845ZM480.695 387.716C480.269 390.812 478.523 393.593 475.919 395.32C467.078 401.191 455.987 394.227 457.433 383.713C457.859 380.618 459.605 377.836 462.209 376.109C471.05 370.238 482.141 377.202 480.695 387.716Z" fill="url(#paint11_linear_1507_32509)"/>
<path d="M469.035 401.88C466.03 401.88 463.079 401.035 460.472 399.399C456.817 397.104 454.273 393.522 453.314 389.314C451.675 382.137 455.087 374.759 461.612 371.371C461.907 371.218 462.27 371.333 462.423 371.628C462.576 371.923 462.461 372.287 462.166 372.44C456.128 375.574 452.97 382.402 454.486 389.044C455.377 392.937 457.729 396.251 461.112 398.377C464.494 400.5 468.5 401.18 472.396 400.29C472.718 400.216 473.043 400.418 473.117 400.743C473.191 401.068 472.989 401.391 472.664 401.464C471.456 401.74 470.24 401.877 469.032 401.877L469.035 401.88Z" fill="#776E42"/>
<defs>
<linearGradient id="paint0_linear_1507_32509" x1="274.377" y1="171.716" x2="497.497" y2="171.716" gradientUnits="userSpaceOnUse">
<stop stop-color="#0D1019"/>
<stop offset="1" stop-color="#333F55"/>
</linearGradient>
<linearGradient id="paint1_linear_1507_32509" x1="274.314" y1="152.573" x2="385.906" y2="152.573" gradientUnits="userSpaceOnUse">
<stop stop-color="#0D1019"/>
<stop offset="1" stop-color="#333F55"/>
</linearGradient>
<linearGradient id="paint2_linear_1507_32509" x1="280.578" y1="164.233" x2="440.084" y2="164.233" gradientUnits="userSpaceOnUse">
<stop stop-color="#0D1019"/>
<stop offset="1" stop-color="#333F55"/>
</linearGradient>
<linearGradient id="paint3_linear_1507_32509" x1="201.262" y1="374.96" x2="252.594" y2="374.96" gradientUnits="userSpaceOnUse">
<stop stop-color="#0D1019"/>
<stop offset="1" stop-color="#333F55"/>
</linearGradient>
<linearGradient id="paint4_linear_1507_32509" x1="130.571" y1="388.235" x2="259.64" y2="388.235" gradientUnits="userSpaceOnUse">
<stop stop-color="#0D1019"/>
<stop offset="1" stop-color="#333F55"/>
</linearGradient>
<linearGradient id="paint5_linear_1507_32509" x1="16.3643" y1="329.772" x2="250.413" y2="329.772" gradientUnits="userSpaceOnUse">
<stop stop-color="#0D1019"/>
<stop offset="1" stop-color="#333F55"/>
</linearGradient>
<linearGradient id="paint6_linear_1507_32509" x1="11.7383" y1="390.143" x2="143.539" y2="390.143" gradientUnits="userSpaceOnUse">
<stop stop-color="#0D1019"/>
<stop offset="1" stop-color="#333F55"/>
</linearGradient>
<linearGradient id="paint7_linear_1507_32509" x1="106.522" y1="379.901" x2="136.883" y2="379.901" gradientUnits="userSpaceOnUse">
<stop stop-color="#0D1019"/>
<stop offset="1" stop-color="#333F55"/>
</linearGradient>
<linearGradient id="paint8_linear_1507_32509" x1="101.604" y1="384.549" x2="136.883" y2="384.549" gradientUnits="userSpaceOnUse">
<stop stop-color="#0D1019"/>
<stop offset="1" stop-color="#333F55"/>
</linearGradient>
<linearGradient id="paint9_linear_1507_32509" x1="101.604" y1="389.194" x2="136.883" y2="389.194" gradientUnits="userSpaceOnUse">
<stop stop-color="#0D1019"/>
<stop offset="1" stop-color="#333F55"/>
</linearGradient>
<linearGradient id="paint10_linear_1507_32509" x1="365.641" y1="371.126" x2="432.526" y2="371.126" gradientUnits="userSpaceOnUse">
<stop stop-color="#0D1019"/>
<stop offset="1" stop-color="#333F55"/>
</linearGradient>
<linearGradient id="paint11_linear_1507_32509" x1="447.477" y1="385.715" x2="490.662" y2="385.715" gradientUnits="userSpaceOnUse">
<stop stop-color="#0D1019"/>
<stop offset="1" stop-color="#333F55"/>
</linearGradient>
</defs>
</svg>
