<svg width="200" height="42" viewBox="0 0 200 42" fill="none" xmlns="http://www.w3.org/2000/svg">
<g clip-path="url(#clip0_1482_32887)">
<path d="M61.3262 11.4492H63.3281V13.9396H61.3262V11.4492ZM61.3262 15.6812H63.3281V26.1302H61.3262V15.6812Z" fill="#4D4D4D"/>
<path d="M74.7646 15.6822L70.8261 20.8854L74.826 26.1272H72.4768L68.6934 21.1228V26.1272H66.7002V11.4502H68.7002V20.6204L72.4602 15.6822H74.7646Z" fill="#4D4D4D"/>
<path d="M77.1113 11.4492H79.1133V13.9396H77.1113V11.4492ZM77.1113 15.6812H79.1133V26.1302H77.1113V15.6812Z" fill="#4D4D4D"/>
<path d="M84.4844 26.1303H82.4834V15.6813H84.4405V16.431C85.6544 15.8518 86.9695 15.522 88.3098 15.4608C88.6188 15.4398 88.9288 15.4857 89.219 15.5953C89.5093 15.7049 89.7733 15.8759 89.9935 16.0967C90.2136 16.3176 90.385 16.5834 90.4962 16.8765C90.6075 17.1696 90.6559 17.4833 90.6385 17.7968V26.1303H88.6366V18.3714C88.6529 18.2439 88.6397 18.1143 88.5981 17.9929C88.5565 17.8714 88.4876 17.7615 88.3968 17.6717C88.3061 17.5819 88.196 17.5147 88.0752 17.4755C87.9544 17.4363 87.8263 17.4261 87.701 17.4457C86.9043 17.5022 86.1241 17.7032 85.3975 18.0391C84.7875 18.2745 84.4824 18.5907 84.4824 18.9876L84.4844 26.1303Z" fill="#4D4D4D"/>
<path d="M99.5756 23.353V22.45H101.577V23.7931C101.582 24.1 101.526 24.4048 101.412 24.689C101.297 24.9733 101.128 25.2311 100.912 25.4468C100.7 25.67 100.444 25.846 100.162 25.9637C99.8788 26.0813 99.5749 26.138 99.2693 26.1302H95.8546C95.5527 26.1363 95.2528 26.0787 94.974 25.961C94.6952 25.8434 94.4436 25.6683 94.2351 25.4468C94.0194 25.2313 93.8493 24.9736 93.7351 24.6893C93.6208 24.405 93.5649 24.1001 93.5707 23.7931V18.0183C93.5649 17.7114 93.6208 17.4065 93.7351 17.1222C93.8493 16.8379 94.0194 16.5801 94.2351 16.3646C94.4436 16.1431 94.6952 15.9678 94.974 15.85C95.2527 15.7322 95.5526 15.6744 95.8546 15.6802H99.2693C99.5749 15.6726 99.8789 15.7296 100.162 15.8474C100.445 15.9652 100.7 16.1414 100.912 16.3646C101.128 16.5804 101.297 16.8381 101.412 17.1224C101.526 17.4066 101.582 17.7114 101.577 18.0183V19.2545H99.5756V18.4633C99.5782 18.3398 99.5555 18.2172 99.5088 18.1031C99.4621 17.989 99.3925 17.886 99.3044 17.8007C99.2168 17.7144 99.1133 17.6466 98.9998 17.6011C98.8863 17.5556 98.765 17.5334 98.6429 17.5356H96.4878C96.367 17.5329 96.2469 17.5551 96.1348 17.6008C96.0226 17.6465 95.9208 17.7147 95.8354 17.8014C95.7501 17.8882 95.6829 17.9915 95.6381 18.1053C95.5933 18.2191 95.5717 18.3409 95.5746 18.4633V23.357C95.5716 23.4794 95.5931 23.6011 95.6379 23.7148C95.6827 23.8284 95.7498 23.9317 95.8353 24.0182C95.9207 24.1047 96.0226 24.1727 96.1348 24.218C96.247 24.2633 96.3671 24.285 96.4878 24.2817H98.6429C98.7649 24.2843 98.8861 24.2624 98.9996 24.2173C99.1132 24.1721 99.2168 24.1046 99.3044 24.0186C99.3924 23.9334 99.4619 23.8306 99.5086 23.7167C99.5553 23.6028 99.5781 23.4803 99.5756 23.357" fill="#4D4D4D"/>
<path d="M104.511 11.4492H106.513V13.9396H104.511V11.4492ZM104.511 15.6812H106.513V26.1302H104.511V15.6812Z" fill="#4D4D4D"/>
<path d="M118.189 15.6823L114.969 26.1312L113.687 30.3197H110.663L111.683 26.5505L108.357 15.6823H111.357L113.271 22.7369L115.185 15.6823H118.189Z" fill="#4D4D4D"/>
<path d="M125.083 22.822H127.973V23.8347C127.973 24.4428 127.736 25.026 127.312 25.4564C126.888 25.8869 126.313 26.1292 125.714 26.1302H121.714C121.416 26.1301 121.122 26.0706 120.848 25.9552C120.573 25.8397 120.324 25.6706 120.114 25.4574C119.904 25.2443 119.737 24.9912 119.624 24.7128C119.51 24.4344 119.452 24.136 119.452 23.8347V17.9738C119.452 17.6727 119.51 17.3745 119.624 17.0962C119.738 16.8179 119.904 16.5651 120.114 16.3521C120.324 16.1391 120.574 15.9702 120.848 15.8549C121.122 15.7396 121.417 15.6803 121.714 15.6803H125.695C126.294 15.6813 126.869 15.9235 127.292 16.3535C127.715 16.7836 127.953 17.3663 127.953 17.9738V21.8082H122.451V23.2868C122.447 23.3168 122.451 23.3471 122.46 23.3757C122.47 23.4042 122.486 23.4301 122.507 23.4514C122.528 23.4726 122.554 23.4888 122.582 23.4985C122.61 23.5082 122.64 23.5112 122.67 23.5074H124.864C124.894 23.5116 124.924 23.5088 124.952 23.4992C124.981 23.4896 125.006 23.4736 125.028 23.4523C125.049 23.4309 125.065 23.4049 125.075 23.3762C125.085 23.3475 125.088 23.3169 125.084 23.2868L125.083 22.822ZM122.449 18.5475V19.6275H125.126V18.5475C125.13 18.5174 125.127 18.4869 125.117 18.4583C125.108 18.4296 125.092 18.4036 125.071 18.3822C125.05 18.3608 125.024 18.3446 124.996 18.3349C124.967 18.3251 124.937 18.322 124.908 18.3259H122.664C122.634 18.322 122.604 18.3251 122.576 18.3349C122.548 18.3446 122.522 18.3608 122.501 18.3822C122.48 18.4036 122.464 18.4296 122.454 18.4583C122.444 18.4869 122.441 18.5174 122.445 18.5475" fill="#4D4D4D"/>
<path d="M133.542 26.1302H130.542V15.6813H133.432V16.4537C133.983 16.2321 134.636 16.0113 135.391 15.791C135.939 15.6077 136.509 15.4967 137.085 15.4607C137.39 15.443 137.696 15.4895 137.982 15.5975C138.269 15.7054 138.53 15.8723 138.75 16.0877C139.159 16.541 139.374 17.1404 139.348 17.7542V26.1312H136.346V18.768C136.349 18.7384 136.346 18.7084 136.336 18.6803C136.327 18.6521 136.311 18.6265 136.29 18.6054C136.27 18.5843 136.244 18.5682 136.217 18.5584C136.189 18.5485 136.159 18.5451 136.13 18.5484C135.318 18.71 134.524 18.9539 133.761 19.2763C133.696 19.2888 133.638 19.3247 133.598 19.3774C133.558 19.43 133.538 19.4958 133.543 19.5622L133.542 26.1302Z" fill="#4D4D4D"/>
<path d="M142.065 11.4492H145.067V13.9396H142.065V11.4492ZM142.065 15.6812H145.067V26.1302H142.065V15.6812Z" fill="#4D4D4D"/>
<path d="M150.351 23.4193H148.112V26.1302H150.351V23.4193Z" fill="#4D4D4D"/>
<path d="M159.398 23.353V22.45H161.397V23.7931C161.402 24.0997 161.346 24.4043 161.233 24.6884C161.119 24.9726 160.95 25.2306 160.735 25.4468C160.523 25.6694 160.267 25.845 159.984 25.9626C159.701 26.0802 159.397 26.1372 159.091 26.1302H155.677C155.375 26.1355 155.075 26.0775 154.797 25.9599C154.518 25.8423 154.266 25.6676 154.057 25.4468C153.843 25.2306 153.674 24.9726 153.56 24.6884C153.446 24.4043 153.39 24.0997 153.396 23.7931V18.0183C153.39 17.7117 153.446 17.4071 153.56 17.123C153.674 16.8388 153.843 16.5808 154.057 16.3646C154.266 16.1437 154.518 15.9689 154.797 15.8511C155.075 15.7333 155.375 15.6752 155.677 15.6802H159.091C159.397 15.6734 159.701 15.7307 159.984 15.8484C160.267 15.9662 160.523 16.1419 160.735 16.3646C160.95 16.5808 161.119 16.8388 161.233 17.123C161.346 17.4071 161.402 17.7117 161.397 18.0183V19.2545H159.398V18.4633C159.401 18.3396 159.378 18.2168 159.331 18.1026C159.284 17.9885 159.213 17.8856 159.125 17.8007C159.037 17.7144 158.932 17.6466 158.818 17.6012C158.704 17.5557 158.583 17.5334 158.46 17.5356H156.306C156.185 17.5328 156.065 17.5548 155.953 17.6005C155.841 17.6462 155.739 17.7144 155.654 17.8012C155.569 17.888 155.502 17.9914 155.457 18.1053C155.413 18.2191 155.392 18.3409 155.395 18.4633V23.357C155.392 23.4793 155.413 23.6009 155.457 23.7146C155.502 23.8283 155.569 23.9315 155.654 24.0181C155.74 24.1046 155.841 24.1726 155.953 24.218C156.065 24.2633 156.186 24.285 156.306 24.2817H158.46C158.583 24.2843 158.704 24.2624 158.818 24.2172C158.932 24.1721 159.036 24.1046 159.125 24.0186C159.213 23.9336 159.283 23.8308 159.33 23.7169C159.377 23.603 159.4 23.4804 159.398 23.357" fill="#4D4D4D"/>
<path d="M166.289 26.1302C165.987 26.1358 165.687 26.0779 165.407 25.9603C165.128 25.8427 164.876 25.6679 164.667 25.4468C164.452 25.2308 164.282 24.9729 164.168 24.6887C164.054 24.4045 163.998 24.0999 164.003 23.7932V18.0183C163.998 17.7116 164.054 17.4069 164.168 17.1228C164.282 16.8386 164.452 16.5807 164.667 16.3647C164.876 16.1435 165.128 15.9686 165.407 15.8508C165.687 15.733 165.987 15.675 166.289 15.6803H170.073C170.377 15.676 170.68 15.7344 170.962 15.852C171.244 15.9697 171.5 16.144 171.714 16.3647C171.934 16.5774 172.108 16.8343 172.226 17.1189C172.344 17.4035 172.402 17.7098 172.396 18.0183V23.7932C172.402 24.1017 172.344 24.408 172.226 24.6926C172.109 24.9772 171.934 25.2341 171.714 25.4468C171.5 25.6674 171.244 25.8417 170.962 25.9592C170.68 26.0766 170.377 26.1348 170.073 26.1302H166.289ZM170.401 23.3531V18.4634C170.404 18.3397 170.38 18.2168 170.333 18.1027C170.286 17.9887 170.216 17.8858 170.127 17.8007C169.95 17.6268 169.711 17.5315 169.465 17.5357H166.919C166.799 17.5332 166.679 17.5556 166.567 17.6014C166.455 17.6472 166.353 17.7155 166.268 17.8021C166.183 17.8888 166.116 17.9921 166.071 18.1057C166.026 18.2194 166.004 18.341 166.007 18.4634V23.357C166.004 23.4792 166.026 23.6007 166.071 23.7142C166.116 23.8277 166.183 23.9308 166.268 24.0172C166.353 24.1037 166.455 24.1717 166.567 24.2171C166.679 24.2626 166.799 24.2846 166.919 24.2817H169.465C169.587 24.2842 169.708 24.2622 169.822 24.217C169.935 24.1719 170.039 24.1045 170.127 24.0187C170.216 23.9337 170.286 23.831 170.333 23.7171C170.38 23.6032 170.403 23.4805 170.401 23.357" fill="#4D4D4D"/>
<path d="M184.512 18.0401C183.902 18.2755 183.6 18.5851 183.6 18.9678V26.1313H181.598V18.3724C181.615 18.2449 181.601 18.1153 181.56 17.9938C181.518 17.8724 181.449 17.7625 181.358 17.6727C181.267 17.5829 181.157 17.5158 181.036 17.4766C180.915 17.4373 180.787 17.4271 180.662 17.4467C179.865 17.5029 179.084 17.7039 178.358 18.0401C177.752 18.2755 177.444 18.592 177.444 18.9886V26.1313H175.443V15.6813H177.395V16.431C178.61 15.8517 179.926 15.522 181.268 15.4608C181.663 15.4326 182.059 15.5142 182.412 15.6968C182.765 15.8794 183.062 16.1562 183.272 16.4973C183.97 16.177 184.699 15.9298 185.446 15.7595C186.093 15.5868 186.757 15.4873 187.425 15.4627C187.734 15.4418 188.044 15.4876 188.334 15.5973C188.624 15.7069 188.888 15.8779 189.108 16.0988C189.328 16.3197 189.499 16.5855 189.61 16.8786C189.721 17.1717 189.769 17.4854 189.752 17.7988V26.1323H187.752V18.3734C187.768 18.2461 187.755 18.1166 187.714 17.9952C187.672 17.8738 187.604 17.7639 187.513 17.6741C187.422 17.5843 187.312 17.5171 187.192 17.4778C187.071 17.4385 186.943 17.4282 186.818 17.4477C186.021 17.5073 185.24 17.7082 184.512 18.0411" fill="#4D4D4D"/>
<path d="M36.8624 21.0535C36.8622 22.3429 36.4849 23.6033 35.7782 24.6753C35.0714 25.7472 34.067 26.5827 32.8919 27.0761C31.7168 27.5694 30.4238 27.6984 29.1763 27.4468C27.9289 27.1952 26.783 26.5743 25.8837 25.6626C24.9843 24.7509 24.3718 23.5893 24.1236 22.3247C23.8754 21.0601 24.0027 19.7493 24.4894 18.5581C24.976 17.3668 25.8002 16.3486 26.8576 15.6321C27.9151 14.9157 29.1584 14.5332 30.4302 14.533C31.275 14.5328 32.1114 14.7014 32.8919 15.029C33.6723 15.3567 34.3815 15.837 34.9788 16.4425C35.5761 17.048 36.0499 17.7669 36.3731 18.5581C36.6963 19.3492 36.8626 20.1972 36.8624 21.0535Z" fill="#4D4D4D"/>
<path d="M44.4143 4.47176C44.3263 4.44752 44.2344 4.44124 44.1439 4.4533C44.0535 4.46535 43.9663 4.49549 43.8875 4.54198C43.7287 4.63566 43.6128 4.78914 43.5651 4.96901C43.5174 5.14887 43.5418 5.34055 43.6328 5.50232L45.2963 8.42288L44.5841 8.84123L41.9158 4.15725C41.8238 3.99567 41.6723 3.87776 41.4945 3.82944C41.3168 3.78112 41.1274 3.80636 40.968 3.89961C40.8086 3.99286 40.6923 4.14648 40.6446 4.32667C40.5969 4.50686 40.6218 4.69886 40.7138 4.86044L43.3831 9.54442L42.6699 9.96277L39.5987 4.57165C39.5067 4.41007 39.3552 4.29216 39.1774 4.24384C38.9997 4.19552 38.8103 4.22076 38.6509 4.31401C38.4915 4.40726 38.3752 4.56088 38.3275 4.74107C38.2799 4.92126 38.3048 5.11326 38.3968 5.27484L41.467 10.666L40.7528 11.0823L38.0855 6.39836C38.0412 6.31603 37.9811 6.24351 37.9088 6.18508C37.8364 6.12665 37.7532 6.08348 37.6642 6.05812C37.5751 6.03276 37.4819 6.02572 37.3901 6.03741C37.2983 6.0491 37.2098 6.07928 37.1297 6.12619C37.0495 6.1731 36.9795 6.23578 36.9236 6.31054C36.8678 6.3853 36.8272 6.47064 36.8044 6.56152C36.7816 6.65241 36.7769 6.74701 36.7906 6.83975C36.8044 6.93249 36.8363 7.02151 36.8846 7.10155L40.4631 13.3877C40.5941 13.2847 40.7316 13.1906 40.8748 13.1059C41.593 12.6855 42.4344 12.5354 43.2509 12.682C44.0675 12.8285 44.807 13.2623 45.3392 13.907L45.4104 13.993L44.7792 14.5281L44.707 14.443C44.2994 13.9488 43.7328 13.6162 43.1071 13.504C42.4813 13.3919 41.8366 13.5072 41.2865 13.8298C41.1488 13.9099 41.0183 14.0019 40.8963 14.1048C40.6072 14.3514 40.3722 14.6566 40.2065 15.0008L38.3763 12.7894C38.2554 12.6427 38.0874 12.544 37.9018 12.5105C37.7162 12.477 37.5249 12.511 37.3616 12.6064C37.3275 12.6264 37.2949 12.6489 37.2641 12.6737L37.1792 12.7459L36.6309 13.2127L40.5636 17.9659C40.8167 18.2727 41.1333 18.5195 41.4908 18.6887C41.8484 18.8578 42.2383 18.9454 42.6328 18.945H42.7304L42.745 19.0439C43.1493 21.5924 42.7743 24.2054 41.6705 26.5315C40.5666 28.8576 38.7868 30.7854 36.5702 32.0557C34.3537 33.3261 31.8066 33.8782 29.2714 33.6377C26.7362 33.3973 24.3343 32.3759 22.3887 30.7107C20.443 29.0456 19.0468 26.8166 18.3877 24.3233C17.7287 21.83 17.8383 19.1919 18.7019 16.7636C19.5655 14.3353 21.1416 12.2332 23.2185 10.7399C25.2954 9.24652 27.7735 8.43347 30.3197 8.41002V0.277344C27.1818 0.29571 24.0899 1.04435 21.2826 2.46555C18.4752 3.88675 16.0273 5.94254 14.1275 8.47441C12.2278 11.0063 10.927 13.9466 10.3254 17.0687C9.72384 20.1908 9.83757 23.4112 10.6578 26.4817C11.4781 29.5521 12.983 32.3907 15.0565 34.7783C17.1299 37.166 19.7166 39.0391 22.617 40.2531C25.5175 41.4672 28.6542 41.9898 31.7854 41.7806C34.9166 41.5714 37.9585 40.6361 40.6767 39.0468C45.3823 36.2915 48.8157 31.7545 50.2221 26.4335C51.6284 21.1125 50.8926 15.443 48.1763 10.6719L44.8348 4.79912C44.7898 4.7189 44.7294 4.64861 44.6572 4.59239C44.585 4.53617 44.5024 4.49516 44.4143 4.47176Z" fill="#4D4D4D"/>
</g>
<defs>
<clipPath id="clip0_1482_32887">
<rect width="200" height="42" rx="21" fill="white"/>
</clipPath>
</defs>
</svg>
