<svg width="335" height="367" viewBox="0 0 335 367" fill="none" xmlns="http://www.w3.org/2000/svg">
<path d="M166.5 129.248C166.5 129.663 166.837 130 167.252 130C167.668 130 168.004 129.663 168.004 129.248V90.7522C168.004 90.3368 167.668 90 167.252 90C166.837 90 166.5 90.3368 166.5 90.7522V129.248Z" fill="url(#paint0_linear_1543_33126)"/>
<path d="M243.383 116.419C244.803 116.419 246.147 116.464 247.366 116.505C248.091 116.53 248.771 116.553 249.397 116.564C251.125 116.594 252.481 116.536 253.536 116.234C254.548 115.945 255.256 115.439 255.74 114.547C256.248 113.61 256.548 112.18 256.548 109.97L256.548 85.5137C256.548 85.5061 256.542 85.5 256.534 85.5C256.527 85.5 256.521 85.4939 256.521 85.4863L256.521 41.75C256.521 41.3358 256.856 41 257.271 41C257.685 41 258.021 41.3358 258.021 41.75L258.021 85.4863C258.021 85.4939 258.027 85.5 258.034 85.5C258.042 85.5 258.048 85.5061 258.048 85.5137L258.048 109.97C258.048 112.275 257.742 114.002 257.059 115.262C256.351 116.566 255.281 117.295 253.948 117.677C252.658 118.046 251.102 118.094 249.371 118.064C248.694 118.052 247.994 118.028 247.262 118.003C246.07 117.962 244.79 117.919 243.383 117.919L198.49 117.918C194.208 117.918 191.834 118.349 190.511 119.176C189.305 119.93 188.865 121.095 188.803 123.137C188.729 125.605 188.753 126.736 188.778 127.921C188.786 128.337 188.795 128.76 188.8 129.25C188.804 129.664 188.468 130 188.054 130C187.64 130 187.304 129.664 187.3 129.25C187.295 128.796 187.287 128.393 187.279 127.991C187.254 126.784 187.229 125.593 187.304 123.092C187.371 120.866 187.873 119.057 189.715 117.905C191.441 116.826 194.22 116.418 198.49 116.418L243.383 116.419Z" fill="url(#paint1_linear_1543_33126)"/>
<path d="M122.05 116.418C122.05 116.418 122.049 116.419 122.049 116.419H90.6181C89.198 116.419 87.8541 116.464 86.6352 116.505C85.9105 116.53 85.23 116.553 84.604 116.564C82.8759 116.594 81.5201 116.536 80.4655 116.234C79.4531 115.945 78.7454 115.439 78.261 114.547C77.753 113.61 77.4531 112.18 77.4531 109.97L77.4531 85.5137C77.4531 85.5061 77.4593 85.5 77.4668 85.5C77.4744 85.5 77.4806 85.4939 77.4806 85.4863L77.4806 41.75C77.4806 41.3358 77.1448 41 76.7306 41C76.3163 41 75.9806 41.3358 75.9806 41.75L75.9806 85.4863C75.9806 85.4939 75.9744 85.5 75.9668 85.5C75.9593 85.5 75.9531 85.5061 75.9531 85.5137L75.9531 109.97C75.9531 112.275 76.2588 114.002 76.9426 115.262C77.65 116.566 78.7203 117.295 80.0529 117.677C81.3432 118.046 82.8992 118.094 84.6305 118.064C85.3075 118.052 86.007 118.028 86.739 118.003C87.9315 117.962 89.211 117.919 90.6181 117.919L122.056 117.918L135.51 117.918C139.792 117.918 142.167 118.349 143.49 119.176C144.696 119.93 145.136 121.095 145.197 123.137C145.271 125.605 145.248 126.736 145.223 127.921C145.214 128.337 145.205 128.76 145.201 129.25C145.197 129.664 145.533 130 145.947 130C146.361 130 146.697 129.664 146.701 129.25C146.706 128.796 146.714 128.393 146.722 127.991C146.747 126.784 146.772 125.593 146.697 123.092C146.63 120.866 146.128 119.057 144.285 117.905C142.56 116.826 139.78 116.418 135.51 116.418H122.05C122.05 116.417 122.05 116.418 122.05 116.418Z" fill="url(#paint2_linear_1543_33126)"/>
<rect x="181" width="154" height="36" rx="18" fill="#E8E8E8"/>
<g clip-path="url(#clip0_1543_33126)">
<path d="M204.11 12.0001C204.11 11.6465 204.251 11.3073 204.501 11.0573C204.751 10.8072 205.09 10.6667 205.444 10.6667C205.797 10.6667 206.137 10.8072 206.387 11.0573C206.637 11.3073 206.777 11.6465 206.777 12.0001C206.777 12.3537 206.637 12.6928 206.387 12.9429C206.137 13.1929 205.797 13.3334 205.444 13.3334C205.09 13.3334 204.751 13.1929 204.501 12.9429C204.251 12.6928 204.11 12.3537 204.11 12.0001ZM205.222 20.4445V24C205.222 24.4917 204.824 24.8889 204.333 24.8889C203.841 24.8889 203.444 24.4917 203.444 24V17.8028L202.649 19.125C202.397 19.5445 201.849 19.6806 201.43 19.4278C201.01 19.175 200.874 18.6278 201.127 18.2084L202.747 15.5139C203.23 14.7112 204.097 14.2195 205.033 14.2195H205.858C206.794 14.2195 207.66 14.7112 208.144 15.5139L209.391 17.5889C208.944 18.0778 208.597 18.6584 208.374 19.2972C208.322 19.2472 208.277 19.1889 208.238 19.1222L207.444 17.8028V24C207.444 24.4917 207.047 24.8889 206.555 24.8889C206.063 24.8889 205.666 24.4917 205.666 24V20.4445H205.222ZM212.999 16.8889C214.06 16.8889 215.078 17.3104 215.828 18.0605C216.578 18.8106 216.999 19.828 216.999 20.8889C216.999 21.9498 216.578 22.9672 215.828 23.7173C215.078 24.4675 214.06 24.8889 212.999 24.8889C211.938 24.8889 210.921 24.4675 210.171 23.7173C209.421 22.9672 208.999 21.9498 208.999 20.8889C208.999 19.828 209.421 18.8106 210.171 18.0605C210.921 17.3104 211.938 16.8889 212.999 16.8889ZM214.646 19.8695C214.819 19.6972 214.819 19.4139 214.646 19.2417C214.474 19.0695 214.191 19.0695 214.019 19.2417L212.999 20.2611L211.98 19.2417C211.808 19.0695 211.524 19.0695 211.352 19.2417C211.18 19.4139 211.18 19.6972 211.352 19.8695L212.371 20.8889L211.352 21.9083C211.18 22.0806 211.18 22.3639 211.352 22.5361C211.524 22.7083 211.808 22.7083 211.98 22.5361L212.999 21.5167L214.019 22.5361C214.191 22.7083 214.474 22.7083 214.646 22.5361C214.819 22.3639 214.819 22.0806 214.646 21.9083L213.627 20.8889L214.646 19.8695Z" fill="#0D1019"/>
</g>
<path d="M228.571 13.7727H229.892V19.5128C229.892 20.1236 229.749 20.6648 229.462 21.1364C229.175 21.6051 228.771 21.9744 228.251 22.2443C227.732 22.5114 227.122 22.6449 226.423 22.6449C225.727 22.6449 225.119 22.5114 224.599 22.2443C224.08 21.9744 223.676 21.6051 223.389 21.1364C223.102 20.6648 222.959 20.1236 222.959 19.5128V13.7727H224.276V19.4062C224.276 19.8011 224.362 20.152 224.536 20.4588C224.712 20.7656 224.96 21.0071 225.281 21.1832C225.602 21.3565 225.983 21.4432 226.423 21.4432C226.866 21.4432 227.249 21.3565 227.57 21.1832C227.893 21.0071 228.141 20.7656 228.311 20.4588C228.484 20.152 228.571 19.8011 228.571 19.4062V13.7727ZM236.609 17.5526L235.454 17.7571C235.406 17.6094 235.329 17.4687 235.224 17.3352C235.122 17.2017 234.983 17.0923 234.806 17.0071C234.63 16.9219 234.41 16.8793 234.146 16.8793C233.785 16.8793 233.484 16.9602 233.243 17.1222C233.001 17.2812 232.88 17.4872 232.88 17.7401C232.88 17.9588 232.961 18.1349 233.123 18.2685C233.285 18.402 233.547 18.5114 233.907 18.5966L234.947 18.8352C235.549 18.9744 235.998 19.1889 236.294 19.4787C236.589 19.7685 236.737 20.1449 236.737 20.608C236.737 21 236.623 21.3494 236.396 21.6562C236.172 21.9602 235.858 22.1989 235.454 22.3722C235.054 22.5455 234.589 22.6321 234.061 22.6321C233.328 22.6321 232.73 22.4759 232.267 22.1634C231.804 21.848 231.52 21.4006 231.414 20.821L232.646 20.6335C232.723 20.9545 232.88 21.1974 233.119 21.3622C233.358 21.5241 233.669 21.6051 234.052 21.6051C234.47 21.6051 234.804 21.5185 235.054 21.3452C235.304 21.169 235.429 20.9545 235.429 20.7017C235.429 20.4972 235.352 20.3253 235.199 20.1861C235.048 20.0469 234.816 19.9418 234.504 19.8707L233.396 19.6278C232.785 19.4886 232.333 19.267 232.041 18.9631C231.751 18.6591 231.606 18.2741 231.606 17.8082C231.606 17.4219 231.714 17.0838 231.93 16.794C232.146 16.5043 232.444 16.2784 232.825 16.1165C233.206 15.9517 233.642 15.8693 234.133 15.8693C234.841 15.8693 235.397 16.0227 235.804 16.3295C236.21 16.6335 236.478 17.0412 236.609 17.5526ZM240.959 22.6321C240.314 22.6321 239.759 22.4943 239.293 22.2188C238.83 21.9403 238.472 21.5497 238.219 21.0469C237.969 20.5412 237.844 19.9489 237.844 19.2699C237.844 18.5994 237.969 18.0085 238.219 17.4972C238.472 16.9858 238.824 16.5866 239.276 16.2997C239.73 16.0128 240.261 15.8693 240.869 15.8693C241.239 15.8693 241.597 15.9304 241.943 16.0526C242.29 16.1747 242.601 16.3665 242.876 16.6278C243.152 16.8892 243.369 17.2287 243.528 17.6463C243.688 18.0611 243.767 18.5653 243.767 19.1591V19.6108H238.564V18.6562H242.518C242.518 18.321 242.45 18.0241 242.314 17.7656C242.178 17.5043 241.986 17.2983 241.739 17.1477C241.494 16.9972 241.207 16.9219 240.878 16.9219C240.52 16.9219 240.207 17.0099 239.94 17.1861C239.676 17.3594 239.472 17.5866 239.327 17.8679C239.185 18.1463 239.114 18.4489 239.114 18.7756V19.5213C239.114 19.9588 239.19 20.331 239.344 20.6378C239.5 20.9446 239.717 21.179 239.996 21.3409C240.274 21.5 240.599 21.5795 240.972 21.5795C241.213 21.5795 241.433 21.5455 241.632 21.4773C241.831 21.4062 242.003 21.3011 242.148 21.1619C242.293 21.0227 242.403 20.8509 242.48 20.6463L243.686 20.8636C243.589 21.2187 243.416 21.5298 243.166 21.7969C242.919 22.0611 242.608 22.267 242.233 22.4148C241.861 22.5597 241.436 22.6321 240.959 22.6321ZM245.181 22.5V15.9545H246.412V16.9943H246.48C246.6 16.642 246.81 16.3651 247.111 16.1634C247.415 15.9588 247.759 15.8565 248.142 15.8565C248.222 15.8565 248.316 15.8594 248.424 15.8651C248.534 15.8707 248.621 15.8778 248.684 15.8864V17.1051C248.632 17.0909 248.542 17.0753 248.411 17.0582C248.28 17.0384 248.15 17.0284 248.019 17.0284C247.718 17.0284 247.449 17.0923 247.213 17.2202C246.98 17.3452 246.796 17.5199 246.659 17.7443C246.523 17.9659 246.455 18.2187 246.455 18.5028V22.5H245.181ZM253.064 22.5V13.7727H258.476V14.9062H254.381V17.5653H258.088V18.6946H254.381V22.5H253.064ZM259.911 22.5V15.9545H261.143V16.9943H261.211C261.33 16.642 261.54 16.3651 261.842 16.1634C262.146 15.9588 262.489 15.8565 262.873 15.8565C262.952 15.8565 263.046 15.8594 263.154 15.8651C263.265 15.8707 263.352 15.8778 263.414 15.8864V17.1051C263.363 17.0909 263.272 17.0753 263.141 17.0582C263.011 17.0384 262.88 17.0284 262.749 17.0284C262.448 17.0284 262.18 17.0923 261.944 17.2202C261.711 17.3452 261.526 17.5199 261.39 17.7443C261.254 17.9659 261.185 18.2187 261.185 18.5028V22.5H259.911ZM268.663 19.7855V15.9545H269.941V22.5H268.689V21.3665H268.62C268.47 21.7159 268.228 22.0071 267.896 22.2401C267.566 22.4702 267.156 22.5852 266.664 22.5852C266.244 22.5852 265.872 22.4929 265.548 22.3082C265.227 22.1207 264.974 21.8438 264.789 21.4773C264.608 21.1108 264.517 20.6577 264.517 20.1179V15.9545H265.791V19.9645C265.791 20.4105 265.914 20.7656 266.162 21.0298C266.409 21.294 266.73 21.4261 267.125 21.4261C267.363 21.4261 267.6 21.3665 267.836 21.2472C268.075 21.1278 268.272 20.9474 268.429 20.706C268.588 20.4645 268.666 20.1577 268.663 19.7855ZM276.558 17.5526L275.403 17.7571C275.355 17.6094 275.278 17.4687 275.173 17.3352C275.071 17.2017 274.932 17.0923 274.756 17.0071C274.58 16.9219 274.359 16.8793 274.095 16.8793C273.734 16.8793 273.433 16.9602 273.192 17.1222C272.95 17.2812 272.83 17.4872 272.83 17.7401C272.83 17.9588 272.911 18.1349 273.072 18.2685C273.234 18.402 273.496 18.5114 273.857 18.5966L274.896 18.8352C275.499 18.9744 275.947 19.1889 276.243 19.4787C276.538 19.7685 276.686 20.1449 276.686 20.608C276.686 21 276.572 21.3494 276.345 21.6562C276.121 21.9602 275.807 22.1989 275.403 22.3722C275.003 22.5455 274.538 22.6321 274.01 22.6321C273.277 22.6321 272.679 22.4759 272.216 22.1634C271.753 21.848 271.469 21.4006 271.364 20.821L272.595 20.6335C272.672 20.9545 272.83 21.1974 273.068 21.3622C273.307 21.5241 273.618 21.6051 274.001 21.6051C274.419 21.6051 274.753 21.5185 275.003 21.3452C275.253 21.169 275.378 20.9545 275.378 20.7017C275.378 20.4972 275.301 20.3253 275.148 20.1861C274.997 20.0469 274.766 19.9418 274.453 19.8707L273.345 19.6278C272.734 19.4886 272.283 19.267 271.99 18.9631C271.7 18.6591 271.555 18.2741 271.555 17.8082C271.555 17.4219 271.663 17.0838 271.879 16.794C272.095 16.5043 272.393 16.2784 272.774 16.1165C273.155 15.9517 273.591 15.8693 274.082 15.8693C274.79 15.8693 275.347 16.0227 275.753 16.3295C276.159 16.6335 276.428 17.0412 276.558 17.5526ZM281.142 15.9545V16.9773H277.567V15.9545H281.142ZM278.526 14.3864H279.8V20.5781C279.8 20.8253 279.837 21.0114 279.911 21.1364C279.985 21.2585 280.08 21.3423 280.196 21.3878C280.316 21.4304 280.445 21.4517 280.584 21.4517C280.686 21.4517 280.776 21.4446 280.853 21.4304C280.929 21.4162 280.989 21.4048 281.032 21.3963L281.262 22.4489C281.188 22.4773 281.083 22.5057 280.946 22.5341C280.81 22.5653 280.64 22.5824 280.435 22.5852C280.1 22.5909 279.787 22.5312 279.498 22.4062C279.208 22.2812 278.973 22.0881 278.794 21.8267C278.615 21.5653 278.526 21.2372 278.526 20.8423V14.3864ZM282.552 22.5V15.9545H283.783V16.9943H283.852C283.971 16.642 284.181 16.3651 284.482 16.1634C284.786 15.9588 285.13 15.8565 285.513 15.8565C285.593 15.8565 285.687 15.8594 285.795 15.8651C285.906 15.8707 285.992 15.8778 286.055 15.8864V17.1051C286.004 17.0909 285.913 17.0753 285.782 17.0582C285.651 17.0384 285.521 17.0284 285.39 17.0284C285.089 17.0284 284.82 17.0923 284.585 17.2202C284.352 17.3452 284.167 17.5199 284.031 17.7443C283.894 17.9659 283.826 18.2187 283.826 18.5028V22.5H282.552ZM289.004 22.6449C288.589 22.6449 288.214 22.5682 287.879 22.4148C287.543 22.2585 287.278 22.0327 287.082 21.7372C286.888 21.4418 286.792 21.0795 286.792 20.6506C286.792 20.2812 286.863 19.9773 287.005 19.7386C287.147 19.5 287.339 19.3111 287.58 19.1719C287.822 19.0327 288.092 18.9276 288.39 18.8565C288.688 18.7855 288.992 18.7315 289.302 18.6946C289.694 18.6491 290.012 18.6122 290.256 18.5838C290.501 18.5526 290.678 18.5028 290.789 18.4347C290.9 18.3665 290.955 18.2557 290.955 18.1023V18.0724C290.955 17.7003 290.85 17.4119 290.64 17.2074C290.433 17.0028 290.123 16.9006 289.711 16.9006C289.282 16.9006 288.944 16.9957 288.697 17.1861C288.452 17.3736 288.283 17.5824 288.19 17.8125L286.992 17.5398C287.134 17.142 287.342 16.821 287.614 16.5767C287.89 16.3295 288.207 16.1506 288.565 16.0398C288.923 15.9261 289.299 15.8693 289.694 15.8693C289.955 15.8693 290.232 15.9006 290.525 15.9631C290.82 16.0227 291.096 16.1335 291.352 16.2955C291.61 16.4574 291.822 16.6889 291.987 16.9901C292.151 17.2884 292.234 17.6761 292.234 18.1534V22.5H290.989V21.6051H290.938C290.856 21.7699 290.732 21.9318 290.567 22.0909C290.403 22.25 290.191 22.3821 289.933 22.4872C289.674 22.5923 289.364 22.6449 289.004 22.6449ZM289.281 21.6222C289.633 21.6222 289.934 21.5526 290.184 21.4134C290.437 21.2741 290.629 21.0923 290.759 20.8679C290.893 20.6406 290.96 20.3977 290.96 20.1392V19.2955C290.914 19.3409 290.826 19.3835 290.695 19.4233C290.567 19.4602 290.421 19.4929 290.256 19.5213C290.092 19.5469 289.931 19.571 289.775 19.5938C289.619 19.6136 289.488 19.6307 289.383 19.6449C289.136 19.6761 288.91 19.7287 288.705 19.8026C288.504 19.8764 288.342 19.983 288.219 20.1222C288.1 20.2585 288.04 20.4403 288.04 20.6676C288.04 20.983 288.157 21.2216 288.39 21.3835C288.623 21.5426 288.92 21.6222 289.281 21.6222ZM296.986 15.9545V16.9773H293.411V15.9545H296.986ZM294.37 14.3864H295.644V20.5781C295.644 20.8253 295.681 21.0114 295.755 21.1364C295.828 21.2585 295.924 21.3423 296.04 21.3878C296.159 21.4304 296.289 21.4517 296.428 21.4517C296.53 21.4517 296.62 21.4446 296.696 21.4304C296.773 21.4162 296.833 21.4048 296.875 21.3963L297.105 22.4489C297.032 22.4773 296.926 22.5057 296.79 22.5341C296.654 22.5653 296.483 22.5824 296.279 22.5852C295.944 22.5909 295.631 22.5312 295.341 22.4062C295.051 22.2812 294.817 22.0881 294.638 21.8267C294.459 21.5653 294.37 21.2372 294.37 20.8423V14.3864ZM298.396 22.5V15.9545H299.67V22.5H298.396ZM299.039 14.9446C298.817 14.9446 298.627 14.8707 298.468 14.723C298.312 14.5724 298.234 14.3935 298.234 14.1861C298.234 13.9759 298.312 13.7969 298.468 13.6491C298.627 13.4986 298.817 13.4233 299.039 13.4233C299.261 13.4233 299.45 13.4986 299.606 13.6491C299.765 13.7969 299.844 13.9759 299.844 14.1861C299.844 14.3935 299.765 14.5724 299.606 14.723C299.45 14.8707 299.261 14.9446 299.039 14.9446ZM304.141 22.6321C303.527 22.6321 302.992 22.4915 302.534 22.2102C302.077 21.929 301.722 21.5355 301.469 21.0298C301.216 20.5241 301.09 19.9332 301.09 19.2571C301.09 18.5781 301.216 17.9844 301.469 17.4759C301.722 16.9673 302.077 16.5724 302.534 16.2912C302.992 16.0099 303.527 15.8693 304.141 15.8693C304.755 15.8693 305.29 16.0099 305.748 16.2912C306.205 16.5724 306.56 16.9673 306.813 17.4759C307.066 17.9844 307.192 18.5781 307.192 19.2571C307.192 19.9332 307.066 20.5241 306.813 21.0298C306.56 21.5355 306.205 21.929 305.748 22.2102C305.29 22.4915 304.755 22.6321 304.141 22.6321ZM304.145 21.5625C304.543 21.5625 304.873 21.4574 305.134 21.2472C305.395 21.0369 305.588 20.7571 305.713 20.4077C305.841 20.0582 305.905 19.6733 305.905 19.2528C305.905 18.8352 305.841 18.4517 305.713 18.1023C305.588 17.75 305.395 17.4673 305.134 17.2543C304.873 17.0412 304.543 16.9347 304.145 16.9347C303.745 16.9347 303.412 17.0412 303.148 17.2543C302.887 17.4673 302.692 17.75 302.564 18.1023C302.439 18.4517 302.377 18.8352 302.377 19.2528C302.377 19.6733 302.439 20.0582 302.564 20.4077C302.692 20.7571 302.887 21.0369 303.148 21.2472C303.412 21.4574 303.745 21.5625 304.145 21.5625ZM309.888 18.6136V22.5H308.614V15.9545H309.837V17.0199H309.918C310.069 16.6733 310.305 16.3949 310.626 16.1847C310.95 15.9744 311.357 15.8693 311.849 15.8693C312.295 15.8693 312.685 15.9631 313.021 16.1506C313.356 16.3352 313.616 16.6108 313.8 16.9773C313.985 17.3437 314.077 17.7969 314.077 18.3366V22.5H312.803V18.4901C312.803 18.0156 312.68 17.6449 312.433 17.3778C312.185 17.108 311.846 16.973 311.414 16.973C311.119 16.973 310.856 17.0369 310.626 17.1648C310.398 17.2926 310.218 17.4801 310.085 17.7273C309.954 17.9716 309.888 18.267 309.888 18.6136Z" fill="#0D1019"/>
<rect x="181" y="331" width="154" height="36" rx="18" fill="#E8E8E8"/>
<path d="M205.512 341.572L203.772 343.316L207.684 347.228L209.425 345.487C210.109 344.803 210.109 343.697 209.425 343.012L207.987 341.572C207.303 340.887 206.197 340.887 205.512 341.572ZM203 343.956L202.712 344.044L198.209 345.394C197.587 345.581 197.094 346.056 196.887 346.675L194.119 354.931C194 355.284 194.087 355.678 194.347 355.944L199.147 351.147C199.053 350.95 199 350.731 199 350.5C199 349.672 199.672 349 200.5 349C201.328 349 202 349.672 202 350.5C202 351.328 201.328 352 200.5 352C200.269 352 200.05 351.947 199.853 351.853L195.053 356.653C195.322 356.913 195.712 357.003 196.065 356.881L204.325 354.113C204.94 353.906 205.419 353.413 205.606 352.791L206.956 348.287L207.044 348L203 343.956Z" fill="#0D1019"/>
<path d="M215.959 353.5V344.773H219.07C219.749 344.773 220.311 344.896 220.757 345.143C221.203 345.391 221.537 345.729 221.759 346.158C221.98 346.584 222.091 347.064 222.091 347.598C222.091 348.135 221.979 348.618 221.754 349.047C221.533 349.473 221.197 349.811 220.749 350.061C220.303 350.308 219.741 350.432 219.065 350.432H216.926V349.315H218.946C219.375 349.315 219.723 349.241 219.99 349.094C220.257 348.943 220.453 348.739 220.578 348.48C220.703 348.222 220.766 347.928 220.766 347.598C220.766 347.268 220.703 346.976 220.578 346.72C220.453 346.464 220.256 346.264 219.986 346.119C219.719 345.974 219.366 345.902 218.929 345.902H217.276V353.5H215.959ZM223.532 353.5V346.955H224.764V347.994H224.832C224.951 347.642 225.162 347.365 225.463 347.163C225.767 346.959 226.11 346.857 226.494 346.857C226.574 346.857 226.667 346.859 226.775 346.865C226.886 346.871 226.973 346.878 227.035 346.886V348.105C226.984 348.091 226.893 348.075 226.762 348.058C226.632 348.038 226.501 348.028 226.37 348.028C226.069 348.028 225.801 348.092 225.565 348.22C225.332 348.345 225.147 348.52 225.011 348.744C224.875 348.966 224.806 349.219 224.806 349.503V353.5H223.532ZM230.661 353.632C230.047 353.632 229.511 353.491 229.054 353.21C228.597 352.929 228.241 352.536 227.989 352.03C227.736 351.524 227.609 350.933 227.609 350.257C227.609 349.578 227.736 348.984 227.989 348.476C228.241 347.967 228.597 347.572 229.054 347.291C229.511 347.01 230.047 346.869 230.661 346.869C231.274 346.869 231.81 347.01 232.267 347.291C232.724 347.572 233.08 347.967 233.332 348.476C233.585 348.984 233.712 349.578 233.712 350.257C233.712 350.933 233.585 351.524 233.332 352.03C233.08 352.536 232.724 352.929 232.267 353.21C231.81 353.491 231.274 353.632 230.661 353.632ZM230.665 352.562C231.063 352.562 231.392 352.457 231.653 352.247C231.915 352.037 232.108 351.757 232.233 351.408C232.361 351.058 232.425 350.673 232.425 350.253C232.425 349.835 232.361 349.452 232.233 349.102C232.108 348.75 231.915 348.467 231.653 348.254C231.392 348.041 231.063 347.935 230.665 347.935C230.264 347.935 229.932 348.041 229.668 348.254C229.406 348.467 229.212 348.75 229.084 349.102C228.959 349.452 228.896 349.835 228.896 350.253C228.896 350.673 228.959 351.058 229.084 351.408C229.212 351.757 229.406 352.037 229.668 352.247C229.932 352.457 230.264 352.562 230.665 352.562ZM237.584 353.628C237.056 353.628 236.584 353.493 236.169 353.223C235.757 352.95 235.434 352.562 235.198 352.06C234.965 351.554 234.848 350.947 234.848 350.24C234.848 349.533 234.966 348.928 235.202 348.425C235.441 347.922 235.767 347.537 236.182 347.27C236.597 347.003 237.067 346.869 237.593 346.869C237.999 346.869 238.326 346.938 238.573 347.074C238.823 347.207 239.016 347.364 239.152 347.543C239.292 347.722 239.4 347.879 239.476 348.016H239.553V344.773H240.827V353.5H239.583V352.482H239.476C239.4 352.621 239.289 352.78 239.144 352.959C239.002 353.138 238.806 353.294 238.556 353.428C238.306 353.561 237.982 353.628 237.584 353.628ZM237.865 352.541C238.232 352.541 238.542 352.445 238.794 352.251C239.05 352.055 239.243 351.784 239.374 351.438C239.507 351.091 239.574 350.687 239.574 350.227C239.574 349.773 239.509 349.375 239.378 349.034C239.248 348.693 239.056 348.428 238.803 348.237C238.55 348.047 238.238 347.952 237.865 347.952C237.482 347.952 237.162 348.051 236.907 348.25C236.651 348.449 236.458 348.72 236.327 349.064C236.199 349.408 236.135 349.795 236.135 350.227C236.135 350.665 236.201 351.058 236.331 351.408C236.462 351.757 236.655 352.034 236.911 352.239C237.169 352.44 237.488 352.541 237.865 352.541ZM246.792 350.786V346.955H248.07V353.5H246.817V352.366H246.749C246.599 352.716 246.357 353.007 246.025 353.24C245.695 353.47 245.285 353.585 244.793 353.585C244.373 353.585 244.001 353.493 243.677 353.308C243.356 353.121 243.103 352.844 242.918 352.477C242.737 352.111 242.646 351.658 242.646 351.118V346.955H243.92V350.964C243.92 351.411 244.043 351.766 244.29 352.03C244.538 352.294 244.859 352.426 245.254 352.426C245.492 352.426 245.729 352.366 245.965 352.247C246.204 352.128 246.401 351.947 246.558 351.706C246.717 351.464 246.795 351.158 246.792 350.786ZM252.539 353.632C251.906 353.632 251.36 353.489 250.903 353.202C250.449 352.912 250.099 352.513 249.855 352.004C249.61 351.496 249.488 350.913 249.488 350.257C249.488 349.592 249.613 349.006 249.863 348.497C250.113 347.986 250.466 347.587 250.92 347.3C251.375 347.013 251.91 346.869 252.527 346.869C253.024 346.869 253.467 346.962 253.856 347.146C254.245 347.328 254.559 347.584 254.798 347.913C255.039 348.243 255.183 348.628 255.228 349.068H253.988C253.92 348.761 253.764 348.497 253.52 348.276C253.278 348.054 252.954 347.943 252.548 347.943C252.193 347.943 251.882 348.037 251.615 348.224C251.35 348.409 251.145 348.673 250.997 349.017C250.849 349.358 250.775 349.761 250.775 350.227C250.775 350.705 250.848 351.116 250.993 351.463C251.137 351.81 251.342 352.078 251.606 352.268C251.873 352.459 252.187 352.554 252.548 352.554C252.789 352.554 253.008 352.51 253.204 352.422C253.403 352.331 253.569 352.202 253.703 352.034C253.839 351.866 253.934 351.665 253.988 351.429H255.228C255.183 351.852 255.045 352.23 254.815 352.562C254.585 352.895 254.277 353.156 253.89 353.347C253.507 353.537 253.056 353.632 252.539 353.632ZM259.646 346.955V347.977H256.071V346.955H259.646ZM257.03 345.386H258.304V351.578C258.304 351.825 258.341 352.011 258.415 352.136C258.489 352.259 258.584 352.342 258.7 352.388C258.82 352.43 258.949 352.452 259.088 352.452C259.19 352.452 259.28 352.445 259.357 352.43C259.433 352.416 259.493 352.405 259.536 352.396L259.766 353.449C259.692 353.477 259.587 353.506 259.45 353.534C259.314 353.565 259.143 353.582 258.939 353.585C258.604 353.591 258.291 353.531 258.001 353.406C257.712 353.281 257.477 353.088 257.298 352.827C257.119 352.565 257.03 352.237 257.03 351.842V345.386ZM267.159 353.5H264.334V344.773H267.249C268.104 344.773 268.838 344.947 269.452 345.297C270.065 345.643 270.536 346.142 270.862 346.793C271.192 347.44 271.357 348.217 271.357 349.124C271.357 350.033 271.19 350.814 270.858 351.467C270.528 352.121 270.051 352.624 269.426 352.976C268.801 353.325 268.045 353.5 267.159 353.5ZM265.651 352.349H267.087C267.751 352.349 268.304 352.224 268.744 351.974C269.185 351.722 269.514 351.357 269.733 350.879C269.952 350.399 270.061 349.814 270.061 349.124C270.061 348.439 269.952 347.858 269.733 347.381C269.517 346.903 269.195 346.541 268.766 346.294C268.337 346.047 267.804 345.923 267.168 345.923H265.651V352.349ZM275.713 353.632C275.068 353.632 274.512 353.494 274.047 353.219C273.583 352.94 273.225 352.55 272.973 352.047C272.723 351.541 272.598 350.949 272.598 350.27C272.598 349.599 272.723 349.009 272.973 348.497C273.225 347.986 273.578 347.587 274.029 347.3C274.484 347.013 275.015 346.869 275.623 346.869C275.993 346.869 276.35 346.93 276.697 347.053C277.044 347.175 277.355 347.366 277.63 347.628C277.906 347.889 278.123 348.229 278.282 348.646C278.441 349.061 278.521 349.565 278.521 350.159V350.611H273.318V349.656H277.272C277.272 349.321 277.204 349.024 277.068 348.766C276.931 348.504 276.74 348.298 276.493 348.148C276.248 347.997 275.961 347.922 275.632 347.922C275.274 347.922 274.961 348.01 274.694 348.186C274.43 348.359 274.225 348.587 274.081 348.868C273.939 349.146 273.868 349.449 273.868 349.776V350.521C273.868 350.959 273.944 351.331 274.098 351.638C274.254 351.945 274.471 352.179 274.75 352.341C275.028 352.5 275.353 352.58 275.725 352.58C275.967 352.58 276.187 352.545 276.386 352.477C276.585 352.406 276.757 352.301 276.902 352.162C277.047 352.023 277.157 351.851 277.234 351.646L278.44 351.864C278.343 352.219 278.17 352.53 277.92 352.797C277.673 353.061 277.362 353.267 276.987 353.415C276.615 353.56 276.19 353.632 275.713 353.632ZM285.347 346.955L282.973 353.5H281.609L279.232 346.955H280.599L282.257 351.991H282.325L283.979 346.955H285.347ZM289.142 353.632C288.498 353.632 287.942 353.494 287.476 353.219C287.013 352.94 286.655 352.55 286.402 352.047C286.152 351.541 286.027 350.949 286.027 350.27C286.027 349.599 286.152 349.009 286.402 348.497C286.655 347.986 287.007 347.587 287.459 347.3C287.914 347.013 288.445 346.869 289.053 346.869C289.422 346.869 289.78 346.93 290.127 347.053C290.473 347.175 290.784 347.366 291.06 347.628C291.336 347.889 291.553 348.229 291.712 348.646C291.871 349.061 291.951 349.565 291.951 350.159V350.611H286.748V349.656H290.702C290.702 349.321 290.634 349.024 290.498 348.766C290.361 348.504 290.169 348.298 289.922 348.148C289.678 347.997 289.391 347.922 289.061 347.922C288.703 347.922 288.391 348.01 288.124 348.186C287.86 348.359 287.655 348.587 287.51 348.868C287.368 349.146 287.297 349.449 287.297 349.776V350.521C287.297 350.959 287.374 351.331 287.527 351.638C287.684 351.945 287.901 352.179 288.179 352.341C288.458 352.5 288.783 352.58 289.155 352.58C289.397 352.58 289.617 352.545 289.816 352.477C290.015 352.406 290.186 352.301 290.331 352.162C290.476 352.023 290.587 351.851 290.664 351.646L291.87 351.864C291.773 352.219 291.6 352.53 291.35 352.797C291.103 353.061 290.792 353.267 290.417 353.415C290.044 353.56 289.62 353.632 289.142 353.632ZM294.638 344.773V353.5H293.364V344.773H294.638ZM299.11 353.632C298.496 353.632 297.961 353.491 297.503 353.21C297.046 352.929 296.691 352.536 296.438 352.03C296.185 351.524 296.059 350.933 296.059 350.257C296.059 349.578 296.185 348.984 296.438 348.476C296.691 347.967 297.046 347.572 297.503 347.291C297.961 347.01 298.496 346.869 299.11 346.869C299.723 346.869 300.259 347.01 300.716 347.291C301.174 347.572 301.529 347.967 301.782 348.476C302.034 348.984 302.161 349.578 302.161 350.257C302.161 350.933 302.034 351.524 301.782 352.03C301.529 352.536 301.174 352.929 300.716 353.21C300.259 353.491 299.723 353.632 299.11 353.632ZM299.114 352.562C299.512 352.562 299.841 352.457 300.103 352.247C300.364 352.037 300.557 351.757 300.682 351.408C300.81 351.058 300.874 350.673 300.874 350.253C300.874 349.835 300.81 349.452 300.682 349.102C300.557 348.75 300.364 348.467 300.103 348.254C299.841 348.041 299.512 347.935 299.114 347.935C298.713 347.935 298.381 348.041 298.117 348.254C297.855 348.467 297.661 348.75 297.533 349.102C297.408 349.452 297.346 349.835 297.346 350.253C297.346 350.673 297.408 351.058 297.533 351.408C297.661 351.757 297.855 352.037 298.117 352.247C298.381 352.457 298.713 352.562 299.114 352.562ZM303.583 355.955V346.955H304.827V348.016H304.934C305.008 347.879 305.114 347.722 305.254 347.543C305.393 347.364 305.586 347.207 305.833 347.074C306.08 346.938 306.407 346.869 306.813 346.869C307.342 346.869 307.813 347.003 308.228 347.27C308.643 347.537 308.968 347.922 309.204 348.425C309.442 348.928 309.562 349.533 309.562 350.24C309.562 350.947 309.444 351.554 309.208 352.06C308.972 352.562 308.648 352.95 308.237 353.223C307.825 353.493 307.354 353.628 306.826 353.628C306.428 353.628 306.103 353.561 305.85 353.428C305.6 353.294 305.404 353.138 305.262 352.959C305.12 352.78 305.011 352.621 304.934 352.482H304.857V355.955H303.583ZM304.832 350.227C304.832 350.687 304.898 351.091 305.032 351.438C305.165 351.784 305.359 352.055 305.612 352.251C305.864 352.445 306.174 352.541 306.54 352.541C306.921 352.541 307.239 352.44 307.495 352.239C307.751 352.034 307.944 351.757 308.075 351.408C308.208 351.058 308.275 350.665 308.275 350.227C308.275 349.795 308.21 349.408 308.079 349.064C307.951 348.72 307.758 348.449 307.499 348.25C307.244 348.051 306.924 347.952 306.54 347.952C306.171 347.952 305.859 348.047 305.603 348.237C305.35 348.428 305.158 348.693 305.028 349.034C304.897 349.375 304.832 349.773 304.832 350.227ZM313.81 353.632C313.165 353.632 312.61 353.494 312.144 353.219C311.681 352.94 311.323 352.55 311.07 352.047C310.82 351.541 310.695 350.949 310.695 350.27C310.695 349.599 310.82 349.009 311.07 348.497C311.323 347.986 311.675 347.587 312.127 347.3C312.582 347.013 313.113 346.869 313.721 346.869C314.09 346.869 314.448 346.93 314.795 347.053C315.141 347.175 315.452 347.366 315.728 347.628C316.004 347.889 316.221 348.229 316.38 348.646C316.539 349.061 316.619 349.565 316.619 350.159V350.611H311.415V349.656H315.37C315.37 349.321 315.302 349.024 315.165 348.766C315.029 348.504 314.837 348.298 314.59 348.148C314.346 347.997 314.059 347.922 313.729 347.922C313.371 347.922 313.059 348.01 312.792 348.186C312.528 348.359 312.323 348.587 312.178 348.868C312.036 349.146 311.965 349.449 311.965 349.776V350.521C311.965 350.959 312.042 351.331 312.195 351.638C312.352 351.945 312.569 352.179 312.847 352.341C313.126 352.5 313.451 352.58 313.823 352.58C314.065 352.58 314.285 352.545 314.484 352.477C314.683 352.406 314.854 352.301 314.999 352.162C315.144 352.023 315.255 351.851 315.332 351.646L316.538 351.864C316.441 352.219 316.268 352.53 316.018 352.797C315.771 353.061 315.46 353.267 315.085 353.415C314.712 353.56 314.288 353.632 313.81 353.632ZM318.032 353.5V346.955H319.264V347.994H319.332C319.451 347.642 319.662 347.365 319.963 347.163C320.267 346.959 320.61 346.857 320.994 346.857C321.074 346.857 321.167 346.859 321.275 346.865C321.386 346.871 321.473 346.878 321.535 346.886V348.105C321.484 348.091 321.393 348.075 321.262 348.058C321.132 348.038 321.001 348.028 320.87 348.028C320.569 348.028 320.301 348.092 320.065 348.22C319.832 348.345 319.647 348.52 319.511 348.744C319.375 348.966 319.306 349.219 319.306 349.503V353.5H318.032Z" fill="#0D1019"/>
<rect width="154" height="36" rx="18" fill="#E8E8E8"/>
<g clip-path="url(#clip1_1543_33126)">
<path d="M28.2924 11.5526C28.0396 11.2709 27.6174 11.2592 27.3507 11.5262L23.4146 15.4764C22.8618 16.0311 22.8618 16.9644 23.4146 17.519L27.3507 21.4693C27.6174 21.7363 28.0396 21.7246 28.2924 21.4428C28.5451 21.1611 28.534 20.715 28.2674 20.448L24.3313 16.4977L28.2674 12.5475C28.534 12.2805 28.5451 11.8344 28.2924 11.5526ZM32.2535 12.2717C32.2535 11.9019 32.0479 11.5644 31.7257 11.4147C31.4035 11.265 31.0312 11.3267 30.7701 11.5732L26.3257 15.7993C26.1396 15.9783 26.0312 16.2307 26.0312 16.4977C26.0312 16.7648 26.1396 17.0172 26.3257 17.1962L30.7701 21.4223C31.0312 21.6718 31.4062 21.7334 31.7257 21.5808C32.0451 21.4282 32.2535 21.0936 32.2535 20.7238V18.8456H33.1424C34.6146 18.8456 35.809 20.1075 35.809 21.663C35.809 22.5551 35.4535 23.0687 35.1924 23.327C35.0396 23.4767 34.9201 23.6792 34.9201 23.8993C34.9201 24.2192 35.1646 24.4774 35.4674 24.4774C35.5451 24.4774 35.6229 24.4598 35.6924 24.4217C36.2118 24.1252 38.4757 22.6402 38.4757 19.3151C38.4757 16.4625 36.2868 14.1499 33.5868 14.1499H32.2535V12.2717Z" fill="#0D1019"/>
</g>
<path d="M49.7188 16.0653C49.6733 15.6619 49.4858 15.3494 49.1562 15.1278C48.8267 14.9034 48.4119 14.7912 47.9119 14.7912C47.554 14.7912 47.2443 14.848 46.983 14.9616C46.7216 15.0724 46.5185 15.2259 46.3736 15.4219C46.2315 15.6151 46.1605 15.8352 46.1605 16.0824C46.1605 16.2898 46.2088 16.4687 46.3054 16.6193C46.4048 16.7699 46.5341 16.8963 46.6932 16.9986C46.8551 17.098 47.0284 17.1818 47.2131 17.25C47.3977 17.3153 47.5753 17.3693 47.7457 17.4119L48.598 17.6335C48.8764 17.7017 49.1619 17.794 49.4545 17.9105C49.7472 18.027 50.0185 18.1804 50.2685 18.3707C50.5185 18.5611 50.7202 18.7969 50.8736 19.0781C51.0298 19.3594 51.108 19.696 51.108 20.0881C51.108 20.5824 50.9801 21.0213 50.7244 21.4048C50.4716 21.7884 50.1037 22.0909 49.6207 22.3125C49.1406 22.5341 48.5597 22.6449 47.8778 22.6449C47.2244 22.6449 46.6591 22.5412 46.1818 22.3338C45.7045 22.1264 45.331 21.8324 45.0611 21.4517C44.7912 21.0682 44.642 20.6136 44.6136 20.0881H45.9347C45.9602 20.4034 46.0625 20.6662 46.2415 20.8764C46.4233 21.0838 46.6548 21.2386 46.9361 21.3409C47.2202 21.4403 47.5312 21.4901 47.8693 21.4901C48.2415 21.4901 48.5724 21.4318 48.8622 21.3153C49.1548 21.196 49.3849 21.0312 49.5526 20.821C49.7202 20.608 49.804 20.3594 49.804 20.0753C49.804 19.8168 49.7301 19.6051 49.5824 19.4403C49.4375 19.2756 49.2401 19.1392 48.9901 19.0312C48.7429 18.9233 48.4631 18.8281 48.1506 18.7457L47.1193 18.4645C46.4205 18.2741 45.8665 17.9943 45.4574 17.625C45.0511 17.2557 44.848 16.767 44.848 16.1591C44.848 15.6562 44.9844 15.2173 45.2571 14.8423C45.5298 14.4673 45.8991 14.1761 46.3651 13.9688C46.831 13.7585 47.3565 13.6534 47.9418 13.6534C48.5327 13.6534 49.054 13.7571 49.5057 13.9645C49.9602 14.1719 50.3182 14.4574 50.5795 14.821C50.8409 15.1818 50.9773 15.5966 50.9886 16.0653H49.7188ZM55.4002 22.6321C54.7553 22.6321 54.1999 22.4943 53.734 22.2188C53.271 21.9403 52.913 21.5497 52.6602 21.0469C52.4102 20.5412 52.2852 19.9489 52.2852 19.2699C52.2852 18.5994 52.4102 18.0085 52.6602 17.4972C52.913 16.9858 53.2653 16.5866 53.717 16.2997C54.1715 16.0128 54.7028 15.8693 55.3107 15.8693C55.68 15.8693 56.038 15.9304 56.3846 16.0526C56.7312 16.1747 57.0423 16.3665 57.3178 16.6278C57.5934 16.8892 57.8107 17.2287 57.9698 17.6463C58.1289 18.0611 58.2085 18.5653 58.2085 19.1591V19.6108H53.0053V18.6562H56.9599C56.9599 18.321 56.8917 18.0241 56.7553 17.7656C56.619 17.5043 56.4272 17.2983 56.18 17.1477C55.9357 16.9972 55.6488 16.9219 55.3192 16.9219C54.9613 16.9219 54.6488 17.0099 54.3817 17.1861C54.1175 17.3594 53.913 17.5866 53.7681 17.8679C53.6261 18.1463 53.555 18.4489 53.555 18.7756V19.5213C53.555 19.9588 53.6317 20.331 53.7852 20.6378C53.9414 20.9446 54.1587 21.179 54.4371 21.3409C54.7156 21.5 55.0408 21.5795 55.413 21.5795C55.6545 21.5795 55.8746 21.5455 56.0735 21.4773C56.2724 21.4062 56.4442 21.3011 56.5891 21.1619C56.734 21.0227 56.8448 20.8509 56.9215 20.6463L58.1275 20.8636C58.0309 21.2187 57.8576 21.5298 57.6076 21.7969C57.3604 22.0611 57.0494 22.267 56.6744 22.4148C56.3022 22.5597 55.8775 22.6321 55.4002 22.6321ZM64.527 17.5526L63.3722 17.7571C63.3239 17.6094 63.2472 17.4687 63.142 17.3352C63.0398 17.2017 62.9006 17.0923 62.7244 17.0071C62.5483 16.9219 62.3281 16.8793 62.0639 16.8793C61.7031 16.8793 61.402 16.9602 61.1605 17.1222C60.919 17.2812 60.7983 17.4872 60.7983 17.7401C60.7983 17.9588 60.8793 18.1349 61.0412 18.2685C61.2031 18.402 61.4645 18.5114 61.8253 18.5966L62.8651 18.8352C63.4673 18.9744 63.9162 19.1889 64.2116 19.4787C64.5071 19.7685 64.6548 20.1449 64.6548 20.608C64.6548 21 64.5412 21.3494 64.3139 21.6562C64.0895 21.9602 63.7756 22.1989 63.3722 22.3722C62.9716 22.5455 62.5071 22.6321 61.9787 22.6321C61.2457 22.6321 60.6477 22.4759 60.1847 22.1634C59.7216 21.848 59.4375 21.4006 59.3324 20.821L60.5639 20.6335C60.6406 20.9545 60.7983 21.1974 61.0369 21.3622C61.2756 21.5241 61.5866 21.6051 61.9702 21.6051C62.3878 21.6051 62.7216 21.5185 62.9716 21.3452C63.2216 21.169 63.3466 20.9545 63.3466 20.7017C63.3466 20.4972 63.2699 20.3253 63.1165 20.1861C62.9659 20.0469 62.7344 19.9418 62.4219 19.8707L61.3139 19.6278C60.7031 19.4886 60.2514 19.267 59.9588 18.9631C59.669 18.6591 59.5241 18.2741 59.5241 17.8082C59.5241 17.4219 59.6321 17.0838 59.848 16.794C60.0639 16.5043 60.3622 16.2784 60.7429 16.1165C61.1236 15.9517 61.5597 15.8693 62.0511 15.8693C62.7585 15.8693 63.3153 16.0227 63.7216 16.3295C64.1278 16.6335 64.3963 17.0412 64.527 17.5526ZM70.9606 17.5526L69.8058 17.7571C69.7575 17.6094 69.6808 17.4687 69.5756 17.3352C69.4734 17.2017 69.3342 17.0923 69.158 17.0071C68.9819 16.9219 68.7617 16.8793 68.4975 16.8793C68.1367 16.8793 67.8356 16.9602 67.5941 17.1222C67.3526 17.2812 67.2319 17.4872 67.2319 17.7401C67.2319 17.9588 67.3129 18.1349 67.4748 18.2685C67.6367 18.402 67.8981 18.5114 68.2589 18.5966L69.2987 18.8352C69.9009 18.9744 70.3498 19.1889 70.6452 19.4787C70.9407 19.7685 71.0884 20.1449 71.0884 20.608C71.0884 21 70.9748 21.3494 70.7475 21.6562C70.5231 21.9602 70.2092 22.1989 69.8058 22.3722C69.4052 22.5455 68.9407 22.6321 68.4123 22.6321C67.6793 22.6321 67.0813 22.4759 66.6183 22.1634C66.1552 21.848 65.8711 21.4006 65.766 20.821L66.9975 20.6335C67.0742 20.9545 67.2319 21.1974 67.4705 21.3622C67.7092 21.5241 68.0202 21.6051 68.4038 21.6051C68.8214 21.6051 69.1552 21.5185 69.4052 21.3452C69.6552 21.169 69.7802 20.9545 69.7802 20.7017C69.7802 20.4972 69.7035 20.3253 69.5501 20.1861C69.3995 20.0469 69.168 19.9418 68.8555 19.8707L67.7475 19.6278C67.1367 19.4886 66.685 19.267 66.3924 18.9631C66.1026 18.6591 65.9577 18.2741 65.9577 17.8082C65.9577 17.4219 66.0657 17.0838 66.2816 16.794C66.4975 16.5043 66.7958 16.2784 67.1765 16.1165C67.5572 15.9517 67.9933 15.8693 68.4847 15.8693C69.1921 15.8693 69.7489 16.0227 70.1552 16.3295C70.5614 16.6335 70.8299 17.0412 70.9606 17.5526ZM72.4893 22.5V15.9545H73.7635V22.5H72.4893ZM73.1328 14.9446C72.9112 14.9446 72.7209 14.8707 72.5618 14.723C72.4055 14.5724 72.3274 14.3935 72.3274 14.1861C72.3274 13.9759 72.4055 13.7969 72.5618 13.6491C72.7209 13.4986 72.9112 13.4233 73.1328 13.4233C73.3544 13.4233 73.5433 13.4986 73.6996 13.6491C73.8587 13.7969 73.9382 13.9759 73.9382 14.1861C73.9382 14.3935 73.8587 14.5724 73.6996 14.723C73.5433 14.8707 73.3544 14.9446 73.1328 14.9446ZM78.2347 22.6321C77.6211 22.6321 77.0856 22.4915 76.6282 22.2102C76.1708 21.929 75.8157 21.5355 75.5629 21.0298C75.31 20.5241 75.1836 19.9332 75.1836 19.2571C75.1836 18.5781 75.31 17.9844 75.5629 17.4759C75.8157 16.9673 76.1708 16.5724 76.6282 16.2912C77.0856 16.0099 77.6211 15.8693 78.2347 15.8693C78.8484 15.8693 79.3839 16.0099 79.8413 16.2912C80.2987 16.5724 80.6538 16.9673 80.9066 17.4759C81.1594 17.9844 81.2859 18.5781 81.2859 19.2571C81.2859 19.9332 81.1594 20.5241 80.9066 21.0298C80.6538 21.5355 80.2987 21.929 79.8413 22.2102C79.3839 22.4915 78.8484 22.6321 78.2347 22.6321ZM78.239 21.5625C78.6367 21.5625 78.9663 21.4574 79.2276 21.2472C79.489 21.0369 79.6822 20.7571 79.8072 20.4077C79.935 20.0582 79.9989 19.6733 79.9989 19.2528C79.9989 18.8352 79.935 18.4517 79.8072 18.1023C79.6822 17.75 79.489 17.4673 79.2276 17.2543C78.9663 17.0412 78.6367 16.9347 78.239 16.9347C77.8384 16.9347 77.506 17.0412 77.2418 17.2543C76.9805 17.4673 76.7859 17.75 76.658 18.1023C76.533 18.4517 76.4705 18.8352 76.4705 19.2528C76.4705 19.6733 76.533 20.0582 76.658 20.4077C76.7859 20.7571 76.9805 21.0369 77.2418 21.2472C77.506 21.4574 77.8384 21.5625 78.239 21.5625ZM83.9822 18.6136V22.5H82.7081V15.9545H83.9311V17.0199H84.0121C84.1626 16.6733 84.3984 16.3949 84.7195 16.1847C85.0433 15.9744 85.451 15.8693 85.9425 15.8693C86.3885 15.8693 86.7791 15.9631 87.1143 16.1506C87.4496 16.3352 87.7095 16.6108 87.8942 16.9773C88.0788 17.3437 88.1712 17.7969 88.1712 18.3366V22.5H86.897V18.4901C86.897 18.0156 86.7734 17.6449 86.5263 17.3778C86.2791 17.108 85.9396 16.973 85.5078 16.973C85.2124 16.973 84.9496 17.0369 84.7195 17.1648C84.4922 17.2926 84.3118 17.4801 84.1783 17.7273C84.0476 17.9716 83.9822 18.267 83.9822 18.6136ZM93.158 22.5V13.7727H96.2688C96.945 13.7727 97.506 13.8892 97.9521 14.1222C98.4009 14.3551 98.7362 14.6776 98.9577 15.0895C99.1793 15.4986 99.2901 15.9716 99.2901 16.5085C99.2901 17.0426 99.1779 17.5128 98.9535 17.919C98.7319 18.3224 98.3967 18.6364 97.9478 18.8608C97.5018 19.0852 96.9407 19.1974 96.2646 19.1974H93.908V18.0639H96.1452C96.5714 18.0639 96.918 18.0028 97.185 17.8807C97.4549 17.7585 97.6523 17.581 97.7773 17.348C97.9023 17.1151 97.9648 16.8352 97.9648 16.5085C97.9648 16.179 97.9009 15.8935 97.7731 15.652C97.6481 15.4105 97.4506 15.2259 97.1808 15.098C96.9137 14.9673 96.5629 14.902 96.1282 14.902H94.4748V22.5H93.158ZM97.4663 18.5625L99.6225 22.5H98.1225L96.0089 18.5625H97.4663ZM103.529 22.6321C102.884 22.6321 102.329 22.4943 101.863 22.2188C101.4 21.9403 101.042 21.5497 100.789 21.0469C100.539 20.5412 100.414 19.9489 100.414 19.2699C100.414 18.5994 100.539 18.0085 100.789 17.4972C101.042 16.9858 101.394 16.5866 101.846 16.2997C102.3 16.0128 102.832 15.8693 103.44 15.8693C103.809 15.8693 104.167 15.9304 104.513 16.0526C104.86 16.1747 105.171 16.3665 105.447 16.6278C105.722 16.8892 105.94 17.2287 106.099 17.6463C106.258 18.0611 106.337 18.5653 106.337 19.1591V19.6108H101.134V18.6562H105.089C105.089 18.321 105.021 18.0241 104.884 17.7656C104.748 17.5043 104.556 17.2983 104.309 17.1477C104.065 16.9972 103.778 16.9219 103.448 16.9219C103.09 16.9219 102.778 17.0099 102.511 17.1861C102.246 17.3594 102.042 17.5866 101.897 17.8679C101.755 18.1463 101.684 18.4489 101.684 18.7756V19.5213C101.684 19.9588 101.761 20.331 101.914 20.6378C102.07 20.9446 102.288 21.179 102.566 21.3409C102.844 21.5 103.17 21.5795 103.542 21.5795C103.783 21.5795 104.004 21.5455 104.202 21.4773C104.401 21.4062 104.573 21.3011 104.718 21.1619C104.863 21.0227 104.974 20.8509 105.05 20.6463L106.256 20.8636C106.16 21.2187 105.987 21.5298 105.737 21.7969C105.489 22.0611 105.178 22.267 104.803 22.4148C104.431 22.5597 104.006 22.6321 103.529 22.6321ZM107.751 24.9545V15.9545H108.995V17.0156H109.102C109.176 16.8793 109.282 16.7216 109.422 16.5426C109.561 16.3636 109.754 16.2074 110.001 16.0739C110.248 15.9375 110.575 15.8693 110.981 15.8693C111.51 15.8693 111.981 16.0028 112.396 16.2699C112.811 16.5369 113.136 16.9219 113.372 17.4247C113.61 17.9276 113.73 18.5327 113.73 19.2401C113.73 19.9474 113.612 20.554 113.376 21.0597C113.14 21.5625 112.816 21.9503 112.404 22.223C111.993 22.4929 111.522 22.6278 110.994 22.6278C110.596 22.6278 110.271 22.5611 110.018 22.4276C109.768 22.294 109.572 22.1378 109.43 21.9588C109.288 21.7798 109.179 21.6207 109.102 21.4815H109.025V24.9545H107.751ZM109 19.2273C109 19.6875 109.066 20.0909 109.2 20.4375C109.333 20.7841 109.527 21.0554 109.779 21.2514C110.032 21.4446 110.342 21.5412 110.708 21.5412C111.089 21.5412 111.407 21.4403 111.663 21.2386C111.919 21.0341 112.112 20.7571 112.243 20.4077C112.376 20.0582 112.443 19.6648 112.443 19.2273C112.443 18.7955 112.377 18.4077 112.247 18.0639C112.119 17.7202 111.926 17.4489 111.667 17.25C111.412 17.0511 111.092 16.9517 110.708 16.9517C110.339 16.9517 110.027 17.0469 109.771 17.2372C109.518 17.4276 109.326 17.6932 109.196 18.0341C109.065 18.375 109 18.7727 109 19.2273ZM116.431 13.7727V22.5H115.157V13.7727H116.431ZM120.05 22.6449C119.636 22.6449 119.261 22.5682 118.925 22.4148C118.59 22.2585 118.325 22.0327 118.129 21.7372C117.935 21.4418 117.839 21.0795 117.839 20.6506C117.839 20.2812 117.91 19.9773 118.052 19.7386C118.194 19.5 118.386 19.3111 118.627 19.1719C118.869 19.0327 119.138 18.9276 119.437 18.8565C119.735 18.7855 120.039 18.7315 120.349 18.6946C120.741 18.6491 121.059 18.6122 121.303 18.5838C121.548 18.5526 121.725 18.5028 121.836 18.4347C121.947 18.3665 122.002 18.2557 122.002 18.1023V18.0724C122.002 17.7003 121.897 17.4119 121.687 17.2074C121.479 17.0028 121.17 16.9006 120.758 16.9006C120.329 16.9006 119.991 16.9957 119.744 17.1861C119.499 17.3736 119.33 17.5824 119.237 17.8125L118.039 17.5398C118.181 17.142 118.388 16.821 118.661 16.5767C118.937 16.3295 119.254 16.1506 119.612 16.0398C119.969 15.9261 120.346 15.8693 120.741 15.8693C121.002 15.8693 121.279 15.9006 121.572 15.9631C121.867 16.0227 122.143 16.1335 122.398 16.2955C122.657 16.4574 122.869 16.6889 123.033 16.9901C123.198 17.2884 123.281 17.6761 123.281 18.1534V22.5H122.036V21.6051H121.985C121.903 21.7699 121.779 21.9318 121.614 22.0909C121.45 22.25 121.238 22.3821 120.979 22.4872C120.721 22.5923 120.411 22.6449 120.05 22.6449ZM120.327 21.6222C120.68 21.6222 120.981 21.5526 121.231 21.4134C121.484 21.2741 121.675 21.0923 121.806 20.8679C121.94 20.6406 122.006 20.3977 122.006 20.1392V19.2955C121.961 19.3409 121.873 19.3835 121.742 19.4233C121.614 19.4602 121.468 19.4929 121.303 19.5213C121.138 19.5469 120.978 19.571 120.822 19.5938C120.665 19.6136 120.535 19.6307 120.43 19.6449C120.183 19.6761 119.957 19.7287 119.752 19.8026C119.55 19.8764 119.388 19.983 119.266 20.1222C119.147 20.2585 119.087 20.4403 119.087 20.6676C119.087 20.983 119.204 21.2216 119.437 21.3835C119.67 21.5426 119.967 21.6222 120.327 21.6222ZM125.549 24.9545C125.358 24.9545 125.185 24.9389 125.029 24.9077C124.873 24.8793 124.756 24.848 124.679 24.8139L124.986 23.7699C125.219 23.8324 125.426 23.8594 125.608 23.8509C125.79 23.8423 125.951 23.7741 126.09 23.6463C126.232 23.5185 126.357 23.3097 126.465 23.0199L126.623 22.5852L124.228 15.9545H125.591L127.249 21.0341H127.317L128.975 15.9545H130.343L127.645 23.3736C127.52 23.7145 127.361 24.0028 127.168 24.2386C126.975 24.4773 126.745 24.6563 126.478 24.7756C126.211 24.8949 125.901 24.9545 125.549 24.9545Z" fill="#0D1019"/>
<rect y="331" width="154" height="36" rx="18" fill="#E8E8E8"/>
<g clip-path="url(#clip2_1543_33126)">
<path d="M23.6855 343.454L22.6382 343.824C22.5549 343.853 22.4993 343.929 22.4993 344.013C22.4993 344.097 22.5549 344.173 22.6382 344.202L23.6855 344.572L24.0771 345.562C24.1077 345.641 24.1882 345.693 24.2771 345.693C24.366 345.693 24.4466 345.641 24.4771 345.562L24.8688 344.572L25.916 344.202C25.9993 344.173 26.0549 344.097 26.0549 344.013C26.0549 343.929 25.9993 343.853 25.916 343.824L24.8688 343.454L24.4771 342.464C24.4466 342.386 24.366 342.333 24.2771 342.333C24.1882 342.333 24.1077 342.386 24.0771 342.464L23.6855 343.454ZM18.4466 352.713C17.9271 353.204 17.9271 354.002 18.4466 354.495L19.4077 355.403C19.9271 355.894 20.7716 355.894 21.2938 355.403L31.8855 345.391C32.4049 344.9 32.4049 344.102 31.8855 343.609L30.9243 342.703C30.4049 342.212 29.5605 342.212 29.0382 342.703L18.4466 352.713ZM30.6271 344.501L27.7105 347.258L27.0632 346.646L29.9799 343.89L30.6271 344.501ZM17.3743 345.41C17.2493 345.454 17.166 345.567 17.166 345.693C17.166 345.819 17.2493 345.932 17.3743 345.977L18.9438 346.533L19.5327 348.016C19.5799 348.135 19.6993 348.213 19.8327 348.213C19.966 348.213 20.0855 348.135 20.1327 348.016L20.7216 346.533L22.291 345.977C22.416 345.932 22.4993 345.819 22.4993 345.693C22.4993 345.567 22.416 345.454 22.291 345.41L20.7216 344.853L20.1327 343.37C20.0855 343.252 19.966 343.173 19.8327 343.173C19.6993 343.173 19.5799 343.252 19.5327 343.37L18.9438 344.853L17.3743 345.41ZM27.1521 352.13C27.0271 352.174 26.9438 352.287 26.9438 352.413C26.9438 352.539 27.0271 352.652 27.1521 352.697L28.7216 353.253L29.3105 354.737C29.3577 354.855 29.4771 354.933 29.6105 354.933C29.7438 354.933 29.8632 354.855 29.9105 354.737L30.4993 353.253L32.0688 352.697C32.1938 352.652 32.2771 352.539 32.2771 352.413C32.2771 352.287 32.1938 352.174 32.0688 352.13L30.4993 351.573L29.9105 350.09C29.8632 349.972 29.7438 349.893 29.6105 349.893C29.4771 349.893 29.3577 349.972 29.3105 350.09L28.7216 351.573L27.1521 352.13Z" fill="#0D1019"/>
</g>
<path d="M38.4588 353.5V344.773H41.5696C42.2486 344.773 42.8111 344.896 43.2571 345.143C43.7031 345.391 44.0369 345.729 44.2585 346.158C44.4801 346.584 44.5909 347.064 44.5909 347.598C44.5909 348.135 44.4787 348.618 44.2543 349.047C44.0327 349.473 43.6974 349.811 43.2486 350.061C42.8026 350.308 42.2415 350.432 41.5653 350.432H39.4261V349.315H41.446C41.875 349.315 42.223 349.241 42.4901 349.094C42.7571 348.943 42.9531 348.739 43.0781 348.48C43.2031 348.222 43.2656 347.928 43.2656 347.598C43.2656 347.268 43.2031 346.976 43.0781 346.72C42.9531 346.464 42.7557 346.264 42.4858 346.119C42.2188 345.974 41.8665 345.902 41.429 345.902H39.7756V353.5H38.4588ZM46.0323 353.5V346.955H47.2638V347.994H47.332C47.4513 347.642 47.6616 347.365 47.9627 347.163C48.2667 346.959 48.6104 346.857 48.994 346.857C49.0735 346.857 49.1673 346.859 49.2752 346.865C49.386 346.871 49.4727 346.878 49.5352 346.886V348.105C49.484 348.091 49.3931 348.075 49.2624 348.058C49.1317 348.038 49.0011 348.028 48.8704 348.028C48.5692 348.028 48.3008 348.092 48.065 348.22C47.832 348.345 47.6474 348.52 47.511 348.744C47.3746 348.966 47.3065 349.219 47.3065 349.503V353.5H46.0323ZM53.1605 353.632C52.5469 353.632 52.0114 353.491 51.554 353.21C51.0966 352.929 50.7415 352.536 50.4886 352.03C50.2358 351.524 50.1094 350.933 50.1094 350.257C50.1094 349.578 50.2358 348.984 50.4886 348.476C50.7415 347.967 51.0966 347.572 51.554 347.291C52.0114 347.01 52.5469 346.869 53.1605 346.869C53.7741 346.869 54.3097 347.01 54.767 347.291C55.2244 347.572 55.5795 347.967 55.8324 348.476C56.0852 348.984 56.2116 349.578 56.2116 350.257C56.2116 350.933 56.0852 351.524 55.8324 352.03C55.5795 352.536 55.2244 352.929 54.767 353.21C54.3097 353.491 53.7741 353.632 53.1605 353.632ZM53.1648 352.562C53.5625 352.562 53.892 352.457 54.1534 352.247C54.4148 352.037 54.608 351.757 54.733 351.408C54.8608 351.058 54.9247 350.673 54.9247 350.253C54.9247 349.835 54.8608 349.452 54.733 349.102C54.608 348.75 54.4148 348.467 54.1534 348.254C53.892 348.041 53.5625 347.935 53.1648 347.935C52.7642 347.935 52.4318 348.041 52.1676 348.254C51.9063 348.467 51.7116 348.75 51.5838 349.102C51.4588 349.452 51.3963 349.835 51.3963 350.253C51.3963 350.673 51.4588 351.058 51.5838 351.408C51.7116 351.757 51.9063 352.037 52.1676 352.247C52.4318 352.457 52.7642 352.562 53.1648 352.562ZM60.0842 353.628C59.5558 353.628 59.0842 353.493 58.6694 353.223C58.2575 352.95 57.9336 352.562 57.6978 352.06C57.4648 351.554 57.3484 350.947 57.3484 350.24C57.3484 349.533 57.4663 348.928 57.7021 348.425C57.9407 347.922 58.2674 347.537 58.6822 347.27C59.0969 347.003 59.5671 346.869 60.0927 346.869C60.4989 346.869 60.8256 346.938 61.0728 347.074C61.3228 347.207 61.516 347.364 61.6523 347.543C61.7915 347.722 61.8995 347.879 61.9762 348.016H62.0529V344.773H63.3271V353.5H62.0827V352.482H61.9762C61.8995 352.621 61.7887 352.78 61.6438 352.959C61.5018 353.138 61.3058 353.294 61.0558 353.428C60.8058 353.561 60.4819 353.628 60.0842 353.628ZM60.3654 352.541C60.7319 352.541 61.0415 352.445 61.2944 352.251C61.5501 352.055 61.7433 351.784 61.8739 351.438C62.0075 351.091 62.0742 350.687 62.0742 350.227C62.0742 349.773 62.0089 349.375 61.8782 349.034C61.7475 348.693 61.5558 348.428 61.3029 348.237C61.0501 348.047 60.7376 347.952 60.3654 347.952C59.9819 347.952 59.6623 348.051 59.4066 348.25C59.1509 348.449 58.9577 348.72 58.8271 349.064C58.6992 349.408 58.6353 349.795 58.6353 350.227C58.6353 350.665 58.7006 351.058 58.8313 351.408C58.962 351.757 59.1552 352.034 59.4109 352.239C59.6694 352.44 59.9876 352.541 60.3654 352.541ZM69.2919 350.786V346.955H70.5703V353.5H69.3175V352.366H69.2493C69.0987 352.716 68.8572 353.007 68.5249 353.24C68.1953 353.47 67.7848 353.585 67.2933 353.585C66.8729 353.585 66.5007 353.493 66.1768 353.308C65.8558 353.121 65.603 352.844 65.4183 352.477C65.2365 352.111 65.1456 351.658 65.1456 351.118V346.955H66.4197V350.964C66.4197 351.411 66.5433 351.766 66.7905 352.03C67.0376 352.294 67.3587 352.426 67.7536 352.426C67.9922 352.426 68.2294 352.366 68.4652 352.247C68.7038 352.128 68.9013 351.947 69.0575 351.706C69.2166 351.464 69.2947 351.158 69.2919 350.786ZM75.0394 353.632C74.4059 353.632 73.8604 353.489 73.4031 353.202C72.9485 352.912 72.5991 352.513 72.3548 352.004C72.1104 351.496 71.9883 350.913 71.9883 350.257C71.9883 349.592 72.1133 349.006 72.3633 348.497C72.6133 347.986 72.9656 347.587 73.4201 347.3C73.8746 347.013 74.4102 346.869 75.0266 346.869C75.5238 346.869 75.967 346.962 76.3562 347.146C76.7454 347.328 77.0593 347.584 77.2979 347.913C77.5394 348.243 77.6829 348.628 77.7283 349.068H76.4883C76.4201 348.761 76.2638 348.497 76.0195 348.276C75.7781 348.054 75.4542 347.943 75.0479 347.943C74.6928 347.943 74.3817 348.037 74.1147 348.224C73.8505 348.409 73.6445 348.673 73.4968 349.017C73.3491 349.358 73.2752 349.761 73.2752 350.227C73.2752 350.705 73.3477 351.116 73.4925 351.463C73.6374 351.81 73.842 352.078 74.1062 352.268C74.3732 352.459 74.6871 352.554 75.0479 352.554C75.2894 352.554 75.5082 352.51 75.7042 352.422C75.9031 352.331 76.0692 352.202 76.2028 352.034C76.3391 351.866 76.4343 351.665 76.4883 351.429H77.7283C77.6829 351.852 77.5451 352.23 77.315 352.562C77.0849 352.895 76.7766 353.156 76.3903 353.347C76.0067 353.537 75.5565 353.632 75.0394 353.632ZM82.1463 346.955V347.977H78.571V346.955H82.1463ZM79.5298 345.386H80.804V351.578C80.804 351.825 80.8409 352.011 80.9148 352.136C80.9886 352.259 81.0838 352.342 81.2003 352.388C81.3196 352.43 81.4489 352.452 81.5881 352.452C81.6903 352.452 81.7798 352.445 81.8565 352.43C81.9332 352.416 81.9929 352.405 82.0355 352.396L82.2656 353.449C82.1918 353.477 82.0866 353.506 81.9503 353.534C81.8139 353.565 81.6435 353.582 81.4389 353.585C81.1037 353.591 80.7912 353.531 80.5014 353.406C80.2116 353.281 79.9773 353.088 79.7983 352.827C79.6193 352.565 79.5298 352.237 79.5298 351.842V345.386ZM89.6591 353.5H86.8338V344.773H89.7486C90.6037 344.773 91.3381 344.947 91.9517 345.297C92.5653 345.643 93.0355 346.142 93.3622 346.793C93.6918 347.44 93.8565 348.217 93.8565 349.124C93.8565 350.033 93.6903 350.814 93.358 351.467C93.0284 352.121 92.5511 352.624 91.9261 352.976C91.3011 353.325 90.5455 353.5 89.6591 353.5ZM88.1506 352.349H89.5866C90.2514 352.349 90.804 352.224 91.2443 351.974C91.6847 351.722 92.0142 351.357 92.233 350.879C92.4517 350.399 92.5611 349.814 92.5611 349.124C92.5611 348.439 92.4517 347.858 92.233 347.381C92.017 346.903 91.6946 346.541 91.2656 346.294C90.8366 346.047 90.304 345.923 89.6676 345.923H88.1506V352.349ZM98.2127 353.632C97.5678 353.632 97.0124 353.494 96.5465 353.219C96.0835 352.94 95.7255 352.55 95.4727 352.047C95.2227 351.541 95.0977 350.949 95.0977 350.27C95.0977 349.599 95.2227 349.009 95.4727 348.497C95.7255 347.986 96.0778 347.587 96.5295 347.3C96.984 347.013 97.5153 346.869 98.1232 346.869C98.4925 346.869 98.8505 346.93 99.1971 347.053C99.5437 347.175 99.8548 347.366 100.13 347.628C100.406 347.889 100.623 348.229 100.782 348.646C100.941 349.061 101.021 349.565 101.021 350.159V350.611H95.8178V349.656H99.7724C99.7724 349.321 99.7042 349.024 99.5678 348.766C99.4315 348.504 99.2397 348.298 98.9925 348.148C98.7482 347.997 98.4613 347.922 98.1317 347.922C97.7738 347.922 97.4613 348.01 97.1942 348.186C96.93 348.359 96.7255 348.587 96.5806 348.868C96.4386 349.146 96.3675 349.449 96.3675 349.776V350.521C96.3675 350.959 96.4442 351.331 96.5977 351.638C96.7539 351.945 96.9712 352.179 97.2496 352.341C97.5281 352.5 97.8533 352.58 98.2255 352.58C98.467 352.58 98.6871 352.545 98.886 352.477C99.0849 352.406 99.2567 352.301 99.4016 352.162C99.5465 352.023 99.6573 351.851 99.734 351.646L100.94 351.864C100.843 352.219 100.67 352.53 100.42 352.797C100.173 353.061 99.8619 353.267 99.4869 353.415C99.1147 353.56 98.69 353.632 98.2127 353.632ZM107.339 348.553L106.185 348.757C106.136 348.609 106.06 348.469 105.955 348.335C105.852 348.202 105.713 348.092 105.537 348.007C105.361 347.922 105.141 347.879 104.876 347.879C104.516 347.879 104.214 347.96 103.973 348.122C103.732 348.281 103.611 348.487 103.611 348.74C103.611 348.959 103.692 349.135 103.854 349.268C104.016 349.402 104.277 349.511 104.638 349.597L105.678 349.835C106.28 349.974 106.729 350.189 107.024 350.479C107.32 350.768 107.467 351.145 107.467 351.608C107.467 352 107.354 352.349 107.126 352.656C106.902 352.96 106.588 353.199 106.185 353.372C105.784 353.545 105.32 353.632 104.791 353.632C104.058 353.632 103.46 353.476 102.997 353.163C102.534 352.848 102.25 352.401 102.145 351.821L103.376 351.634C103.453 351.955 103.611 352.197 103.849 352.362C104.088 352.524 104.399 352.605 104.783 352.605C105.2 352.605 105.534 352.518 105.784 352.345C106.034 352.169 106.159 351.955 106.159 351.702C106.159 351.497 106.082 351.325 105.929 351.186C105.778 351.047 105.547 350.942 105.234 350.871L104.126 350.628C103.516 350.489 103.064 350.267 102.771 349.963C102.482 349.659 102.337 349.274 102.337 348.808C102.337 348.422 102.445 348.084 102.661 347.794C102.876 347.504 103.175 347.278 103.555 347.116C103.936 346.952 104.372 346.869 104.864 346.869C105.571 346.869 106.128 347.023 106.534 347.33C106.94 347.634 107.209 348.041 107.339 348.553ZM108.868 353.5V346.955H110.142V353.5H108.868ZM109.512 345.945C109.29 345.945 109.1 345.871 108.941 345.723C108.784 345.572 108.706 345.393 108.706 345.186C108.706 344.976 108.784 344.797 108.941 344.649C109.1 344.499 109.29 344.423 109.512 344.423C109.733 344.423 109.922 344.499 110.078 344.649C110.238 344.797 110.317 344.976 110.317 345.186C110.317 345.393 110.238 345.572 110.078 345.723C109.922 345.871 109.733 345.945 109.512 345.945ZM114.601 356.091C114.081 356.091 113.634 356.023 113.259 355.886C112.886 355.75 112.582 355.57 112.347 355.345C112.111 355.121 111.935 354.875 111.818 354.608L112.913 354.156C112.99 354.281 113.092 354.413 113.22 354.553C113.351 354.695 113.527 354.815 113.749 354.915C113.973 355.014 114.261 355.064 114.614 355.064C115.097 355.064 115.496 354.946 115.811 354.71C116.126 354.477 116.284 354.105 116.284 353.594V352.307H116.203C116.126 352.446 116.016 352.601 115.871 352.771C115.729 352.942 115.533 353.089 115.283 353.214C115.033 353.339 114.707 353.402 114.307 353.402C113.79 353.402 113.324 353.281 112.909 353.04C112.497 352.795 112.17 352.436 111.929 351.962C111.69 351.484 111.571 350.898 111.571 350.202C111.571 349.506 111.689 348.909 111.925 348.412C112.163 347.915 112.49 347.534 112.905 347.27C113.32 347.003 113.79 346.869 114.315 346.869C114.722 346.869 115.05 346.938 115.3 347.074C115.55 347.207 115.744 347.364 115.884 347.543C116.026 347.722 116.135 347.879 116.212 348.016H116.305V346.955H117.554V353.645C117.554 354.207 117.423 354.669 117.162 355.03C116.901 355.391 116.547 355.658 116.101 355.831C115.658 356.004 115.158 356.091 114.601 356.091ZM114.588 352.345C114.955 352.345 115.264 352.26 115.517 352.089C115.773 351.916 115.966 351.669 116.097 351.348C116.23 351.024 116.297 350.636 116.297 350.185C116.297 349.744 116.232 349.357 116.101 349.021C115.97 348.686 115.778 348.425 115.526 348.237C115.273 348.047 114.96 347.952 114.588 347.952C114.205 347.952 113.885 348.051 113.629 348.25C113.374 348.446 113.18 348.713 113.05 349.051C112.922 349.389 112.858 349.767 112.858 350.185C112.858 350.614 112.923 350.99 113.054 351.314C113.185 351.638 113.378 351.891 113.634 352.072C113.892 352.254 114.21 352.345 114.588 352.345ZM120.537 349.614V353.5H119.263V346.955H120.486V348.02H120.567C120.717 347.673 120.953 347.395 121.274 347.185C121.598 346.974 122.006 346.869 122.497 346.869C122.943 346.869 123.334 346.963 123.669 347.151C124.004 347.335 124.264 347.611 124.449 347.977C124.634 348.344 124.726 348.797 124.726 349.337V353.5H123.452V349.49C123.452 349.016 123.328 348.645 123.081 348.378C122.834 348.108 122.494 347.973 122.062 347.973C121.767 347.973 121.504 348.037 121.274 348.165C121.047 348.293 120.866 348.48 120.733 348.727C120.602 348.972 120.537 349.267 120.537 349.614ZM129.256 353.632C128.611 353.632 128.055 353.494 127.589 353.219C127.126 352.94 126.768 352.55 126.516 352.047C126.266 351.541 126.141 350.949 126.141 350.27C126.141 349.599 126.266 349.009 126.516 348.497C126.768 347.986 127.121 347.587 127.572 347.3C128.027 347.013 128.558 346.869 129.166 346.869C129.536 346.869 129.893 346.93 130.24 347.053C130.587 347.175 130.898 347.366 131.173 347.628C131.449 347.889 131.666 348.229 131.825 348.646C131.984 349.061 132.064 349.565 132.064 350.159V350.611H126.861V349.656H130.815C130.815 349.321 130.747 349.024 130.611 348.766C130.474 348.504 130.283 348.298 130.036 348.148C129.791 347.997 129.504 347.922 129.175 347.922C128.817 347.922 128.504 348.01 128.237 348.186C127.973 348.359 127.768 348.587 127.624 348.868C127.482 349.146 127.411 349.449 127.411 349.776V350.521C127.411 350.959 127.487 351.331 127.641 351.638C127.797 351.945 128.014 352.179 128.293 352.341C128.571 352.5 128.896 352.58 129.268 352.58C129.51 352.58 129.73 352.545 129.929 352.477C130.128 352.406 130.3 352.301 130.445 352.162C130.589 352.023 130.7 351.851 130.777 351.646L131.983 351.864C131.886 352.219 131.713 352.53 131.463 352.797C131.216 353.061 130.905 353.267 130.53 353.415C130.158 353.56 129.733 353.632 129.256 353.632ZM133.478 353.5V346.955H134.709V347.994H134.777C134.897 347.642 135.107 347.365 135.408 347.163C135.712 346.959 136.056 346.857 136.439 346.857C136.519 346.857 136.613 346.859 136.721 346.865C136.831 346.871 136.918 346.878 136.98 346.886V348.105C136.929 348.091 136.838 348.075 136.708 348.058C136.577 348.038 136.446 348.028 136.316 348.028C136.015 348.028 135.746 348.092 135.51 348.22C135.277 348.345 135.093 348.52 134.956 348.744C134.82 348.966 134.752 349.219 134.752 349.503V353.5H133.478Z" fill="#0D1019"/>
<rect x="110" y="49" width="114" height="36" rx="18" fill="#E8E8E8"/>
<g clip-path="url(#clip3_1543_33126)">
<path d="M138.224 66.8957V60.7874C138.224 60.5413 138.418 60.3335 138.668 60.3335C142.104 60.3335 144.89 63.076 144.89 66.4583C144.89 66.7043 144.679 66.8957 144.429 66.8957H138.224ZM130.668 67.7707C130.668 64.454 133.171 61.7088 136.418 61.2714C136.674 61.2358 136.89 61.4381 136.89 61.6924V68.2082L141.237 72.4873C141.424 72.6705 141.41 72.9713 141.196 73.1189C140.107 73.8845 138.774 74.3329 137.335 74.3329C133.654 74.3329 130.668 71.3963 130.668 67.7707ZM145.29 68.2082C145.549 68.2082 145.751 68.4215 145.718 68.673C145.504 70.2015 144.757 71.5604 143.665 72.5639C143.499 72.717 143.237 72.7061 143.076 72.5447L138.668 68.2082H145.29Z" fill="#0D1019"/>
</g>
<path d="M152.696 71.5H151.298L154.439 62.7727H155.96L159.101 71.5H157.703L155.236 64.358H155.168L152.696 71.5ZM152.93 68.0824H157.464V69.1903H152.93V68.0824ZM161.533 67.6136V71.5H160.259V64.9545H161.482V66.0199H161.563C161.713 65.6733 161.949 65.3949 162.27 65.1847C162.594 64.9744 163.002 64.8693 163.493 64.8693C163.939 64.8693 164.33 64.9631 164.665 65.1506C165 65.3352 165.26 65.6108 165.445 65.9773C165.63 66.3437 165.722 66.7969 165.722 67.3366V71.5H164.448V67.4901C164.448 67.0156 164.324 66.6449 164.077 66.3778C163.83 66.108 163.49 65.973 163.059 65.973C162.763 65.973 162.5 66.0369 162.27 66.1648C162.043 66.2926 161.863 66.4801 161.729 66.7273C161.598 66.9716 161.533 67.267 161.533 67.6136ZM169.336 71.6449C168.921 71.6449 168.546 71.5682 168.211 71.4148C167.875 71.2585 167.61 71.0327 167.414 70.7372C167.221 70.4418 167.124 70.0795 167.124 69.6506C167.124 69.2812 167.195 68.9773 167.337 68.7386C167.479 68.5 167.671 68.3111 167.912 68.1719C168.154 68.0327 168.424 67.9276 168.722 67.8565C169.02 67.7855 169.324 67.7315 169.634 67.6946C170.026 67.6491 170.344 67.6122 170.588 67.5838C170.833 67.5526 171.01 67.5028 171.121 67.4347C171.232 67.3665 171.287 67.2557 171.287 67.1023V67.0724C171.287 66.7003 171.182 66.4119 170.972 66.2074C170.765 66.0028 170.455 65.9006 170.043 65.9006C169.614 65.9006 169.276 65.9957 169.029 66.1861C168.784 66.3736 168.615 66.5824 168.522 66.8125L167.324 66.5398C167.466 66.142 167.674 65.821 167.946 65.5767C168.222 65.3295 168.539 65.1506 168.897 65.0398C169.255 64.9261 169.631 64.8693 170.026 64.8693C170.287 64.8693 170.564 64.9006 170.857 64.9631C171.152 65.0227 171.428 65.1335 171.684 65.2955C171.942 65.4574 172.154 65.6889 172.319 65.9901C172.483 66.2884 172.566 66.6761 172.566 67.1534V71.5H171.321V70.6051H171.27C171.188 70.7699 171.064 70.9318 170.9 71.0909C170.735 71.25 170.523 71.3821 170.265 71.4872C170.006 71.5923 169.696 71.6449 169.336 71.6449ZM169.613 70.6222C169.965 70.6222 170.266 70.5526 170.516 70.4134C170.769 70.2741 170.961 70.0923 171.091 69.8679C171.225 69.6406 171.292 69.3977 171.292 69.1392V68.2955C171.246 68.3409 171.158 68.3835 171.027 68.4233C170.9 68.4602 170.753 68.4929 170.588 68.5213C170.424 68.5469 170.263 68.571 170.107 68.5938C169.951 68.6136 169.82 68.6307 169.715 68.6449C169.468 68.6761 169.242 68.7287 169.037 68.8026C168.836 68.8764 168.674 68.983 168.551 69.1222C168.432 69.2585 168.373 69.4403 168.373 69.6676C168.373 69.983 168.489 70.2216 168.722 70.3835C168.955 70.5426 169.252 70.6222 169.613 70.6222ZM175.537 62.7727V71.5H174.263V62.7727H175.537ZM178.056 73.9545C177.866 73.9545 177.693 73.9389 177.537 73.9077C177.38 73.8793 177.264 73.848 177.187 73.8139L177.494 72.7699C177.727 72.8324 177.934 72.8594 178.116 72.8509C178.298 72.8423 178.458 72.7741 178.598 72.6463C178.74 72.5185 178.865 72.3097 178.973 72.0199L179.13 71.5852L176.735 64.9545H178.099L179.757 70.0341H179.825L181.483 64.9545H182.85L180.153 72.3736C180.028 72.7145 179.869 73.0028 179.676 73.2386C179.483 73.4773 179.252 73.6563 178.985 73.7756C178.718 73.8949 178.409 73.9545 178.056 73.9545ZM187.103 64.9545V65.9773H183.528V64.9545H187.103ZM184.487 63.3864H185.761V69.5781C185.761 69.8253 185.798 70.0114 185.872 70.1364C185.946 70.2585 186.041 70.3423 186.157 70.3878C186.277 70.4304 186.406 70.4517 186.545 70.4517C186.647 70.4517 186.737 70.4446 186.814 70.4304C186.89 70.4162 186.95 70.4048 186.993 70.3963L187.223 71.4489C187.149 71.4773 187.044 71.5057 186.907 71.5341C186.771 71.5653 186.6 71.5824 186.396 71.5852C186.061 71.5909 185.748 71.5312 185.458 71.4062C185.169 71.2812 184.934 71.0881 184.755 70.8267C184.576 70.5653 184.487 70.2372 184.487 69.8423V63.3864ZM188.513 71.5V64.9545H189.787V71.5H188.513ZM189.156 63.9446C188.935 63.9446 188.744 63.8707 188.585 63.723C188.429 63.5724 188.351 63.3935 188.351 63.1861C188.351 62.9759 188.429 62.7969 188.585 62.6491C188.744 62.4986 188.935 62.4233 189.156 62.4233C189.378 62.4233 189.567 62.4986 189.723 62.6491C189.882 62.7969 189.962 62.9759 189.962 63.1861C189.962 63.3935 189.882 63.5724 189.723 63.723C189.567 63.8707 189.378 63.9446 189.156 63.9446ZM194.258 71.6321C193.625 71.6321 193.079 71.4886 192.622 71.2017C192.167 70.9119 191.818 70.5128 191.574 70.0043C191.329 69.4957 191.207 68.9134 191.207 68.2571C191.207 67.5923 191.332 67.0057 191.582 66.4972C191.832 65.9858 192.184 65.5866 192.639 65.2997C193.093 65.0128 193.629 64.8693 194.245 64.8693C194.743 64.8693 195.186 64.9616 195.575 65.1463C195.964 65.3281 196.278 65.5838 196.517 65.9134C196.758 66.2429 196.902 66.6278 196.947 67.0682H195.707C195.639 66.7614 195.483 66.4972 195.238 66.2756C194.997 66.054 194.673 65.9432 194.267 65.9432C193.912 65.9432 193.6 66.0369 193.333 66.2244C193.069 66.4091 192.863 66.6733 192.716 67.017C192.568 67.358 192.494 67.7614 192.494 68.2273C192.494 68.7045 192.566 69.1165 192.711 69.4631C192.856 69.8097 193.061 70.0781 193.325 70.2685C193.592 70.4588 193.906 70.554 194.267 70.554C194.508 70.554 194.727 70.5099 194.923 70.4219C195.122 70.331 195.288 70.2017 195.422 70.0341C195.558 69.8665 195.653 69.6648 195.707 69.429H196.947C196.902 69.8523 196.764 70.2301 196.534 70.5625C196.304 70.8949 195.995 71.1562 195.609 71.3466C195.225 71.5369 194.775 71.6321 194.258 71.6321ZM203.214 66.5526L202.06 66.7571C202.011 66.6094 201.935 66.4687 201.83 66.3352C201.727 66.2017 201.588 66.0923 201.412 66.0071C201.236 65.9219 201.016 65.8793 200.751 65.8793C200.391 65.8793 200.089 65.9602 199.848 66.1222C199.607 66.2812 199.486 66.4872 199.486 66.7401C199.486 66.9588 199.567 67.1349 199.729 67.2685C199.891 67.402 200.152 67.5114 200.513 67.5966L201.553 67.8352C202.155 67.9744 202.604 68.1889 202.899 68.4787C203.195 68.7685 203.342 69.1449 203.342 69.608C203.342 70 203.229 70.3494 203.001 70.6562C202.777 70.9602 202.463 71.1989 202.06 71.3722C201.659 71.5455 201.195 71.6321 200.666 71.6321C199.933 71.6321 199.335 71.4759 198.872 71.1634C198.409 70.848 198.125 70.4006 198.02 69.821L199.251 69.6335C199.328 69.9545 199.486 70.1974 199.724 70.3622C199.963 70.5241 200.274 70.6051 200.658 70.6051C201.075 70.6051 201.409 70.5185 201.659 70.3452C201.909 70.169 202.034 69.9545 202.034 69.7017C202.034 69.4972 201.957 69.3253 201.804 69.1861C201.653 69.0469 201.422 68.9418 201.109 68.8707L200.001 68.6278C199.391 68.4886 198.939 68.267 198.646 67.9631C198.357 67.6591 198.212 67.2741 198.212 66.8082C198.212 66.4219 198.32 66.0838 198.536 65.794C198.751 65.5043 199.05 65.2784 199.43 65.1165C199.811 64.9517 200.247 64.8693 200.739 64.8693C201.446 64.8693 202.003 65.0227 202.409 65.3295C202.815 65.6335 203.084 66.0412 203.214 66.5526Z" fill="#0D1019"/>
<rect x="110.328" y="282" width="114.341" height="36" rx="18" fill="#E8E8E8"/>
<g clip-path="url(#clip4_1543_33126)">
<path d="M124.098 295.669C124.098 294.749 124.816 294 125.698 294H135.298C136.181 294 136.898 294.749 136.898 295.669V302.348H135.298V295.669H125.698V302.348H124.098V295.669ZM122.498 303.683C122.498 303.407 122.713 303.183 122.978 303.183H138.018C138.283 303.183 138.498 303.407 138.498 303.683C138.498 304.79 137.638 305.687 136.578 305.687H124.418C123.358 305.687 122.498 304.79 122.498 303.683ZM129.523 298.617L128.748 299.426L129.523 300.235C129.758 300.48 129.758 300.877 129.523 301.119C129.288 301.362 128.908 301.364 128.676 301.119L127.476 299.867C127.241 299.622 127.241 299.225 127.476 298.983L128.676 297.73C128.911 297.485 129.291 297.485 129.523 297.73C129.756 297.976 129.758 298.372 129.523 298.615V298.617ZM132.323 297.73L133.523 298.983C133.758 299.228 133.758 299.624 133.523 299.867L132.323 301.119C132.088 301.364 131.708 301.364 131.476 301.119C131.243 300.874 131.241 300.477 131.476 300.235L132.251 299.426L131.476 298.617C131.241 298.372 131.241 297.976 131.476 297.733C131.711 297.49 132.091 297.488 132.323 297.733V297.73Z" fill="#0D1019"/>
</g>
<path d="M144.457 304.5V295.773H149.928V296.906H145.774V299.565H149.643V300.695H145.774V303.366H149.98V304.5H144.457ZM152.859 300.614V304.5H151.585V297.955H152.808V299.02H152.889C153.04 298.673 153.275 298.395 153.596 298.185C153.92 297.974 154.328 297.869 154.819 297.869C155.265 297.869 155.656 297.963 155.991 298.151C156.327 298.335 156.586 298.611 156.771 298.977C156.956 299.344 157.048 299.797 157.048 300.337V304.5H155.774V300.49C155.774 300.016 155.65 299.645 155.403 299.378C155.156 299.108 154.817 298.973 154.385 298.973C154.089 298.973 153.827 299.037 153.596 299.165C153.369 299.293 153.189 299.48 153.055 299.727C152.925 299.972 152.859 300.267 152.859 300.614ZM161.501 307.091C160.981 307.091 160.534 307.023 160.159 306.886C159.787 306.75 159.483 306.57 159.247 306.345C159.011 306.121 158.835 305.875 158.719 305.608L159.814 305.156C159.89 305.281 159.993 305.413 160.121 305.553C160.251 305.695 160.427 305.815 160.649 305.915C160.873 306.014 161.162 306.064 161.514 306.064C161.997 306.064 162.396 305.946 162.711 305.71C163.027 305.477 163.184 305.105 163.184 304.594V303.307H163.104C163.027 303.446 162.916 303.601 162.771 303.771C162.629 303.942 162.433 304.089 162.183 304.214C161.933 304.339 161.608 304.402 161.207 304.402C160.69 304.402 160.224 304.281 159.809 304.04C159.398 303.795 159.071 303.436 158.829 302.962C158.591 302.484 158.471 301.898 158.471 301.202C158.471 300.506 158.589 299.909 158.825 299.412C159.064 298.915 159.39 298.534 159.805 298.27C160.22 298.003 160.69 297.869 161.216 297.869C161.622 297.869 161.95 297.938 162.2 298.074C162.45 298.207 162.645 298.364 162.784 298.543C162.926 298.722 163.035 298.879 163.112 299.016H163.206V297.955H164.454V304.645C164.454 305.207 164.324 305.669 164.062 306.03C163.801 306.391 163.447 306.658 163.001 306.831C162.558 307.004 162.058 307.091 161.501 307.091ZM161.488 303.345C161.855 303.345 162.165 303.26 162.417 303.089C162.673 302.916 162.866 302.669 162.997 302.348C163.131 302.024 163.197 301.636 163.197 301.185C163.197 300.744 163.132 300.357 163.001 300.021C162.871 299.686 162.679 299.425 162.426 299.237C162.173 299.047 161.861 298.952 161.488 298.952C161.105 298.952 160.785 299.051 160.53 299.25C160.274 299.446 160.081 299.713 159.95 300.051C159.822 300.389 159.758 300.767 159.758 301.185C159.758 301.614 159.824 301.99 159.954 302.314C160.085 302.638 160.278 302.891 160.534 303.072C160.792 303.254 161.111 303.345 161.488 303.345ZM166.163 304.5V297.955H167.437V304.5H166.163ZM166.807 296.945C166.585 296.945 166.395 296.871 166.236 296.723C166.079 296.572 166.001 296.393 166.001 296.186C166.001 295.976 166.079 295.797 166.236 295.649C166.395 295.499 166.585 295.423 166.807 295.423C167.028 295.423 167.217 295.499 167.373 295.649C167.532 295.797 167.612 295.976 167.612 296.186C167.612 296.393 167.532 296.572 167.373 296.723C167.217 296.871 167.028 296.945 166.807 296.945ZM170.426 300.614V304.5H169.151V297.955H170.374V299.02H170.455C170.606 298.673 170.842 298.395 171.163 298.185C171.487 297.974 171.894 297.869 172.386 297.869C172.832 297.869 173.222 297.963 173.558 298.151C173.893 298.335 174.153 298.611 174.338 298.977C174.522 299.344 174.615 299.797 174.615 300.337V304.5H173.34V300.49C173.34 300.016 173.217 299.645 172.97 299.378C172.722 299.108 172.383 298.973 171.951 298.973C171.656 298.973 171.393 299.037 171.163 299.165C170.936 299.293 170.755 299.48 170.622 299.727C170.491 299.972 170.426 300.267 170.426 300.614ZM179.144 304.632C178.499 304.632 177.944 304.494 177.478 304.219C177.015 303.94 176.657 303.55 176.404 303.047C176.154 302.541 176.029 301.949 176.029 301.27C176.029 300.599 176.154 300.009 176.404 299.497C176.657 298.986 177.009 298.587 177.461 298.3C177.916 298.013 178.447 297.869 179.055 297.869C179.424 297.869 179.782 297.93 180.129 298.053C180.475 298.175 180.786 298.366 181.062 298.628C181.338 298.889 181.555 299.229 181.714 299.646C181.873 300.061 181.953 300.565 181.953 301.159V301.611H176.749V300.656H180.704C180.704 300.321 180.636 300.024 180.499 299.766C180.363 299.504 180.171 299.298 179.924 299.148C179.68 298.997 179.393 298.922 179.063 298.922C178.705 298.922 178.393 299.01 178.126 299.186C177.862 299.359 177.657 299.587 177.512 299.868C177.37 300.146 177.299 300.449 177.299 300.776V301.521C177.299 301.959 177.376 302.331 177.529 302.638C177.686 302.945 177.903 303.179 178.181 303.341C178.46 303.5 178.785 303.58 179.157 303.58C179.399 303.58 179.619 303.545 179.818 303.477C180.017 303.406 180.188 303.301 180.333 303.162C180.478 303.023 180.589 302.851 180.666 302.646L181.872 302.864C181.775 303.219 181.602 303.53 181.352 303.797C181.105 304.061 180.794 304.267 180.419 304.415C180.046 304.56 179.622 304.632 179.144 304.632ZM186.187 304.632C185.542 304.632 184.987 304.494 184.521 304.219C184.058 303.94 183.7 303.55 183.447 303.047C183.197 302.541 183.072 301.949 183.072 301.27C183.072 300.599 183.197 300.009 183.447 299.497C183.7 298.986 184.052 298.587 184.504 298.3C184.959 298.013 185.49 297.869 186.098 297.869C186.467 297.869 186.825 297.93 187.172 298.053C187.518 298.175 187.829 298.366 188.105 298.628C188.381 298.889 188.598 299.229 188.757 299.646C188.916 300.061 188.996 300.565 188.996 301.159V301.611H183.792V300.656H187.747C187.747 300.321 187.679 300.024 187.542 299.766C187.406 299.504 187.214 299.298 186.967 299.148C186.723 298.997 186.436 298.922 186.106 298.922C185.748 298.922 185.436 299.01 185.169 299.186C184.905 299.359 184.7 299.587 184.555 299.868C184.413 300.146 184.342 300.449 184.342 300.776V301.521C184.342 301.959 184.419 302.331 184.572 302.638C184.729 302.945 184.946 303.179 185.224 303.341C185.503 303.5 185.828 303.58 186.2 303.58C186.442 303.58 186.662 303.545 186.861 303.477C187.059 303.406 187.231 303.301 187.376 303.162C187.521 303.023 187.632 302.851 187.709 302.646L188.915 302.864C188.818 303.219 188.645 303.53 188.395 303.797C188.148 304.061 187.836 304.267 187.461 304.415C187.089 304.56 186.665 304.632 186.187 304.632ZM190.409 304.5V297.955H191.641V298.994H191.709C191.828 298.642 192.039 298.365 192.34 298.163C192.644 297.959 192.987 297.857 193.371 297.857C193.45 297.857 193.544 297.859 193.652 297.865C193.763 297.871 193.85 297.878 193.912 297.886V299.105C193.861 299.091 193.77 299.075 193.639 299.058C193.509 299.038 193.378 299.028 193.247 299.028C192.946 299.028 192.678 299.092 192.442 299.22C192.209 299.345 192.024 299.52 191.888 299.744C191.752 299.966 191.683 300.219 191.683 300.503V304.5H190.409ZM195.015 304.5V297.955H196.289V304.5H195.015ZM195.658 296.945C195.437 296.945 195.246 296.871 195.087 296.723C194.931 296.572 194.853 296.393 194.853 296.186C194.853 295.976 194.931 295.797 195.087 295.649C195.246 295.499 195.437 295.423 195.658 295.423C195.88 295.423 196.069 295.499 196.225 295.649C196.384 295.797 196.464 295.976 196.464 296.186C196.464 296.393 196.384 296.572 196.225 296.723C196.069 296.871 195.88 296.945 195.658 296.945ZM199.277 300.614V304.5H198.003V297.955H199.226V299.02H199.307C199.458 298.673 199.693 298.395 200.014 298.185C200.338 297.974 200.746 297.869 201.237 297.869C201.683 297.869 202.074 297.963 202.409 298.151C202.744 298.335 203.004 298.611 203.189 298.977C203.374 299.344 203.466 299.797 203.466 300.337V304.5H202.192V300.49C202.192 300.016 202.068 299.645 201.821 299.378C201.574 299.108 201.235 298.973 200.803 298.973C200.507 298.973 200.244 299.037 200.014 299.165C199.787 299.293 199.607 299.48 199.473 299.727C199.343 299.972 199.277 300.267 199.277 300.614ZM207.919 307.091C207.399 307.091 206.952 307.023 206.577 306.886C206.205 306.75 205.901 306.57 205.665 306.345C205.429 306.121 205.253 305.875 205.137 305.608L206.232 305.156C206.308 305.281 206.411 305.413 206.539 305.553C206.669 305.695 206.845 305.815 207.067 305.915C207.291 306.014 207.58 306.064 207.932 306.064C208.415 306.064 208.814 305.946 209.129 305.71C209.445 305.477 209.602 305.105 209.602 304.594V303.307H209.521C209.445 303.446 209.334 303.601 209.189 303.771C209.047 303.942 208.851 304.089 208.601 304.214C208.351 304.339 208.026 304.402 207.625 304.402C207.108 304.402 206.642 304.281 206.227 304.04C205.816 303.795 205.489 303.436 205.247 302.962C205.009 302.484 204.889 301.898 204.889 301.202C204.889 300.506 205.007 299.909 205.243 299.412C205.482 298.915 205.808 298.534 206.223 298.27C206.638 298.003 207.108 297.869 207.634 297.869C208.04 297.869 208.368 297.938 208.618 298.074C208.868 298.207 209.063 298.364 209.202 298.543C209.344 298.722 209.453 298.879 209.53 299.016H209.624V297.955H210.872V304.645C210.872 305.207 210.742 305.669 210.48 306.03C210.219 306.391 209.865 306.658 209.419 306.831C208.976 307.004 208.476 307.091 207.919 307.091ZM207.906 303.345C208.273 303.345 208.583 303.26 208.835 303.089C209.091 302.916 209.284 302.669 209.415 302.348C209.548 302.024 209.615 301.636 209.615 301.185C209.615 300.744 209.55 300.357 209.419 300.021C209.289 299.686 209.097 299.425 208.844 299.237C208.591 299.047 208.279 298.952 207.906 298.952C207.523 298.952 207.203 299.051 206.948 299.25C206.692 299.446 206.499 299.713 206.368 300.051C206.24 300.389 206.176 300.767 206.176 301.185C206.176 301.614 206.242 301.99 206.372 302.314C206.503 302.638 206.696 302.891 206.952 303.072C207.21 303.254 207.529 303.345 207.906 303.345Z" fill="#0D1019"/>
<path d="M166.777 237.752C166.777 237.337 167.114 237 167.53 237C167.945 237 168.282 237.337 168.282 237.752V276.248C168.282 276.663 167.945 277 167.53 277C167.114 277 166.777 276.663 166.777 276.248V237.752Z" fill="url(#paint3_linear_1543_33126)"/>
<path d="M243.658 250.581C245.078 250.581 246.422 250.536 247.641 250.495C248.366 250.47 249.046 250.447 249.672 250.436C251.401 250.406 252.756 250.464 253.811 250.765C254.823 251.055 255.531 251.561 256.015 252.453C256.523 253.39 256.823 254.82 256.823 257.03L256.823 281.486C256.823 281.494 256.817 281.5 256.81 281.5C256.802 281.5 256.796 281.506 256.796 281.514L256.796 325.25C256.796 325.664 257.132 326 257.546 326C257.96 326 258.296 325.664 258.296 325.25L258.296 281.514C258.296 281.506 258.302 281.5 258.31 281.5C258.317 281.5 258.323 281.494 258.323 281.486L258.323 257.03C258.323 254.725 258.018 252.998 257.334 251.738C256.626 250.434 255.556 249.705 254.224 249.323C252.933 248.954 251.377 248.906 249.646 248.936C248.969 248.948 248.269 248.972 247.538 248.997C246.345 249.038 245.065 249.081 243.658 249.081L198.766 249.082C194.484 249.082 192.109 248.651 190.786 247.823C189.58 247.07 189.14 245.905 189.079 243.863C189.005 241.395 189.028 240.264 189.053 239.079C189.062 238.663 189.071 238.24 189.076 237.75C189.08 237.336 188.743 237 188.329 237C187.915 237 187.58 237.336 187.575 237.75C187.571 238.204 187.562 238.607 187.554 239.009C187.529 240.216 187.505 241.407 187.579 243.908C187.646 246.134 188.148 247.943 189.991 249.095C191.716 250.174 194.496 250.582 198.766 250.582L243.658 250.581Z" fill="url(#paint4_linear_1543_33126)"/>
<path d="M90.8946 250.581C89.4745 250.581 88.1306 250.536 86.9116 250.495C86.187 250.47 85.5065 250.447 84.8805 250.436C83.1524 250.406 81.7966 250.464 80.7419 250.765C79.7296 251.055 79.0219 251.561 78.5375 252.453C78.0295 253.39 77.7296 254.82 77.7296 257.03L77.7296 281.486C77.7296 281.494 77.7357 281.5 77.7433 281.5C77.7509 281.5 77.757 281.506 77.757 281.514L77.757 325.25C77.757 325.664 77.4212 326 77.007 326C76.5928 326 76.257 325.664 76.257 325.25L76.257 281.514C76.257 281.506 76.2509 281.5 76.2433 281.5C76.2357 281.5 76.2296 281.494 76.2296 281.486L76.2296 257.03C76.2296 254.725 76.5353 252.998 77.2191 251.738C77.9265 250.434 78.9968 249.705 80.3293 249.323C81.6196 248.954 83.1757 248.906 84.907 248.936C85.584 248.948 86.2835 248.972 87.0154 248.997C88.208 249.038 89.4875 249.081 90.8946 249.081L135.787 249.082C140.069 249.082 142.444 248.651 143.767 247.823C144.972 247.07 145.413 245.905 145.474 243.863C145.548 241.395 145.524 240.264 145.5 239.079C145.491 238.663 145.482 238.24 145.477 237.75C145.473 237.336 145.809 237 146.224 237C146.638 237 146.973 237.336 146.977 237.75C146.982 238.204 146.99 238.607 146.999 239.009C147.024 240.216 147.048 241.407 146.973 243.908C146.907 246.134 146.405 247.943 144.562 249.095C142.836 250.174 140.057 250.582 135.787 250.582L90.8946 250.581Z" fill="url(#paint5_linear_1543_33126)"/>
<path d="M257.252 68.1234C255.292 68.1234 253.698 69.7085 253.698 71.6702C253.698 73.6319 255.292 75.217 257.252 75.217C259.212 75.217 260.806 73.6319 260.806 71.6702C260.806 69.7085 259.212 68.1234 257.252 68.1234Z" fill="#FF0000" stroke="white" stroke-width="2.0932"/>
<path d="M257.586 281.307C255.626 281.307 254.032 282.892 254.032 284.853C254.032 286.815 255.626 288.4 257.586 288.4C259.546 288.4 261.14 286.815 261.14 284.853C261.14 282.892 259.546 281.307 257.586 281.307Z" fill="#FF0000" stroke="white" stroke-width="2.0932"/>
<path d="M167.528 256.371C165.568 256.371 163.974 257.956 163.974 259.918C163.974 261.88 165.568 263.465 167.528 263.465C169.488 263.465 171.082 261.88 171.082 259.918C171.082 257.956 169.488 256.371 167.528 256.371Z" fill="#FF0000" stroke="white" stroke-width="2.0932"/>
<path d="M77.0452 281.001C75.0852 281.001 73.4912 282.586 73.4912 284.548C73.4912 286.509 75.0852 288.094 77.0452 288.094C79.0053 288.094 80.5993 286.509 80.5993 284.548C80.5993 282.586 79.0053 281.001 77.0452 281.001Z" fill="#FF0000" stroke="white" stroke-width="2.0932"/>
<path d="M167.25 100.289C165.29 100.289 163.696 101.874 163.696 103.836C163.696 105.798 165.29 107.383 167.25 107.383C169.21 107.383 170.804 105.798 170.804 103.836C170.804 101.874 169.21 100.289 167.25 100.289Z" fill="#FF0000" stroke="white" stroke-width="2.0932"/>
<path d="M76.68 92.8044C74.72 92.8044 73.1259 94.3895 73.1259 96.3512C73.1259 98.3129 74.72 99.898 76.68 99.898C78.64 99.898 80.2341 98.3129 80.2341 96.3512C80.2341 94.3895 78.64 92.8044 76.68 92.8044Z" fill="#FF0000" stroke="white" stroke-width="2.0932"/>
<path d="M145.641 153.043C157.437 146.231 176.563 146.231 188.359 153.043L232.614 178.598C244.41 185.41 244.41 196.454 232.614 203.265L188.359 228.821C176.563 235.632 157.437 235.632 145.641 228.821L101.386 203.265C89.5902 196.454 89.5902 185.41 101.386 178.598L145.641 153.043Z" fill="#CD3535"/>
<path d="M92.5156 181.245L92.5156 190.896L101.259 196.759L101.259 181.245L92.5156 181.245Z" fill="#CD3535"/>
<path d="M241.482 180.72L241.482 190.372L232.739 196.234L232.739 180.72L241.482 180.72Z" fill="#CD3535"/>
<rect width="100.432" height="100.432" rx="24.6639" transform="matrix(0.865987 0.500067 -0.865987 0.500067 167 130.861)" fill="#F82727"/>
<path d="M174.54 190.781C176.315 191.806 179.171 191.818 180.918 190.809C182.666 189.799 182.645 188.15 180.87 187.126C179.095 186.101 176.239 186.088 174.491 187.097C172.743 188.107 172.765 189.756 174.54 190.781Z" fill="#FF0000"/>
<path d="M147.812 162.62L151.046 164.488L145.434 167.729L145.468 167.748L154.656 166.572L158.044 168.529L147.632 169.698L145.846 175.887L142.064 173.703L143.999 168.593L143.965 168.573L138.573 171.687L135.342 169.821L147.812 162.62Z" fill="white"/>
<path d="M158.98 169.073L161.82 170.713L157.844 173.009L157.878 173.029C158.545 172.921 159.186 172.941 159.806 173.091C160.425 173.241 160.991 173.464 161.505 173.761C161.733 173.893 161.947 174.039 162.148 174.2C162.35 174.361 162.52 174.532 162.665 174.712C162.809 174.893 162.919 175.079 162.995 175.272C163.072 175.464 163.094 175.656 163.063 175.846C163.031 176.101 162.962 176.326 162.85 176.521C162.739 176.717 162.582 176.911 162.375 177.103C162.167 177.295 161.913 177.488 161.61 177.683C161.307 177.877 160.948 178.095 160.531 178.335L155.307 181.352L152.467 179.712L157.556 176.773C157.668 176.709 157.826 176.608 158.027 176.472C158.23 176.335 158.391 176.18 158.513 176.004C158.635 175.828 158.673 175.633 158.624 175.416C158.576 175.2 158.365 174.984 157.988 174.766C157.589 174.535 157.205 174.402 156.836 174.364C156.468 174.327 156.134 174.338 155.835 174.4C155.537 174.461 155.273 174.547 155.049 174.656C154.824 174.767 154.656 174.854 154.544 174.918L149.354 177.916L146.514 176.276L158.984 169.075L158.98 169.073Z" fill="white"/>
<path d="M166.847 188.011L164.007 186.371L165.018 185.787L164.985 185.768C164.635 185.825 164.277 185.846 163.916 185.832C163.553 185.817 163.19 185.771 162.827 185.69C162.465 185.609 162.118 185.503 161.787 185.372C161.458 185.24 161.154 185.095 160.88 184.937C160.127 184.502 159.589 184.035 159.265 183.537C158.941 183.038 158.807 182.539 158.864 182.04C158.92 181.541 159.14 181.054 159.525 180.582C159.91 180.11 160.439 179.679 161.112 179.29C161.877 178.849 162.697 178.526 163.579 178.321C164.459 178.116 165.332 178.014 166.198 178.014C167.062 178.015 167.9 178.115 168.706 178.314C169.513 178.514 170.235 178.798 170.873 179.166C171.26 179.39 171.567 179.615 171.79 179.842C172.012 180.069 172.173 180.285 172.273 180.491C172.372 180.698 172.419 180.887 172.417 181.06C172.414 181.234 172.384 181.388 172.329 181.525L172.363 181.545L173.357 180.97L176.197 182.61L166.845 188.01L166.847 188.011ZM163.917 180.948C163.692 181.078 163.488 181.245 163.304 181.45C163.121 181.656 163.003 181.882 162.949 182.13C162.895 182.378 162.934 182.635 163.07 182.9C163.203 183.165 163.487 183.424 163.92 183.674C164.353 183.924 164.82 184.099 165.286 184.18C165.752 184.26 166.199 184.286 166.628 184.254C167.057 184.223 167.452 184.15 167.813 184.035C168.174 183.918 168.466 183.796 168.691 183.666C168.973 183.504 169.204 183.314 169.389 183.096C169.572 182.879 169.68 182.644 169.71 182.396C169.74 182.148 169.673 181.896 169.514 181.641C169.351 181.385 169.071 181.142 168.672 180.912C168.273 180.681 167.834 180.517 167.391 180.436C166.949 180.356 166.514 180.328 166.083 180.352C165.652 180.376 165.252 180.443 164.88 180.552C164.508 180.662 164.187 180.794 163.917 180.95L163.917 180.948Z" fill="white"/>
<path d="M172.694 185.979C173.267 185.648 173.953 185.373 174.754 185.154C175.555 184.936 176.404 184.811 177.305 184.779C178.204 184.746 179.125 184.828 180.068 185.022C181.01 185.216 181.914 185.563 182.78 186.063C183.646 186.563 184.249 187.086 184.584 187.63C184.92 188.174 185.059 188.705 185.004 189.225C184.949 189.745 184.732 190.235 184.354 190.698C183.976 191.161 183.499 191.557 182.926 191.888C182.353 192.219 181.667 192.494 180.866 192.712C180.065 192.931 179.215 193.056 178.315 193.088C177.414 193.12 176.494 193.039 175.552 192.845C174.609 192.651 173.705 192.304 172.839 191.804C171.973 191.304 171.371 190.78 171.036 190.237C170.7 189.693 170.56 189.162 170.616 188.642C170.671 188.122 170.888 187.631 171.266 187.169C171.644 186.706 172.121 186.31 172.694 185.979ZM175.533 187.619C175.197 187.813 174.941 188.029 174.768 188.268C174.597 188.505 174.511 188.744 174.514 188.987C174.517 189.229 174.596 189.463 174.753 189.688C174.909 189.915 175.142 190.117 175.449 190.294C175.757 190.472 176.106 190.606 176.499 190.696C176.891 190.786 177.294 190.833 177.714 190.835C178.134 190.836 178.549 190.788 178.959 190.688C179.371 190.589 179.745 190.441 180.083 190.246C180.421 190.051 180.675 189.836 180.848 189.597C181.02 189.359 181.104 189.119 181.102 188.878C181.099 188.636 181.02 188.402 180.863 188.176C180.707 187.95 180.475 187.748 180.167 187.57C179.859 187.393 179.51 187.258 179.118 187.168C178.725 187.078 178.32 187.033 177.902 187.03C177.484 187.027 177.067 187.077 176.657 187.177C176.245 187.276 175.871 187.423 175.533 187.619Z" fill="white"/>
<path d="M190.15 193.703C190.195 193.677 190.251 193.635 190.318 193.577C190.386 193.518 190.427 193.452 190.443 193.376C190.458 193.301 190.435 193.212 190.37 193.111C190.307 193.009 190.173 192.899 189.968 192.781C189.672 192.61 189.391 192.532 189.124 192.547C188.858 192.563 188.663 192.607 188.54 192.678C188.282 192.827 188.226 193.031 188.37 193.289C188.515 193.548 188.718 193.819 188.984 194.101C189.271 194.396 189.549 194.697 189.82 195.002C190.089 195.307 190.276 195.611 190.374 195.916C190.473 196.22 190.457 196.522 190.325 196.823C190.193 197.124 189.875 197.419 189.369 197.712C188.862 198.004 188.328 198.194 187.73 198.302C187.132 198.411 186.517 198.442 185.888 198.397C185.26 198.352 184.637 198.236 184.026 198.051C183.411 197.865 182.843 197.62 182.319 197.317C181.954 197.106 181.605 196.853 181.273 196.557C180.941 196.261 180.705 195.937 180.564 195.584C180.423 195.23 180.415 194.859 180.541 194.47C180.665 194.082 181.004 193.689 181.551 193.293L184.374 194.923C184.194 195.066 184.097 195.202 184.082 195.328C184.067 195.456 184.094 195.568 184.162 195.667C184.232 195.765 184.312 195.848 184.402 195.913C184.493 195.979 184.556 196.021 184.59 196.041C184.83 196.18 185.12 196.272 185.46 196.32C185.801 196.367 186.082 196.326 186.307 196.196C186.487 196.092 186.588 195.981 186.608 195.864C186.629 195.747 186.591 195.6 186.492 195.427C186.394 195.253 186.24 195.041 186.034 194.793C185.826 194.544 185.58 194.239 185.291 193.878C185.085 193.641 184.918 193.402 184.79 193.159C184.663 192.916 184.596 192.678 184.594 192.442C184.591 192.208 184.659 191.981 184.799 191.762C184.937 191.543 185.164 191.344 185.479 191.162C185.939 190.896 186.46 190.711 187.042 190.605C187.623 190.5 188.217 190.465 188.824 190.504C189.43 190.543 190.029 190.648 190.619 190.821C191.21 190.993 191.75 191.221 192.241 191.504C192.549 191.682 192.862 191.909 193.183 192.184C193.504 192.46 193.736 192.764 193.883 193.095C194.028 193.425 194.048 193.781 193.939 194.158C193.832 194.537 193.498 194.921 192.935 195.31L190.146 193.7L190.15 193.703Z" fill="white"/>
<rect opacity="0.02" width="70.0765" height="70.0765" rx="24.6639" transform="matrix(0.865987 0.500067 -0.865987 0.500067 167 146.041)" fill="white"/>
<rect opacity="0.02" width="79.7545" height="79.7545" rx="24.6639" transform="matrix(0.865987 0.500067 -0.865987 0.500067 167 141.202)" fill="white"/>
<rect opacity="0.04" width="91.57" height="91.57" rx="24.6639" transform="matrix(0.865987 0.500067 -0.865987 0.500067 167 135.293)" fill="white"/>
<rect opacity="0.04" width="60.1313" height="60.1313" rx="24.6639" transform="matrix(0.865987 0.500067 -0.865987 0.500067 167 151.015)" fill="white"/>
<rect opacity="0.05" width="49.8023" height="49.8023" rx="24.6639" transform="matrix(0.865987 0.500067 -0.865987 0.500067 167 156.18)" fill="white"/>
<rect opacity="0.06" width="35.5214" height="35.5214" rx="17.7607" transform="matrix(0.865987 0.500067 -0.865987 0.500067 167 163.321)" fill="white"/>
<defs>
<linearGradient id="paint0_linear_1543_33126" x1="167.88" y1="91.0074" x2="171.211" y2="136.521" gradientUnits="userSpaceOnUse">
<stop stop-color="#DFDFDF"/>
<stop offset="1" stop-color="#DFDFDF" stop-opacity="0"/>
</linearGradient>
<linearGradient id="paint1_linear_1543_33126" x1="231.496" y1="86.9991" x2="221.982" y2="140.498" gradientUnits="userSpaceOnUse">
<stop stop-color="#DFDFDF"/>
<stop offset="1" stop-color="#DFDFDF" stop-opacity="0"/>
</linearGradient>
<linearGradient id="paint2_linear_1543_33126" x1="94.001" y1="95" x2="158.49" y2="136.015" gradientUnits="userSpaceOnUse">
<stop stop-color="#DFDFDF"/>
<stop offset="1" stop-color="#DFDFDF" stop-opacity="0"/>
</linearGradient>
<linearGradient id="paint3_linear_1543_33126" x1="168.004" y1="251.5" x2="167.948" y2="236" gradientUnits="userSpaceOnUse">
<stop stop-color="#DFDFDF"/>
<stop offset="1" stop-color="#DFDFDF" stop-opacity="0"/>
</linearGradient>
<linearGradient id="paint4_linear_1543_33126" x1="257.994" y1="278.509" x2="178.49" y2="217.012" gradientUnits="userSpaceOnUse">
<stop stop-color="#DFDFDF"/>
<stop offset="1" stop-color="#DFDFDF" stop-opacity="0"/>
</linearGradient>
<linearGradient id="paint5_linear_1543_33126" x1="77.4954" y1="325.998" x2="163.008" y2="219.007" gradientUnits="userSpaceOnUse">
<stop stop-color="#DFDFDF"/>
<stop offset="1" stop-color="#DFDFDF" stop-opacity="0"/>
</linearGradient>
<clipPath id="clip0_1543_33126">
<rect width="15.9999" height="15.9999" fill="white" transform="translate(201 10)"/>
</clipPath>
<clipPath id="clip1_1543_33126">
<rect width="16" height="16" fill="white" transform="translate(23 10)"/>
</clipPath>
<clipPath id="clip2_1543_33126">
<rect width="16" height="16.0002" fill="white" transform="translate(16.5 341)"/>
</clipPath>
<clipPath id="clip3_1543_33126">
<rect width="16" height="15.9994" fill="white" transform="translate(130 59.0004)"/>
</clipPath>
<clipPath id="clip4_1543_33126">
<rect width="16" height="16.0002" fill="white" transform="translate(122.498 292)"/>
</clipPath>
</defs>
</svg>
