<svg width="120" height="42" viewBox="0 0 120 42" fill="none" xmlns="http://www.w3.org/2000/svg">
<path d="M100.688 2.43958H94.8691C94.5137 2.43958 94.2617 2.78618 94.3712 3.12428L103.375 30.9261C103.445 31.142 103.646 31.2882 103.873 31.2882H109.548C109.771 31.2882 109.969 31.1475 110.042 30.9375L119.757 3.13567C119.876 2.79539 119.623 2.43958 119.263 2.43958H113.14C112.916 2.43958 112.716 2.58237 112.644 2.79466L107.512 17.9047C107.439 18.117 107.24 18.2598 107.016 18.2598H106.577C106.35 18.2598 106.149 18.1136 106.079 17.8978L101.186 2.80161C101.116 2.58576 100.915 2.43958 100.688 2.43958Z" fill="#4D4D4D"/>
<path d="M1.69716 3.41921L0 30.3818C0 30.82 0.355231 31.1752 0.793429 31.1752H5.68638C6.23325 31.1752 6.68797 30.7543 6.73013 30.209L7.28831 22.9897C7.31688 22.6203 7.62501 22.335 7.99559 22.335C8.29454 22.335 8.56141 22.5224 8.66288 22.8037L11.4453 30.5154C11.5958 30.9323 11.9924 31.2093 12.4356 31.207L17.7174 31.179C18.1552 31.1767 18.5454 30.9021 18.6954 30.4907L21.1995 23.6216C21.316 23.3022 21.6197 23.0896 21.9597 23.0896C22.3861 23.0896 22.7394 23.4205 22.7672 23.846L23.1824 30.2017C23.2182 30.7501 23.6719 31.1774 24.2215 31.1803L28.8955 31.205C29.4998 31.2082 29.9813 30.7005 29.9461 30.0972L28.3902 3.42402C28.3579 2.87047 27.8996 2.43811 27.3451 2.43811H22.098C21.6537 2.43811 21.2577 2.71861 21.1104 3.13781L15.8789 18.0205C15.7571 18.367 15.4298 18.5988 15.0626 18.5988C14.7003 18.5988 14.3764 18.3731 14.2509 18.0332L8.74641 3.12243C8.59461 2.71121 8.20268 2.43811 7.76433 2.43811H2.74196C2.18933 2.43811 1.73188 2.86767 1.69716 3.41921Z" fill="#4D4D4D"/>
<path fill-rule="evenodd" clip-rule="evenodd" d="M46.382 41.5008C46.4023 41.7726 46.6234 42 46.9011 42C47.1788 42 47.3999 41.7726 47.4202 41.5008C47.5919 39.2124 49.5849 33.8354 56.7108 26.9832C61.1119 22.7481 67.0911 11.9875 55.7993 2.82581C54.5421 1.89115 51.098 0.06775 47.1106 0.00183693L47.1104 0.00164817L47.1102 0.00145943C47.0404 0.000421676 46.9707 -5.83038e-05 46.9011 5.63417e-06C46.8315 -5.83039e-05 46.7618 0.000421676 46.692 0.00145943L46.6918 0.00164817L46.6916 0.00183693C42.7042 0.06775 39.2601 1.89115 38.0029 2.82581C26.7111 11.9875 32.6903 22.7481 37.0914 26.9832C44.2173 33.8354 46.2103 39.2124 46.382 41.5008ZM46.9011 20.562C50.1388 20.562 52.7636 17.9864 52.7636 14.8092C52.7636 11.6319 50.1388 9.0563 46.9011 9.0563C43.6634 9.0563 41.0386 11.6319 41.0386 14.8092C41.0386 17.9864 43.6634 20.562 46.9011 20.562Z" fill="#4D4D4D"/>
<path fill-rule="evenodd" clip-rule="evenodd" d="M79.9686 29.7917C88.3521 29.7917 95.1482 23.1226 95.1482 14.8958C95.1482 6.66909 88.3521 0 79.9686 0C71.5852 0 64.7891 6.66909 64.7891 14.8958C64.7891 23.1226 71.5852 29.7917 79.9686 29.7917ZM79.9689 20.6487C83.2066 20.6487 85.8314 18.073 85.8314 14.8958C85.8314 11.7186 83.2066 9.14295 79.9689 9.14295C76.7312 9.14295 74.1064 11.7186 74.1064 14.8958C74.1064 18.073 76.7312 20.6487 79.9689 20.6487Z" fill="#4D4D4D"/>
</svg>
