<svg width="64" height="64" viewBox="0 0 64 64" fill="none" xmlns="http://www.w3.org/2000/svg">
<rect x="1" y="1" width="62" height="62" rx="31" fill="white" stroke="white" stroke-width="2"/>
<rect x="8.75" y="8.75" width="46.5" height="46.5" rx="23.25" fill="white" stroke="#E8E8E8" stroke-width="1.5"/>
<path d="M26.5898 39V36.9062L32.1445 31.4609C32.6758 30.9245 33.1185 30.4479 33.4727 30.0312C33.8268 29.6146 34.0924 29.2109 34.2695 28.8203C34.4466 28.4297 34.5352 28.013 34.5352 27.5703C34.5352 27.0651 34.4206 26.6328 34.1914 26.2734C33.9622 25.9089 33.6471 25.6276 33.2461 25.4297C32.8451 25.2318 32.3893 25.1328 31.8789 25.1328C31.3529 25.1328 30.8919 25.2422 30.4961 25.4609C30.1003 25.6745 29.793 25.9792 29.5742 26.375C29.3607 26.7708 29.2539 27.2422 29.2539 27.7891H26.4961C26.4961 26.7734 26.7279 25.8906 27.1914 25.1406C27.6549 24.3906 28.293 23.8099 29.1055 23.3984C29.9232 22.987 30.8607 22.7812 31.918 22.7812C32.9909 22.7812 33.9336 22.9818 34.7461 23.3828C35.5586 23.7839 36.1888 24.3333 36.6367 25.0312C37.0898 25.7292 37.3164 26.526 37.3164 27.4219C37.3164 28.0208 37.2018 28.6094 36.9727 29.1875C36.7435 29.7656 36.3398 30.4062 35.7617 31.1094C35.1888 31.8125 34.3841 32.6641 33.3477 33.6641L30.5898 36.4687V36.5781H37.5586V39H26.5898Z" fill="#0D1019"/>
</svg>
