<svg width="422" height="422" viewBox="0 0 422 422" fill="none" xmlns="http://www.w3.org/2000/svg">
<path opacity="0.85" d="M211 421C326.98 421 421 326.98 421 211C421 95.0202 326.98 1 211 1C95.0203 1 1 95.0202 1 211C1 326.98 95.0203 421 211 421Z" stroke="#CBCBCB" stroke-opacity="0.5" stroke-width="0.531657" stroke-miterlimit="10"/>
<path opacity="0.85" d="M211.003 403.799C317.483 403.799 403.801 317.481 403.801 211.001C403.801 104.522 317.483 18.2028 211.003 18.2028C104.524 18.2028 18.2051 104.522 18.2051 211.001C18.2051 317.481 104.524 403.799 211.003 403.799Z" stroke="#CBCBCB" stroke-opacity="0.5" stroke-width="0.658263" stroke-miterlimit="10"/>
<path opacity="0.79" d="M210.007 383.277C306.972 383.277 385.577 304.672 385.577 207.707C385.577 110.742 306.972 32.1371 210.007 32.1371C113.043 32.1371 34.4375 110.742 34.4375 207.707C34.4375 304.672 113.043 383.277 210.007 383.277Z" stroke="#CBCBCB" stroke-opacity="0.5" stroke-width="0.784869" stroke-miterlimit="10"/>
<path opacity="0.79" d="M212.006 369.342C299.455 369.342 370.347 298.45 370.347 211.001C370.347 123.551 299.455 52.6592 212.006 52.6592C124.556 52.6592 53.6641 123.551 53.6641 211.001C53.6641 298.45 124.556 369.342 212.006 369.342Z" stroke="#CBCBCB" stroke-opacity="0.5" stroke-width="0.911475" stroke-miterlimit="10"/>
<path opacity="0.79" d="M211.999 352.114C289.934 352.114 353.112 288.935 353.112 211C353.112 133.066 289.934 69.8872 211.999 69.8872C134.064 69.8872 70.8857 133.066 70.8857 211C70.8857 288.935 134.064 352.114 211.999 352.114Z" stroke="#CBCBCB" stroke-opacity="0.5" stroke-width="1.03803" stroke-miterlimit="10"/>
<path opacity="0.79" d="M212.002 334.886C280.422 334.886 335.887 279.421 335.887 211.001C335.887 142.582 280.422 87.1165 212.002 87.1165C143.582 87.1165 88.1172 142.582 88.1172 211.001C88.1172 279.421 143.582 334.886 212.002 334.886Z" stroke="#CBCBCB" stroke-opacity="0.5" stroke-width="1.16463" stroke-miterlimit="10"/>
<path opacity="0.79" d="M212 317.655C270.905 317.655 318.657 269.904 318.657 210.999C318.657 152.094 270.905 104.342 212 104.342C153.095 104.342 105.344 152.094 105.344 210.999C105.344 269.904 153.095 317.655 212 317.655Z" stroke="#CBCBCB" stroke-opacity="0.5" stroke-width="1.29124" stroke-miterlimit="10"/>
<path opacity="0.79" d="M212.003 300.428C261.393 300.428 301.432 260.39 301.432 211C301.432 161.61 261.393 121.572 212.003 121.572C162.614 121.572 122.575 161.61 122.575 211C122.575 260.39 162.614 300.428 212.003 300.428Z" stroke="#CBCBCB" stroke-opacity="0.5" stroke-width="1.41779" stroke-miterlimit="10"/>
<path opacity="0.79" d="M212 284C252.317 284 285 251.317 285 211.001C285 170.684 252.317 138 212 138C171.683 138 139 170.684 139 211.001C139 251.317 171.683 284 212 284Z" stroke="#CBCBCB" stroke-opacity="0.5" stroke-width="1.41779" stroke-miterlimit="10"/>
<rect x="327.501" y="194.5" width="79" height="79" rx="15.5" fill="#FAFAFA" fill-opacity="0.8"/>
<g clip-path="url(#clip0_1482_32981)">
<path d="M392.303 218.409V248.711L379.653 258.916L360.045 251.884V258.853L348.944 244.573L381.302 247.061V219.779L392.303 218.409ZM381.522 219.94L363.364 209.078V216.2L346.698 221.023L341.702 227.335V241.679L348.852 244.789V226.406L381.522 219.94Z" fill="url(#paint0_linear_1482_32981)"/>
</g>
<rect x="327.501" y="194.5" width="79" height="79" rx="15.5" stroke="#F5F5F5"/>
<rect x="129.499" y="294.501" width="79" height="79" rx="15.5" fill="#FAFAFA" fill-opacity="0.8"/>
<g clip-path="url(#clip1_1482_32981)">
<path d="M154.515 340.508C154.515 343.405 152.174 345.746 149.277 345.746C146.38 345.746 144.039 343.405 144.039 340.508C144.039 337.611 146.38 335.27 149.277 335.27H154.515V340.508L154.515 340.508ZM157.134 340.508C157.134 337.611 159.476 335.27 162.372 335.27C165.269 335.27 167.611 337.611 167.611 340.508V353.603C167.611 356.5 165.269 358.842 162.372 358.842C159.476 358.842 157.134 356.5 157.134 353.603V340.508Z" fill="#E01E5A"/>
<path d="M162.373 319.477C159.476 319.477 157.135 317.135 157.135 314.239C157.135 311.342 159.476 309 162.373 309C165.27 309 167.611 311.342 167.611 314.239V319.477H162.373L162.373 319.477ZM162.373 322.135C165.27 322.135 167.611 324.477 167.611 327.374C167.611 330.27 165.27 332.612 162.373 332.612H149.238C146.341 332.612 144 330.27 144 327.373C144 324.477 146.341 322.135 149.238 322.135H162.373Z" fill="#36C5F0"/>
<path d="M183.365 327.374C183.365 324.477 185.706 322.135 188.603 322.135C191.5 322.135 193.841 324.477 193.841 327.374C193.841 330.27 191.5 332.612 188.603 332.612H183.365V327.374ZM180.746 327.374C180.746 330.27 178.404 332.612 175.507 332.612C172.611 332.612 170.27 330.27 170.27 327.373V314.239C170.27 311.342 172.611 309 175.507 309C178.404 309 180.746 311.342 180.746 314.239V327.373L180.746 327.374Z" fill="#2EB67D"/>
<path d="M175.507 348.366C178.404 348.366 180.746 350.707 180.746 353.604C180.746 356.501 178.404 358.842 175.507 358.842C172.611 358.842 170.27 356.501 170.27 353.604V348.366H175.507ZM175.507 345.747C172.611 345.747 170.27 343.405 170.27 340.508C170.27 337.612 172.611 335.271 175.508 335.271H188.642C191.539 335.271 193.881 337.612 193.881 340.509C193.881 343.405 191.539 345.747 188.642 345.747H175.507Z" fill="#ECB22E"/>
</g>
<rect x="129.499" y="294.501" width="79" height="79" rx="15.5" stroke="#F5F5F5"/>
<rect x="224.5" y="25.0015" width="79" height="79.0002" rx="15.5" fill="#FAFAFA" fill-opacity="0.8"/>
<g clip-path="url(#clip2_1482_32981)">
<path d="M270.887 57.2068H282.695C283.811 57.2068 284.715 58.1113 284.715 59.2268V69.9824C284.715 74.0824 281.391 77.4063 277.291 77.4063H277.256C273.156 77.4069 269.832 74.0836 269.831 69.9834V58.2627C269.831 58.124 269.858 57.9867 269.911 57.8586C269.964 57.7305 270.042 57.6141 270.14 57.5161C270.238 57.418 270.355 57.3402 270.483 57.2872C270.611 57.2341 270.748 57.2068 270.887 57.2068Z" fill="#5059C9"/>
<path d="M278.868 55.0807C281.51 55.0807 283.652 52.9388 283.652 50.2966C283.652 47.6544 281.51 45.5125 278.868 45.5125C276.226 45.5125 274.084 47.6544 274.084 50.2966C274.084 52.9388 276.226 55.0807 278.868 55.0807Z" fill="#5059C9"/>
<path d="M263.983 55.0803C267.799 55.0803 270.893 51.9864 270.893 48.1699C270.893 44.3534 267.799 41.2595 263.983 41.2595C260.166 41.2595 257.072 44.3534 257.072 48.1699C257.072 51.9864 260.166 55.0803 263.983 55.0803Z" fill="#7B83EB"/>
<path d="M273.197 57.2067H253.706C252.604 57.234 251.732 58.1488 251.757 59.2511V71.5185C251.603 78.1335 256.837 83.623 263.452 83.785C270.066 83.623 275.3 78.1335 275.146 71.5185V59.2511C275.172 58.1488 274.3 57.234 273.197 57.2067Z" fill="#7B83EB"/>
<path opacity="0.1" d="M264.514 57.2067V74.3974C264.512 74.783 264.395 75.1592 264.18 75.4789C263.964 75.7986 263.659 76.0474 263.302 76.1942C263.07 76.2924 262.821 76.343 262.569 76.343H252.692C252.554 75.9921 252.426 75.6412 252.32 75.2799C251.948 74.06 251.758 72.7918 251.756 71.5164V59.2479C251.731 58.1474 252.601 57.234 253.702 57.2068H264.514L264.514 57.2067Z" fill="black"/>
<path opacity="0.2" d="M263.451 57.2067V75.4606C263.451 75.7126 263.4 75.9621 263.302 76.1942C263.155 76.5508 262.906 76.856 262.586 77.0716C262.267 77.2872 261.891 77.4036 261.505 77.4062H253.192C253.011 77.0553 252.841 76.7044 252.692 76.343C252.549 75.9955 252.425 75.6407 252.32 75.2799C251.948 74.06 251.758 72.7918 251.756 71.5164V59.2479C251.731 58.1474 252.601 57.234 253.702 57.2068H263.451L263.451 57.2067Z" fill="black"/>
<path opacity="0.2" d="M263.453 57.2065V73.3343C263.445 74.4053 262.578 75.2718 261.507 75.2798H252.322C251.95 74.0599 251.76 72.7917 251.758 71.5162V59.2478C251.733 58.1473 252.603 57.2339 253.704 57.2067L263.453 57.2065Z" fill="black"/>
<path opacity="0.2" d="M262.39 57.2065V73.3343C262.381 74.4053 261.515 75.2718 260.444 75.2798H252.322C251.95 74.0599 251.76 72.7917 251.758 71.5162V59.2478C251.733 58.1473 252.603 57.2339 253.704 57.2067L262.39 57.2065Z" fill="black"/>
<path opacity="0.1" d="M264.515 51.7106V55.0593C264.334 55.07 264.164 55.0807 263.984 55.0807C263.803 55.0807 263.633 55.07 263.452 55.0593C263.093 55.0355 262.737 54.9786 262.389 54.8893C261.328 54.638 260.341 54.139 259.509 53.4331C258.678 52.7273 258.025 51.8347 257.605 50.8282C257.458 50.4854 257.344 50.1294 257.265 49.765H262.57C263.642 49.7691 264.511 50.6377 264.515 51.7106Z" fill="black"/>
<path opacity="0.2" d="M263.451 52.7728V55.0585C263.093 55.0347 262.737 54.9778 262.388 54.8885C261.327 54.6371 260.34 54.1381 259.509 53.4323C258.677 52.7264 258.025 51.8338 257.604 50.8274H261.506C262.579 50.8313 263.447 51.7001 263.451 52.7728Z" fill="black"/>
<path opacity="0.2" d="M263.451 52.7728V55.0585C263.093 55.0347 262.737 54.9778 262.388 54.8885C261.327 54.6371 260.34 54.1381 259.509 53.4323C258.677 52.7264 258.025 51.8338 257.604 50.8274H261.506C262.579 50.8313 263.447 51.7001 263.451 52.7728Z" fill="black"/>
<path opacity="0.2" d="M262.389 52.7729V54.8887C261.327 54.6373 260.34 54.1383 259.509 53.4324C258.677 52.7265 258.025 51.8339 257.604 50.8274H260.443C261.516 50.8315 262.384 51.7003 262.389 52.7729Z" fill="black"/>
<path d="M240.949 50.8277H260.44C261.516 50.8277 262.389 51.7002 262.389 52.7764V72.2678C262.389 73.344 261.516 74.2165 260.44 74.2165H240.949C239.873 74.2165 239 73.344 239 72.2678V52.7766C239 51.7 239.873 50.8277 240.949 50.8277Z" fill="url(#paint1_linear_1482_32981)"/>
<path d="M255.823 58.2466H251.927V68.8566H249.445V58.2466H245.566V56.1884H255.823V58.2466Z" fill="white"/>
</g>
<rect x="224.5" y="25.0015" width="79" height="79.0002" rx="15.5" stroke="#F5F5F5"/>
<rect x="27.5" y="123.501" width="79" height="79.0002" rx="15.5" fill="#FAFAFA" fill-opacity="0.8"/>
<g clip-path="url(#clip3_1482_32981)">
<path d="M89.7863 138.001H65.7725C65.7725 140.876 66.9146 143.633 68.9475 145.666C70.9804 147.699 73.7377 148.841 76.6127 148.841H81.0363V153.112C81.0402 159.094 85.8881 163.942 91.8695 163.946V140.084C91.8695 138.934 90.9371 138.001 89.7863 138.001Z" fill="#2684FF"/>
<path d="M77.9043 149.966H53.8906C53.8943 155.947 58.7422 160.795 64.7238 160.799H69.1475V165.084C69.1551 171.066 74.0063 175.91 79.9877 175.91V152.05C79.9877 150.899 79.0549 149.966 77.9043 149.966Z" fill="url(#paint2_linear_1482_32981)"/>
<path d="M66.0139 161.924H42C42 167.911 46.8535 172.764 52.8402 172.764H57.2777V177.035C57.2816 183.011 62.1211 187.857 68.0973 187.868V164.007C68.0973 162.857 67.1645 161.924 66.0139 161.924Z" fill="url(#paint3_linear_1482_32981)"/>
</g>
<rect x="27.5" y="123.501" width="79" height="79.0002" rx="15.5" stroke="#F5F5F5"/>
<defs>
<linearGradient id="paint0_linear_1482_32981" x1="367.002" y1="258.761" x2="367.002" y2="209.174" gradientUnits="userSpaceOnUse">
<stop stop-color="#2974BA"/>
<stop offset="0.16" stop-color="#2F7BBF"/>
<stop offset="0.53" stop-color="#4B8CCB"/>
<stop offset="0.82" stop-color="#5F98D2"/>
<stop offset="1" stop-color="#679CD3"/>
</linearGradient>
<linearGradient id="paint1_linear_1482_32981" x1="645.309" y1="-101.435" x2="2171.59" y2="2541.98" gradientUnits="userSpaceOnUse">
<stop stop-color="#5A62C3"/>
<stop offset="0.5" stop-color="#4D55BD"/>
<stop offset="1" stop-color="#3940AB"/>
</linearGradient>
<linearGradient id="paint2_linear_1482_32981" x1="2612.21" y1="154.143" x2="1596.91" y2="1213.57" gradientUnits="userSpaceOnUse">
<stop offset="0.18" stop-color="#0052CC"/>
<stop offset="1" stop-color="#2684FF"/>
</linearGradient>
<linearGradient id="paint3_linear_1482_32981" x1="2669.08" y1="173.729" x2="1494.63" y2="1329.24" gradientUnits="userSpaceOnUse">
<stop offset="0.18" stop-color="#0052CC"/>
<stop offset="1" stop-color="#2684FF"/>
</linearGradient>
<clipPath id="clip0_1482_32981">
<rect width="49.9999" height="50" fill="white" transform="translate(342 209)"/>
</clipPath>
<clipPath id="clip1_1482_32981">
<rect width="50" height="50" fill="white" transform="translate(144 309.001)"/>
</clipPath>
<clipPath id="clip2_1482_32981">
<rect width="45.7143" height="42.6787" fill="white" transform="translate(239 41.26)"/>
</clipPath>
<clipPath id="clip3_1482_32981">
<rect width="50" height="50.0001" fill="white" transform="translate(41.999 138)"/>
</clipPath>
</defs>
</svg>
