<svg width="71" height="94" viewBox="0 0 71 94" fill="none" xmlns="http://www.w3.org/2000/svg">
<mask id="mask0_1482_33085" style="mask-type:luminance" maskUnits="userSpaceOnUse" x="4" y="4" width="62" height="86">
<path d="M4.08797 58.1753L9.07001 4.45204L65.9186 35.8208L60.9191 89.545L4.08797 58.1753Z" fill="white"/>
</mask>
<g mask="url(#mask0_1482_33085)">
<path d="M59.7627 81.2816L58.6605 81.919C59.0579 81.7575 59.4253 81.545 59.7627 81.2816ZM58.8414 31.99L20.014 10.2945C17.8669 9.09642 15.841 9.20548 14.38 10.3351L15.1356 9.87404L15.8963 12.7056C15.8963 12.7056 15.9312 12.7037 15.9296 12.7213L54.757 34.4169C58.6218 36.5734 61.3833 42.1698 60.9409 46.9053L58.1056 76.3264L60.2388 80.8356C61.126 79.8945 61.7276 78.4784 61.8937 76.7004L64.9905 44.4803C65.4329 39.7448 62.6888 34.1475 58.8065 31.9919" fill="#FF5050"/>
<path d="M15.1302 9.88387L14.3687 10.3493L11.2334 12.2335C12.5647 11.6666 14.1994 11.7906 15.9162 12.7235L15.1495 9.86513" fill="#FF5050"/>
<path d="M58.0985 76.1973L57.8379 78.9917C57.6559 80.9424 56.9262 82.4506 55.9041 83.38L58.6517 81.7806L59.7504 81.1443L60.299 80.835L60.2425 80.6981L58.116 76.1963" fill="#FF5050"/>
<path d="M11.7023 19.3736C11.9162 17.0845 13.6092 16.0823 15.4766 17.1206L54.3199 38.8217C56.1873 39.86 57.5173 42.5565 57.3034 44.8456L54.2053 77.0741C53.993 79.3456 52.3 80.3478 50.4326 79.3095L11.5894 57.6084C9.73939 56.5692 8.4061 53.9079 8.59922 51.6549C8.59922 51.6549 8.60251 51.6197 8.60416 51.6021L11.7023 19.3736ZM54.7536 34.3658L15.9104 12.6647C15.9104 12.6647 15.8754 12.6666 15.877 12.649C14.1919 11.706 12.5676 11.6007 11.2286 12.1634C9.54442 12.8848 8.33161 14.7021 8.08482 17.3433L4.98666 49.5718C4.54409 54.3085 7.28921 59.9073 11.1731 62.0634L50.0163 83.7645C52.2801 85.0267 54.4358 84.8406 55.8996 83.5003C56.9445 82.5505 57.6576 81.058 57.8403 79.1034L58.1018 76.3037L60.9384 46.875C61.381 42.1383 58.6359 36.5395 54.752 34.3834" fill="#FF8A8A"/>
<path d="M54.5684 38.8112C56.3397 39.7999 16.9113 21.2734 16.9113 21.2734C15.0229 20.2199 13.3104 21.2361 13.0951 23.54C13.0951 23.54 8.4066 51.8867 8.30725 51.8209C8.30725 51.8209 8.30725 51.8209 8.30892 51.8031C8.09362 54.107 9.44294 56.7887 11.3313 57.8421L50.6092 79.8597C52.4976 80.9131 54.21 79.8969 54.4254 77.593L57.568 44.9048C57.785 42.5831 56.439 39.8656 54.5524 38.7943" fill="#FF5050"/>
<path d="M55.0043 39.0434L15.4949 17.1005C13.5954 16.0507 11.8744 17.0651 11.6581 19.3809L8.52435 51.9861C8.52435 51.9861 8.52102 52.0217 8.51936 52.0396L8.51769 52.0574C8.6193 52.1051 13.3091 23.8473 13.3091 23.8473C13.5238 21.5492 15.2448 20.5349 17.1443 21.5847C17.1443 21.5847 56.8022 40.0456 55.0205 39.0603" fill="#C42A2A"/>
</g>
<path d="M29.5165 41.5155L22.0059 41.4808V42.6972L29.4988 50.6559V48.6227L24.3318 43.3228L29.5165 43.5487V41.5155Z" fill="white"/>
<path d="M36.5118 43.8962L34.4166 42.7146L30.2617 52.8107L32.3569 54.0097L36.5118 43.8962Z" fill="white"/>
<path d="M37.2414 45.8777V47.9108L42.3905 53.5236L37.2236 52.9849V55.018L44.7343 55.5393V54.3229L37.2414 45.8777Z" fill="white"/>
</svg>
