<svg width="81" height="81" viewBox="0 0 81 81" fill="none" xmlns="http://www.w3.org/2000/svg">
<rect x="1" y="0.510255" width="79" height="79" rx="15.5" fill="#FAFAFA" fill-opacity="0.8"/>
<g clip-path="url(#clip0_1660_32643)">
<path d="M26.0152 46.5177C26.0152 49.4146 23.674 51.756 20.7771 51.756C17.8803 51.756 15.5391 49.4146 15.5391 46.5177C15.5391 43.621 17.8803 41.2798 20.7773 41.2798H26.015V46.5179L26.0152 46.5177ZM28.6344 46.5177C28.6344 43.621 30.9756 41.2798 33.8725 41.2798C36.7693 41.2798 39.1105 43.621 39.1105 46.5179V59.613C39.1105 62.5099 36.7693 64.8513 33.8723 64.8513C30.9758 64.8513 28.6344 62.5099 28.6344 59.613V46.5177Z" fill="#E01E5A"/>
<path d="M33.873 25.4864C30.9762 25.4864 28.6348 23.1452 28.6348 20.2483C28.6348 17.3515 30.9764 15.0103 33.873 15.0103C36.7697 15.0103 39.1111 17.3515 39.1111 20.2483V25.4866H33.8729L33.873 25.4864ZM33.873 28.1452C36.7699 28.1452 39.1111 30.4864 39.1111 33.3833C39.1111 36.2802 36.7699 38.6214 33.8729 38.6214H20.7383C17.8412 38.6214 15.5 36.2802 15.5 33.3831C15.5 30.4866 17.8412 28.1452 20.7381 28.1452H33.873Z" fill="#36C5F0"/>
<path d="M54.8648 33.3833C54.8648 30.4864 57.2061 28.145 60.1027 28.145C62.9996 28.145 65.341 30.4864 65.341 33.3833C65.341 36.2802 62.9996 38.6214 60.1027 38.6214H54.8648V33.3833ZM52.2457 33.3833C52.2457 36.2802 49.9043 38.6214 47.0074 38.6214C44.1107 38.6214 41.7695 36.2802 41.7695 33.3831V20.2485C41.7695 17.3515 44.1107 15.0103 47.0074 15.0103C49.9041 15.0103 52.2455 17.3515 52.2455 20.2483V33.3831L52.2457 33.3833Z" fill="#2EB67D"/>
<path d="M47.0074 54.3756C49.9043 54.3756 52.2457 56.7168 52.2457 59.6135C52.2457 62.5104 49.9043 64.8518 47.0074 64.8518C44.1107 64.8518 41.7695 62.5104 41.7695 59.6135V54.3756H47.0074ZM47.0074 51.7564C44.1107 51.7564 41.7695 49.415 41.7695 46.5182C41.7695 43.6215 44.1107 41.2803 47.0076 41.2803H60.1424C63.0393 41.2803 65.3807 43.6215 65.3807 46.5184C65.3807 49.415 63.0393 51.7564 60.1424 51.7564H47.0074Z" fill="#ECB22E"/>
</g>
<rect x="1" y="0.510255" width="79" height="79" rx="15.5" stroke="#F5F5F5"/>
<defs>
<clipPath id="clip0_1660_32643">
<rect width="50" height="50" fill="white" transform="translate(15.5 15.0103)"/>
</clipPath>
</defs>
</svg>
