<svg width="81" height="81" viewBox="0 0 81 81" fill="none" xmlns="http://www.w3.org/2000/svg">
<rect x="1" y="1.01123" width="79" height="79.0002" rx="15.5" fill="#FAFAFA" fill-opacity="0.8"/>
<g clip-path="url(#clip0_1660_32649)">
<g clip-path="url(#clip1_1660_32649)">
<path d="M47.3877 33.2168H59.1958C60.3115 33.2168 61.2158 34.1213 61.2158 35.2368V45.9924C61.2158 50.0924 57.892 53.4163 53.792 53.4163H53.7569C49.6569 53.4169 46.3326 50.0936 46.332 45.9934V34.2727C46.332 34.134 46.3593 33.9967 46.4123 33.8686C46.4654 33.7405 46.5431 33.6241 46.6412 33.5261C46.7392 33.428 46.8556 33.3502 46.9837 33.2972C47.1118 33.2441 47.2491 33.2168 47.3877 33.2168Z" fill="#5059C9"/>
<path d="M55.3681 31.0907C58.0103 31.0907 60.1522 28.9488 60.1522 26.3066C60.1522 23.6644 58.0103 21.5225 55.3681 21.5225C52.7259 21.5225 50.584 23.6644 50.584 26.3066C50.584 28.9488 52.7259 31.0907 55.3681 31.0907Z" fill="#5059C9"/>
<path d="M40.4826 31.0903C44.2991 31.0903 47.393 27.9964 47.393 24.1799C47.393 20.3634 44.2991 17.2695 40.4826 17.2695C36.6661 17.2695 33.5723 20.3634 33.5723 24.1799C33.5723 27.9964 36.6661 31.0903 40.4826 31.0903Z" fill="#7B83EB"/>
<path d="M49.6972 33.2168H30.206C29.1036 33.2441 28.2317 34.1589 28.2572 35.2613V47.5286C28.1033 54.1436 33.3367 59.6331 39.9515 59.7951C46.5663 59.6331 51.7997 54.1436 51.646 47.5286V35.2613C51.6715 34.1589 50.7995 33.2441 49.6972 33.2168Z" fill="#7B83EB"/>
<path opacity="0.1" d="M41.0141 33.2168V50.4076C41.0115 50.7931 40.8951 51.1694 40.6795 51.489C40.4639 51.8087 40.1587 52.0576 39.8021 52.2044C39.57 52.3026 39.3205 52.3531 39.0685 52.3531H29.1919C29.0537 52.0022 28.9262 51.6513 28.8198 51.2901C28.4477 50.0701 28.2578 48.8019 28.2564 47.5265V35.2581C28.2309 34.1575 29.1014 33.2441 30.2019 33.217H41.0139L41.0141 33.2168Z" fill="black"/>
<path opacity="0.2" d="M39.9505 33.2168V51.4708C39.9505 51.7227 39.9 51.9722 39.8018 52.2044C39.655 52.5609 39.4061 52.8661 39.0864 53.0818C38.7668 53.2974 38.3906 53.4138 38.005 53.4163H29.6916C29.5109 53.0654 29.3407 52.7145 29.1919 52.3531C29.049 52.0056 28.9248 51.6508 28.8198 51.2901C28.4477 50.0701 28.2578 48.8019 28.2564 47.5265V35.2581C28.2309 34.1575 29.1014 33.2441 30.2019 33.217H39.9507L39.9505 33.2168Z" fill="black"/>
<path opacity="0.2" d="M39.9526 33.2168V49.3445C39.9446 50.4156 39.0784 51.282 38.0071 51.2901H28.8218C28.4496 50.0701 28.2598 48.8019 28.2584 47.5265V35.2581C28.2328 34.1575 29.1034 33.2441 30.2039 33.217L39.9526 33.2168Z" fill="black"/>
<path opacity="0.2" d="M38.8896 33.2168V49.3445C38.8814 50.4156 38.0151 51.282 36.9441 51.2901H28.8218C28.4496 50.0701 28.2598 48.8019 28.2584 47.5265V35.2581C28.2328 34.1575 29.1034 33.2441 30.2039 33.217L38.8896 33.2168Z" fill="black"/>
<path opacity="0.1" d="M41.0162 27.7204V31.0692C40.8354 31.0799 40.6653 31.0906 40.4846 31.0906C40.3038 31.0906 40.1337 31.0799 39.9529 31.0692C39.5941 31.0454 39.2383 30.9885 38.8899 30.8992C37.8286 30.6479 36.8418 30.1489 36.0103 29.443C35.1788 28.7372 34.5262 27.8446 34.1058 26.8381C33.9591 26.4952 33.8452 26.1393 33.7656 25.7749H39.0706C40.1433 25.779 41.0121 26.6476 41.0162 27.7204Z" fill="black"/>
<path opacity="0.2" d="M39.9524 28.7828V31.0685C39.5936 31.0447 39.2377 30.9878 38.8894 30.8985C37.8281 30.6471 36.8414 30.1481 36.0099 29.4423C35.1784 28.7364 34.5258 27.8438 34.1055 26.8374H38.0069C39.0798 26.8413 39.9483 27.7101 39.9524 28.7828Z" fill="black"/>
<path opacity="0.2" d="M39.9524 28.7828V31.0685C39.5936 31.0447 39.2377 30.9878 38.8894 30.8985C37.8281 30.6471 36.8414 30.1481 36.0099 29.4423C35.1784 28.7364 34.5258 27.8438 34.1055 26.8374H38.0069C39.0798 26.8413 39.9483 27.7101 39.9524 28.7828Z" fill="black"/>
<path opacity="0.2" d="M38.8896 28.7829V30.8987C37.8282 30.6473 36.8414 30.1483 36.0099 29.4424C35.1784 28.7365 34.5258 27.8439 34.1055 26.8374H36.944C38.0169 26.8415 38.8855 27.7103 38.8896 28.7829Z" fill="black"/>
<path d="M17.4487 26.8376H36.9398C38.0162 26.8376 38.8888 27.7101 38.8888 28.7863V48.2776C38.8888 49.3539 38.0162 50.2264 36.94 50.2264H17.4487C16.3725 50.2264 15.5 49.3539 15.5 48.2776V28.7865C15.5 27.7099 16.3725 26.8376 17.4487 26.8376Z" fill="url(#paint0_linear_1660_32649)"/>
<path d="M32.3234 34.2565H28.4269V44.8665H25.9446V34.2565H22.0664V32.1982H32.3234V34.2565Z" fill="white"/>
</g>
</g>
<rect x="1" y="1.01123" width="79" height="79.0002" rx="15.5" stroke="#F5F5F5"/>
<defs>
<linearGradient id="paint0_linear_1660_32649" x1="421.809" y1="-125.425" x2="1948.09" y2="2517.99" gradientUnits="userSpaceOnUse">
<stop stop-color="#5A62C3"/>
<stop offset="0.5" stop-color="#4D55BD"/>
<stop offset="1" stop-color="#3940AB"/>
</linearGradient>
<clipPath id="clip0_1660_32649">
<rect width="49.9999" height="50" fill="white" transform="translate(15.5 15.5112)"/>
</clipPath>
<clipPath id="clip1_1660_32649">
<rect width="45.7143" height="42.6787" fill="white" transform="translate(15.5 17.27)"/>
</clipPath>
</defs>
</svg>
