<svg width="71" height="100" viewBox="0 0 71 100" fill="none" xmlns="http://www.w3.org/2000/svg">
<mask id="mask0_1482_33047" style="mask-type:luminance" maskUnits="userSpaceOnUse" x="4" y="5" width="63" height="91">
<path d="M66.6689 62.14L61.7053 5.37406L4.81575 38.7188L9.79677 95.4858L66.6689 62.14Z" fill="white"/>
</mask>
<g mask="url(#mask0_1482_33047)">
<path d="M10.9513 86.6374L12.0537 87.3074C11.6562 87.138 11.2887 86.9146 10.9513 86.6374ZM11.8928 34.5357L50.7485 11.475C52.8972 10.2015 54.9241 10.31 56.3854 11.499L55.6296 11.0143L54.8674 14.0097C54.8674 14.0097 54.8324 14.0078 54.834 14.0264L15.9783 37.0871C12.1106 39.3793 9.34552 45.3037 9.78623 50.3073L12.6112 81.3944L10.4751 86.1676C9.58778 85.1759 8.98649 83.6811 8.82103 81.8024L5.73558 47.7578C5.29488 42.7541 8.04252 36.8289 11.9277 34.5376" fill="#FF5050"/>
<path d="M55.6348 11.0327L56.3966 11.5222L59.5334 13.5036C58.2014 12.9088 56.5656 13.0453 54.8471 14.0373L55.6155 11.013" fill="#FF5050"/>
<path d="M12.5618 81.3628L12.8215 84.3162C13.0029 86.378 13.7324 87.9701 14.7547 88.9493L12.0062 87.2675L10.9071 86.5985L10.3584 86.2733L10.415 86.1284L12.5443 81.3618" fill="#FF5050"/>
<path d="M58.9864 21.1148C58.7734 18.6961 57.0799 17.6425 55.2111 18.7461L16.3395 41.8129C14.4707 42.9165 13.1389 45.7711 13.352 48.1898L16.4386 82.2433C16.6501 84.6434 18.3435 85.697 20.2123 84.5934L59.084 61.5266C60.9353 60.422 62.2703 57.6047 62.078 55.2241C62.078 55.2241 62.0748 55.1869 62.0731 55.1683L58.9864 21.1148ZM15.9073 37.1046L54.779 14.0379C54.779 14.0379 54.814 14.0398 54.8123 14.0212C56.4987 13.0189 58.1239 12.9022 59.4633 13.4924C61.1481 14.2492 62.3608 16.1659 62.6066 18.9568L65.6933 53.0103C66.1342 58.0152 63.3854 63.942 59.4986 66.2339L20.6269 89.3007C18.3616 90.6423 16.2049 90.4528 14.7408 89.0411C13.6958 88.0407 12.9829 86.4656 12.801 84.4003L12.5404 81.442L9.71431 50.3469C9.27343 45.3419 12.0222 39.4151 15.9089 37.1232" fill="#FF8A8A"/>
<path d="M16.2758 41.466C14.4956 42.507 54.1036 23.0123 54.1036 23.0123C56.0015 21.9031 57.7112 22.9809 57.9134 25.4165C57.9134 25.4165 62.4455 55.3874 62.5455 55.3182C62.5455 55.3182 62.5455 55.3182 62.5439 55.2993C62.7462 57.7349 61.3788 60.5663 59.4809 61.6755L20.0033 84.8603C18.1054 85.9695 16.3957 84.8917 16.1934 82.4562L13.2353 47.8999C13.0314 45.4455 14.3957 42.5763 16.292 41.4482" fill="#FF5050"/>
<path d="M41.0949 41.0722C42.4096 40.281 43.329 39.9427 43.8945 40.0811C44.4601 40.2194 44.7673 40.7965 44.8616 41.8794L45.1559 45.2581L45.1635 45.3447C45.2125 45.9078 45.4395 46.2434 45.8045 46.3494C46.1876 46.4348 46.6888 46.2894 47.3642 45.8733L47.5849 48.4073C46.9294 48.8245 46.4366 49.2937 46.1083 49.8364C45.798 50.3585 45.6522 50.9542 45.7069 51.5823L45.9974 54.9177C46.0918 56.0006 45.9148 56.9179 45.4465 57.6687C44.9782 58.4194 44.0786 59.2114 42.7837 60.0037L42.5743 57.5996C43.0983 57.2615 43.4614 56.8931 43.628 56.5356C43.7926 56.1565 43.8561 55.7504 43.8146 55.2739L43.5391 52.1118L43.5316 52.0252C43.4221 50.769 43.9756 49.6349 45.1921 48.6228L45.1808 48.4929C43.9389 48.9862 43.2514 48.5826 43.0985 47.2809L42.823 44.1188C42.7815 43.6424 42.636 43.3327 42.4081 43.2126C42.1981 43.0719 41.8103 43.1587 41.2825 43.4535L41.075 41.0711" fill="white"/>
<path d="M35.0323 44.0033L35.2396 46.3828C34.7137 46.7204 34.3491 47.0882 34.1819 47.4451C34.0146 47.8021 33.9526 48.2294 33.9941 48.7052L34.2692 51.8634C34.368 53.2251 33.8141 54.3793 32.6092 55.3475L32.6205 55.4773C33.2536 55.2317 33.7462 55.1937 34.0801 55.384C34.4339 55.5754 34.6472 55.9744 34.6981 56.5585L34.7094 56.6882L34.9845 59.8464C35.0279 60.344 35.1538 60.6522 35.3825 60.7722C35.5912 60.8911 35.9803 60.8045 36.5081 60.4886L36.7173 62.8896C35.8136 63.4436 35.1083 63.7715 34.6015 63.8733C34.0766 63.9956 33.6942 63.9319 33.4306 63.6377C33.1688 63.3652 33.024 62.8407 32.9562 62.062L32.666 58.7307C32.6057 58.0385 32.3743 57.66 31.9919 57.5963C31.6095 57.5325 31.0865 57.6765 30.4267 58.0714L30.2063 55.5406C30.9021 55.1045 31.4187 54.6588 31.7321 54.1591C32.0257 53.6582 32.1561 53.1055 32.1052 52.5215L32.0957 52.4133L31.8018 49.0388C31.7358 48.2817 31.7969 47.6176 31.969 47.0887C32.1392 46.5381 32.4926 46.0405 32.9655 45.5494C33.4583 45.0593 34.1466 44.5368 35.0504 43.9828" fill="white"/>
<path d="M15.911 42.062L55.2586 18.5024C57.1503 17.3751 58.8806 18.4196 59.1163 20.851L62.5222 55.081C62.5222 55.081 62.5258 55.1184 62.5276 55.1371L62.5294 55.1558C62.4281 55.2073 57.5015 25.5661 57.5015 25.5661C57.2676 23.1534 55.5373 22.1089 53.6456 23.2362C53.6456 23.2362 14.1206 43.1379 15.895 42.0799" fill="#C42A2A"/>
</g>
</svg>
