<svg width="1028" height="388" viewBox="0 0 1028 388" fill="none" xmlns="http://www.w3.org/2000/svg">
<path d="M227 21.9537C227 22.9074 227.001 22.9074 227.001 22.9074L290.339 22.9073C299.437 22.9072 312.567 31.6395 312.567 48.1664V137.484L312.566 137.715C312.566 137.939 312.566 138.167 312.567 138.4V138.714H312.569C312.597 141.366 312.854 144.536 315.122 147.209C317.755 150.312 322.878 152.519 332.604 152.999L332.628 153H370V151.092H332.675C323.123 150.619 318.688 148.459 316.581 145.977C314.622 143.668 314.488 140.887 314.479 138.123V48.1664C314.479 30.5197 300.426 20.9999 290.339 20.9999L227.001 21C227.001 21 227 21 227 21.9537Z" fill="url(#paint0_linear_1482_32261)"/>
<path d="M236 194H370V192H236V194Z" fill="url(#paint1_linear_1482_32261)"/>
<path d="M731.927 139.777C730.767 142.617 729.33 145.394 726.867 147.476C724.429 149.536 720.88 151 715.335 151V151.001H658V153H715.349V152.998C721.267 152.996 725.296 151.42 728.158 149.002C730.998 146.602 732.584 143.457 733.778 140.531C734.858 137.887 735.369 134.005 735.636 130.641C735.771 128.94 735.846 127.338 735.896 126.043C735.914 125.554 735.929 125.116 735.942 124.735L735.942 124.73C735.964 124.085 735.98 123.602 736 123.308C737.04 108.072 736.48 79.524 736.108 60.5883C735.973 53.7258 735.863 48.1258 735.863 44.8794C735.863 42.6914 735.877 38.0233 738.413 33.8834C740.892 29.8343 745.925 26.0803 756.437 25.9984L773 25.9985V23.9999L756.433 23.9999L756.425 23.9999C745.37 24.085 739.619 28.0843 736.707 32.8403C733.863 37.4835 733.863 42.6452 733.863 44.8477V44.8794C733.863 48.193 733.975 53.8631 734.111 60.7871C734.482 79.7218 735.038 108.033 734.005 123.172C733.983 123.499 733.964 124.042 733.941 124.725C733.928 125.101 733.914 125.52 733.897 125.967C733.848 127.249 733.774 128.82 733.642 130.483C733.375 133.846 732.877 137.448 731.927 139.777Z" fill="url(#paint2_linear_1482_32261)"/>
<path fill-rule="evenodd" clip-rule="evenodd" d="M684.8 193L658.001 193L658.001 194.908L684.563 194.908L684.8 194.908H792V193H684.8Z" fill="url(#paint3_linear_1482_32261)"/>
<path d="M708.795 187C705.048 187 702.018 190.043 702.018 193.788C702.018 197.532 705.048 200.575 708.795 200.575C712.542 200.575 715.572 197.532 715.572 193.788C715.572 190.043 712.542 187 708.795 187Z" fill="#FF0000" stroke="white" stroke-width="4"/>
<path d="M735.777 94.9998C732.03 94.9998 729 98.0428 729 101.788C729 105.532 732.03 108.575 735.777 108.575C739.524 108.575 742.555 105.532 742.555 101.788C742.555 98.0428 739.524 94.9998 735.777 94.9998Z" fill="#FF0000" stroke="white" stroke-width="4"/>
<path d="M696.146 279.761V255.419C695.918 250.753 694.794 246.146 692.187 242.725C689.612 239.347 685.501 237.005 679.004 237.005L658 237.005L658 235H679.004C686.048 235 690.777 237.576 693.772 241.505C696.729 245.385 697.905 250.463 698.141 255.345L698.143 255.37V280.405H698.139L698.139 338.152C698.139 346.254 701.715 352.463 706.147 356.663C710.621 360.901 715.857 362.994 719.016 362.994H774V365H719.016C715.199 365 709.498 362.594 704.778 358.122C700.017 353.611 696.142 346.898 696.142 338.152L696.142 279.761H696.146Z" fill="url(#paint4_linear_1482_32261)"/>
<path fill-rule="evenodd" clip-rule="evenodd" d="M331.782 278.031V254.451C332.088 250.216 333.333 245.67 336.005 242.174C338.653 238.71 342.755 236.205 348.974 236.092C356.555 235.955 360.078 235.999 363.724 236.045L363.724 236.045L363.725 236.045C365.596 236.068 367.499 236.092 370 236.092V234.092C367.539 234.092 365.648 234.069 363.782 234.045L363.781 234.045C360.117 233.999 356.545 233.954 348.938 234.093C342.114 234.216 337.439 237.006 334.416 240.96C331.424 244.873 330.103 249.855 329.785 254.345L329.782 254.38V254.415V279.338H329.786L329.786 307.039L329.786 336.237C329.786 344.311 326.19 350.5 321.731 354.687C317.232 358.912 311.965 361 308.785 361H234V363H308.785C312.621 363 318.354 360.603 323.101 356.145C327.888 351.649 331.786 344.956 331.786 336.237V307.039L331.786 278.031H331.782Z" fill="url(#paint5_linear_1482_32261)"/>
<rect x="785.001" y="-0.00012207" width="243" height="48" rx="24" fill="#E8E8E8"/>
<g clip-path="url(#clip0_1482_32261)">
<path d="M826.269 12.8577L823.658 15.4733L829.527 21.3421L832.138 18.7311C833.165 17.7046 833.165 16.0452 832.138 15.0186L829.982 12.8577C828.955 11.8311 827.296 11.8311 826.269 12.8577ZM822.501 16.4343L822.069 16.5655L815.315 18.5905C814.382 18.8718 813.641 19.5843 813.332 20.5124L809.179 32.8968C809.001 33.4264 809.132 34.0171 809.521 34.4155L816.721 27.2202C816.58 26.9249 816.501 26.5968 816.501 26.2499C816.501 25.0077 817.508 23.9999 818.751 23.9999C819.993 23.9999 821.001 25.0077 821.001 26.2499C821.001 27.4921 819.993 28.4999 818.751 28.4999C818.404 28.4999 818.076 28.4202 817.78 28.2796L810.58 35.4796C810.983 35.8686 811.569 36.0046 812.099 35.8218L824.488 31.6686C825.412 31.3593 826.129 30.6186 826.41 29.6858L828.435 22.9311L828.566 22.4999L822.501 16.4343Z" fill="#0D1019"/>
</g>
<path d="M844.439 30.9999V17.909H849.105C850.124 17.909 850.968 18.0943 851.637 18.4651C852.306 18.8358 852.806 19.3429 853.139 19.9864C853.471 20.6256 853.637 21.3458 853.637 22.1469C853.637 22.9523 853.469 23.6767 853.132 24.3202C852.8 24.9594 852.297 25.4665 851.624 25.8415C850.955 26.2122 850.113 26.3976 849.099 26.3976H845.89V24.7229H848.92C849.563 24.7229 850.085 24.6121 850.486 24.3905C850.887 24.1647 851.181 23.8578 851.368 23.47C851.556 23.0823 851.649 22.6412 851.649 22.1469C851.649 21.6526 851.556 21.2137 851.368 20.8301C851.181 20.4466 850.884 20.1462 850.48 19.9289C850.079 19.7115 849.551 19.6029 848.894 19.6029H846.414V30.9999H844.439ZM855.799 30.9999V21.1817H857.647V22.7414H857.749C857.928 22.2129 858.243 21.7975 858.695 21.4949C859.151 21.1881 859.667 21.0347 860.242 21.0347C860.361 21.0347 860.502 21.0389 860.664 21.0475C860.83 21.056 860.96 21.0666 861.054 21.0794V22.9075C860.977 22.8862 860.841 22.8628 860.645 22.8372C860.449 22.8074 860.253 22.7925 860.057 22.7925C859.605 22.7925 859.202 22.8884 858.848 23.0801C858.499 23.2676 858.222 23.5297 858.017 23.8664C857.813 24.1987 857.711 24.578 857.711 25.0041V30.9999H855.799ZM866.492 31.198C865.571 31.198 864.768 30.9871 864.082 30.5652C863.396 30.1433 862.863 29.5531 862.484 28.7946C862.105 28.0361 861.915 27.1497 861.915 26.1355C861.915 25.1171 862.105 24.2264 862.484 23.4637C862.863 22.7009 863.396 22.1085 864.082 21.6867C864.768 21.2648 865.571 21.0539 866.492 21.0539C867.412 21.0539 868.215 21.2648 868.902 21.6867C869.588 22.1085 870.12 22.7009 870.5 23.4637C870.879 24.2264 871.068 25.1171 871.068 26.1355C871.068 27.1497 870.879 28.0361 870.5 28.7946C870.12 29.5531 869.588 30.1433 868.902 30.5652C868.215 30.9871 867.412 31.198 866.492 31.198ZM866.498 29.5936C867.095 29.5936 867.589 29.436 867.981 29.1206C868.373 28.8053 868.663 28.3855 868.85 27.8614C869.042 27.3372 869.138 26.7598 869.138 26.1291C869.138 25.5027 869.042 24.9274 868.85 24.4033C868.663 23.8749 868.373 23.4509 867.981 23.1313C867.589 22.8117 867.095 22.6519 866.498 22.6519C865.897 22.6519 865.399 22.8117 865.002 23.1313C864.61 23.4509 864.318 23.8749 864.127 24.4033C863.939 24.9274 863.845 25.5027 863.845 26.1291C863.845 26.7598 863.939 27.3372 864.127 27.8614C864.318 28.3855 864.61 28.8053 865.002 29.1206C865.399 29.436 865.897 29.5936 866.498 29.5936ZM876.877 31.1916C876.085 31.1916 875.377 30.9892 874.755 30.5844C874.137 30.1753 873.651 29.5936 873.298 28.8394C872.948 28.0808 872.774 27.171 872.774 26.11C872.774 25.0489 872.95 24.1412 873.304 23.387C873.662 22.6327 874.152 22.0553 874.774 21.6547C875.396 21.2541 876.102 21.0539 876.89 21.0539C877.499 21.0539 877.989 21.1561 878.36 21.3607C878.735 21.561 879.025 21.7953 879.229 22.0638C879.438 22.3323 879.6 22.5688 879.715 22.7733H879.83V17.909H881.742V30.9999H879.875V29.4722H879.715C879.6 29.681 879.434 29.9196 879.217 30.1881C879.004 30.4566 878.71 30.6909 878.335 30.8912C877.96 31.0915 877.474 31.1916 876.877 31.1916ZM877.299 29.5617C877.849 29.5617 878.313 29.4168 878.693 29.127C879.076 28.833 879.366 28.426 879.562 27.9061C879.762 27.3862 879.862 26.7811 879.862 26.0908C879.862 25.409 879.764 24.8124 879.568 24.301C879.372 23.7897 879.085 23.3912 878.705 23.1057C878.326 22.8202 877.857 22.6774 877.299 22.6774C876.724 22.6774 876.244 22.8266 875.861 23.1249C875.477 23.4232 875.188 23.8301 874.992 24.3458C874.8 24.8614 874.704 25.4431 874.704 26.0908C874.704 26.747 874.802 27.3372 874.998 27.8614C875.194 28.3855 875.484 28.801 875.867 29.1078C876.255 29.4104 876.732 29.5617 877.299 29.5617ZM890.689 26.9281V21.1817H892.606V30.9999H890.727V29.2996H890.625C890.399 29.8237 890.037 30.2605 889.538 30.61C889.044 30.9551 888.428 31.1277 887.691 31.1277C887.06 31.1277 886.502 30.9892 886.016 30.7122C885.535 30.431 885.155 30.0155 884.878 29.4658C884.606 28.9161 884.469 28.2364 884.469 27.4267V21.1817H886.381V27.1966C886.381 27.8656 886.566 28.3983 886.937 28.7946C887.307 29.1909 887.789 29.3891 888.381 29.3891C888.739 29.3891 889.095 29.2996 889.449 29.1206C889.807 28.9416 890.103 28.671 890.337 28.3088C890.576 27.9466 890.693 27.4864 890.689 26.9281ZM899.31 31.198C898.36 31.198 897.542 30.9828 896.856 30.5524C896.174 30.1178 895.65 29.5191 895.283 28.7563C894.917 27.9935 894.733 27.1199 894.733 26.1355C894.733 25.1384 894.921 24.2584 895.296 23.4956C895.671 22.7286 896.199 22.1298 896.881 21.6995C897.563 21.2691 898.366 21.0539 899.291 21.0539C900.037 21.0539 900.701 21.1923 901.285 21.4693C901.869 21.7421 902.34 22.1256 902.698 22.6199C903.06 23.1142 903.275 23.6916 903.343 24.3522H901.483C901.381 23.8919 901.147 23.4956 900.78 23.1632C900.418 22.8308 899.932 22.6647 899.323 22.6647C898.79 22.6647 898.324 22.8053 897.923 23.0865C897.527 23.3635 897.218 23.7598 896.996 24.2754C896.775 24.7868 896.664 25.3919 896.664 26.0908C896.664 26.8067 896.772 27.4246 896.99 27.9445C897.207 28.4644 897.514 28.8671 897.91 29.1526C898.311 29.4381 898.782 29.5808 899.323 29.5808C899.685 29.5808 900.013 29.5148 900.307 29.3827C900.606 29.2463 900.855 29.0524 901.055 28.801C901.26 28.5496 901.402 28.247 901.483 27.8933H903.343C903.275 28.5283 903.069 29.095 902.723 29.5936C902.378 30.0922 901.916 30.4843 901.336 30.7698C900.761 31.0553 900.086 31.198 899.31 31.198ZM909.97 21.1817V22.7158H904.608V21.1817H909.97ZM906.046 18.8294H907.957V28.1171C907.957 28.4878 908.012 28.7669 908.123 28.9544C908.234 29.1377 908.377 29.2634 908.551 29.3316C908.73 29.3955 908.924 29.4274 909.133 29.4274C909.286 29.4274 909.421 29.4168 909.536 29.3955C909.651 29.3742 909.74 29.3571 909.804 29.3443L910.149 30.9232C910.039 30.9658 909.881 31.0084 909.676 31.051C909.472 31.0979 909.216 31.1235 908.909 31.1277C908.407 31.1362 907.938 31.0468 907.503 30.8593C907.068 30.6718 906.717 30.382 906.448 29.9899C906.18 29.5979 906.046 29.1057 906.046 28.5134V18.8294ZM921.24 30.9999H917.002V17.909H921.374C922.657 17.909 923.758 18.171 924.679 18.6952C925.599 19.2151 926.304 19.9629 926.794 20.9388C927.289 21.9104 927.536 23.0759 927.536 24.4352C927.536 25.7989 927.286 26.9708 926.788 27.9509C926.294 28.931 925.578 29.6852 924.64 30.2137C923.703 30.7378 922.569 30.9999 921.24 30.9999ZM918.977 29.274H921.131C922.128 29.274 922.957 29.0865 923.617 28.7115C924.278 28.3323 924.772 27.7847 925.1 27.0688C925.429 26.3486 925.593 25.4708 925.593 24.4352C925.593 23.4083 925.429 22.5368 925.1 21.8209C924.777 21.105 924.293 20.5617 923.649 20.1909C923.006 19.8202 922.207 19.6348 921.252 19.6348H918.977V29.274ZM934.07 31.198C933.103 31.198 932.27 30.9914 931.571 30.578C930.876 30.1604 930.339 29.5745 929.96 28.8202C929.585 28.0617 929.397 27.1732 929.397 26.1547C929.397 25.149 929.585 24.2627 929.96 23.4956C930.339 22.7286 930.868 22.1298 931.545 21.6995C932.227 21.2691 933.024 21.0539 933.936 21.0539C934.49 21.0539 935.027 21.1455 935.547 21.3287C936.066 21.512 936.533 21.7996 936.946 22.1916C937.36 22.5837 937.686 23.0929 937.924 23.7193C938.163 24.3415 938.282 25.0979 938.282 25.9885V26.6661H930.478V25.2343H936.41C936.41 24.7314 936.307 24.2861 936.103 23.8983C935.898 23.5063 935.611 23.1973 935.24 22.9715C934.873 22.7456 934.443 22.6327 933.949 22.6327C933.412 22.6327 932.943 22.7648 932.542 23.029C932.146 23.2889 931.839 23.6298 931.622 24.0517C931.409 24.4693 931.302 24.9232 931.302 25.4132V26.5318C931.302 27.1881 931.417 27.7463 931.647 28.2066C931.882 28.6668 932.208 29.0183 932.625 29.2612C933.043 29.4999 933.531 29.6192 934.089 29.6192C934.451 29.6192 934.782 29.5681 935.08 29.4658C935.378 29.3593 935.636 29.2016 935.853 28.9928C936.071 28.784 936.237 28.5262 936.352 28.2193L938.161 28.5453C938.016 29.078 937.756 29.5446 937.381 29.9452C937.01 30.3415 936.544 30.6504 935.981 30.872C935.423 31.0894 934.786 31.198 934.07 31.198ZM948.521 21.1817L944.96 30.9999H942.915L939.348 21.1817H941.4L943.887 28.7371H943.989L946.469 21.1817H948.521ZM954.215 31.198C953.247 31.198 952.414 30.9914 951.715 30.578C951.021 30.1604 950.484 29.5745 950.104 28.8202C949.729 28.0617 949.542 27.1732 949.542 26.1547C949.542 25.149 949.729 24.2627 950.104 23.4956C950.484 22.7286 951.012 22.1298 951.69 21.6995C952.372 21.2691 953.168 21.0539 954.08 21.0539C954.634 21.0539 955.171 21.1455 955.691 21.3287C956.211 21.512 956.678 21.7996 957.091 22.1916C957.504 22.5837 957.83 23.0929 958.069 23.7193C958.308 24.3415 958.427 25.0979 958.427 25.9885V26.6661H950.622V25.2343H956.554C956.554 24.7314 956.452 24.2861 956.247 23.8983C956.043 23.5063 955.755 23.1973 955.384 22.9715C955.018 22.7456 954.587 22.6327 954.093 22.6327C953.556 22.6327 953.087 22.7648 952.687 23.029C952.291 23.2889 951.984 23.6298 951.766 24.0517C951.553 24.4693 951.447 24.9232 951.447 25.4132V26.5318C951.447 27.1881 951.562 27.7463 951.792 28.2066C952.026 28.6668 952.352 29.0183 952.77 29.2612C953.188 29.4999 953.676 29.6192 954.234 29.6192C954.596 29.6192 954.926 29.5681 955.225 29.4658C955.523 29.3593 955.781 29.2016 955.998 28.9928C956.215 28.784 956.381 28.5262 956.497 28.2193L958.305 28.5453C958.161 29.078 957.901 29.5446 957.526 29.9452C957.155 30.3415 956.688 30.6504 956.126 30.872C955.568 31.0894 954.93 31.198 954.215 31.198ZM962.459 17.909V30.9999H960.547V17.909H962.459ZM969.166 31.198C968.245 31.198 967.442 30.9871 966.756 30.5652C966.07 30.1433 965.537 29.5531 965.158 28.7946C964.778 28.0361 964.589 27.1497 964.589 26.1355C964.589 25.1171 964.778 24.2264 965.158 23.4637C965.537 22.7009 966.07 22.1085 966.756 21.6867C967.442 21.2648 968.245 21.0539 969.166 21.0539C970.086 21.0539 970.889 21.2648 971.575 21.6867C972.261 22.1085 972.794 22.7009 973.173 23.4637C973.553 24.2264 973.742 25.1171 973.742 26.1355C973.742 27.1497 973.553 28.0361 973.173 28.7946C972.794 29.5531 972.261 30.1433 971.575 30.5652C970.889 30.9871 970.086 31.198 969.166 31.198ZM969.172 29.5936C969.769 29.5936 970.263 29.436 970.655 29.1206C971.047 28.8053 971.337 28.3855 971.524 27.8614C971.716 27.3372 971.812 26.7598 971.812 26.1291C971.812 25.5027 971.716 24.9274 971.524 24.4033C971.337 23.8749 971.047 23.4509 970.655 23.1313C970.263 22.8117 969.769 22.6519 969.172 22.6519C968.571 22.6519 968.073 22.8117 967.676 23.1313C967.284 23.4509 966.992 23.8749 966.801 24.4033C966.613 24.9274 966.519 25.5027 966.519 26.1291C966.519 26.7598 966.613 27.3372 966.801 27.8614C966.992 28.3855 967.284 28.8053 967.676 29.1206C968.073 29.436 968.571 29.5936 969.172 29.5936ZM975.876 34.6817V21.1817H977.742V22.7733H977.902C978.013 22.5688 978.172 22.3323 978.381 22.0638C978.59 21.7953 978.88 21.561 979.251 21.3607C979.621 21.1561 980.111 21.0539 980.721 21.0539C981.513 21.0539 982.221 21.2541 982.843 21.6547C983.465 22.0553 983.953 22.6327 984.307 23.387C984.665 24.1412 984.844 25.0489 984.844 26.11C984.844 27.171 984.667 28.0808 984.313 28.8394C983.959 29.5936 983.474 30.1753 982.856 30.5844C982.238 30.9892 981.533 31.1916 980.74 31.1916C980.143 31.1916 979.655 31.0915 979.276 30.8912C978.901 30.6909 978.607 30.4566 978.394 30.1881C978.181 29.9196 978.017 29.681 977.902 29.4722H977.787V34.6817H975.876ZM977.748 26.0908C977.748 26.7811 977.849 27.3862 978.049 27.9061C978.249 28.426 978.539 28.833 978.918 29.127C979.297 29.4168 979.762 29.5617 980.312 29.5617C980.883 29.5617 981.36 29.4104 981.744 29.1078C982.127 28.801 982.417 28.3855 982.613 27.8614C982.813 27.3372 982.913 26.747 982.913 26.0908C982.913 25.4431 982.815 24.8614 982.619 24.3458C982.427 23.8301 982.138 23.4232 981.75 23.1249C981.366 22.8266 980.887 22.6774 980.312 22.6774C979.758 22.6774 979.289 22.8202 978.905 23.1057C978.526 23.3912 978.239 23.7897 978.043 24.301C977.847 24.8124 977.748 25.409 977.748 26.0908ZM991.217 31.198C990.249 31.198 989.416 30.9914 988.717 30.578C988.023 30.1604 987.486 29.5745 987.106 28.8202C986.731 28.0617 986.544 27.1732 986.544 26.1547C986.544 25.149 986.731 24.2627 987.106 23.4956C987.486 22.7286 988.014 22.1298 988.692 21.6995C989.373 21.2691 990.17 21.0539 991.082 21.0539C991.636 21.0539 992.173 21.1455 992.693 21.3287C993.213 21.512 993.68 21.7996 994.093 22.1916C994.506 22.5837 994.832 23.0929 995.071 23.7193C995.31 24.3415 995.429 25.0979 995.429 25.9885V26.6661H987.624V25.2343H993.556C993.556 24.7314 993.454 24.2861 993.249 23.8983C993.045 23.5063 992.757 23.1973 992.386 22.9715C992.02 22.7456 991.589 22.6327 991.095 22.6327C990.558 22.6327 990.089 22.7648 989.689 23.029C989.293 23.2889 988.986 23.6298 988.768 24.0517C988.555 24.4693 988.449 24.9232 988.449 25.4132V26.5318C988.449 27.1881 988.564 27.7463 988.794 28.2066C989.028 28.6668 989.354 29.0183 989.772 29.2612C990.19 29.4999 990.677 29.6192 991.236 29.6192C991.598 29.6192 991.928 29.5681 992.226 29.4658C992.525 29.3593 992.783 29.2016 993 28.9928C993.217 28.784 993.383 28.5262 993.498 28.2193L995.307 28.5453C995.163 29.078 994.903 29.5446 994.528 29.9452C994.157 30.3415 993.69 30.6504 993.128 30.872C992.57 31.0894 991.932 31.198 991.217 31.198ZM997.549 30.9999V21.1817H999.397V22.7414H999.499C999.678 22.2129 999.993 21.7975 1000.45 21.4949C1000.9 21.1881 1001.42 21.0347 1001.99 21.0347C1002.11 21.0347 1002.25 21.0389 1002.41 21.0475C1002.58 21.056 1002.71 21.0666 1002.8 21.0794V22.9075C1002.73 22.8862 1002.59 22.8628 1002.39 22.8372C1002.2 22.8074 1002 22.7925 1001.81 22.7925C1001.35 22.7925 1000.95 22.8884 1000.6 23.0801C1000.25 23.2676 999.972 23.5297 999.767 23.8664C999.563 24.1987 999.461 24.578 999.461 25.0041V30.9999H997.549Z" fill="#0D1019"/>
<rect x="804.001" y="168.5" width="185" height="48" rx="24" fill="#E8E8E8"/>
<g clip-path="url(#clip1_1482_32261)">
<path d="M830.401 186.004C830.401 184.623 831.477 183.5 832.801 183.5H847.201C848.525 183.5 849.601 184.623 849.601 186.004V196.022H847.201V186.004H832.801V196.022H830.401V186.004ZM828.001 198.025C828.001 197.61 828.323 197.274 828.721 197.274H851.281C851.678 197.274 852.001 197.61 852.001 198.025C852.001 199.684 850.711 201.03 849.121 201.03H830.881C829.291 201.03 828.001 199.684 828.001 198.025ZM838.538 190.426L837.376 191.639L838.538 192.852C838.891 193.22 838.891 193.815 838.538 194.179C838.186 194.542 837.616 194.546 837.267 194.179L835.467 192.3C835.115 191.932 835.115 191.338 835.467 190.974L837.267 189.096C837.62 188.728 838.19 188.728 838.538 189.096C838.887 189.463 838.891 190.058 838.538 190.422V190.426ZM842.738 189.096L844.538 190.974C844.891 191.342 844.891 191.936 844.538 192.3L842.738 194.179C842.386 194.546 841.816 194.546 841.467 194.179C841.118 193.811 841.115 193.216 841.467 192.852L842.63 191.639L841.467 190.426C841.115 190.058 841.115 189.463 841.467 189.099C841.82 188.736 842.39 188.732 842.738 189.099V189.096Z" fill="#0D1019"/>
</g>
<path d="M863.439 199.5V186.409H871.647V188.109H865.414V192.098H871.218V193.792H865.414V197.8H871.723V199.5H863.439ZM876.043 193.67V199.5H874.131V189.682H875.966V191.28H876.087C876.313 190.76 876.667 190.342 877.149 190.027C877.634 189.712 878.246 189.554 878.983 189.554C879.652 189.554 880.238 189.694 880.741 189.976C881.244 190.253 881.634 190.666 881.911 191.216C882.188 191.766 882.326 192.445 882.326 193.255V199.5H880.415V193.485C880.415 192.773 880.229 192.217 879.859 191.817C879.488 191.412 878.979 191.209 878.331 191.209C877.888 191.209 877.494 191.305 877.149 191.497C876.808 191.689 876.537 191.97 876.337 192.341C876.141 192.707 876.043 193.15 876.043 193.67ZM889.006 203.386C888.226 203.386 887.555 203.284 886.992 203.079C886.434 202.875 885.978 202.604 885.624 202.268C885.271 201.931 885.006 201.562 884.832 201.162L886.475 200.484C886.59 200.672 886.743 200.87 886.935 201.079C887.131 201.292 887.395 201.473 887.727 201.622C888.064 201.771 888.497 201.846 889.025 201.846C889.749 201.846 890.348 201.669 890.821 201.315C891.294 200.966 891.531 200.408 891.531 199.641V197.71H891.409C891.294 197.919 891.128 198.151 890.911 198.407C890.698 198.663 890.403 198.884 890.028 199.072C889.653 199.259 889.166 199.353 888.565 199.353C887.789 199.353 887.09 199.172 886.468 198.81C885.85 198.443 885.36 197.904 884.998 197.192C884.64 196.476 884.461 195.596 884.461 194.552C884.461 193.508 884.638 192.614 884.992 191.868C885.35 191.122 885.84 190.551 886.462 190.155C887.084 189.754 887.789 189.554 888.578 189.554C889.187 189.554 889.679 189.656 890.054 189.861C890.429 190.061 890.721 190.295 890.93 190.564C891.143 190.832 891.307 191.069 891.422 191.273H891.563V189.682H893.435V199.717C893.435 200.561 893.239 201.253 892.847 201.795C892.455 202.336 891.925 202.736 891.256 202.996C890.591 203.256 889.841 203.386 889.006 203.386ZM888.987 197.768C889.536 197.768 890.001 197.64 890.38 197.384C890.764 197.124 891.053 196.753 891.249 196.272C891.45 195.786 891.55 195.204 891.55 194.527C891.55 193.866 891.452 193.285 891.256 192.782C891.06 192.279 890.772 191.887 890.393 191.606C890.014 191.32 889.545 191.177 888.987 191.177C888.411 191.177 887.932 191.327 887.548 191.625C887.165 191.919 886.875 192.319 886.679 192.827C886.487 193.334 886.391 193.9 886.391 194.527C886.391 195.17 886.489 195.735 886.685 196.221C886.881 196.707 887.171 197.086 887.555 197.359C887.943 197.631 888.42 197.768 888.987 197.768ZM895.999 199.5V189.682H897.91V199.5H895.999ZM896.964 188.167C896.631 188.167 896.346 188.056 896.107 187.834C895.873 187.609 895.756 187.34 895.756 187.029C895.756 186.714 895.873 186.445 896.107 186.224C896.346 185.998 896.631 185.885 896.964 185.885C897.296 185.885 897.58 185.998 897.814 186.224C898.053 186.445 898.172 186.714 898.172 187.029C898.172 187.34 898.053 187.609 897.814 187.834C897.58 188.056 897.296 188.167 896.964 188.167ZM902.392 193.67V199.5H900.481V189.682H902.316V191.28H902.437C902.663 190.76 903.017 190.342 903.498 190.027C903.984 189.712 904.595 189.554 905.333 189.554C906.002 189.554 906.588 189.694 907.09 189.976C907.593 190.253 907.983 190.666 908.26 191.216C908.537 191.766 908.676 192.445 908.676 193.255V199.5H906.764V193.485C906.764 192.773 906.579 192.217 906.208 191.817C905.838 191.412 905.328 191.209 904.681 191.209C904.237 191.209 903.843 191.305 903.498 191.497C903.157 191.689 902.887 191.97 902.686 192.341C902.49 192.707 902.392 193.15 902.392 193.67ZM915.47 199.698C914.503 199.698 913.67 199.491 912.971 199.078C912.277 198.66 911.74 198.074 911.36 197.32C910.985 196.562 910.798 195.673 910.798 194.655C910.798 193.649 910.985 192.763 911.36 191.996C911.74 191.229 912.268 190.63 912.946 190.199C913.627 189.769 914.424 189.554 915.336 189.554C915.89 189.554 916.427 189.645 916.947 189.829C917.467 190.012 917.934 190.3 918.347 190.692C918.76 191.084 919.086 191.593 919.325 192.219C919.563 192.841 919.683 193.598 919.683 194.489V195.166H911.878V193.734H917.81C917.81 193.231 917.708 192.786 917.503 192.398C917.299 192.006 917.011 191.697 916.64 191.471C916.274 191.246 915.843 191.133 915.349 191.133C914.812 191.133 914.343 191.265 913.943 191.529C913.546 191.789 913.24 192.13 913.022 192.552C912.809 192.969 912.703 193.423 912.703 193.913V195.032C912.703 195.688 912.818 196.246 913.048 196.707C913.282 197.167 913.608 197.518 914.026 197.761C914.443 198 914.931 198.119 915.49 198.119C915.852 198.119 916.182 198.068 916.48 197.966C916.779 197.859 917.036 197.702 917.254 197.493C917.471 197.284 917.637 197.026 917.752 196.719L919.561 197.045C919.416 197.578 919.157 198.045 918.782 198.445C918.411 198.841 917.944 199.15 917.382 199.372C916.823 199.589 916.186 199.698 915.47 199.698ZM926.035 199.698C925.068 199.698 924.234 199.491 923.536 199.078C922.841 198.66 922.304 198.074 921.925 197.32C921.55 196.562 921.362 195.673 921.362 194.655C921.362 193.649 921.55 192.763 921.925 191.996C922.304 191.229 922.832 190.63 923.51 190.199C924.192 189.769 924.989 189.554 925.901 189.554C926.455 189.554 926.992 189.645 927.511 189.829C928.031 190.012 928.498 190.3 928.911 190.692C929.325 191.084 929.651 191.593 929.889 192.219C930.128 192.841 930.247 193.598 930.247 194.489V195.166H922.443V193.734H928.374C928.374 193.231 928.272 192.786 928.068 192.398C927.863 192.006 927.575 191.697 927.205 191.471C926.838 191.246 926.408 191.133 925.913 191.133C925.377 191.133 924.908 191.265 924.507 191.529C924.111 191.789 923.804 192.13 923.587 192.552C923.374 192.969 923.267 193.423 923.267 193.913V195.032C923.267 195.688 923.382 196.246 923.612 196.707C923.847 197.167 924.173 197.518 924.59 197.761C925.008 198 925.496 198.119 926.054 198.119C926.416 198.119 926.747 198.068 927.045 197.966C927.343 197.859 927.601 197.702 927.818 197.493C928.036 197.284 928.202 197.026 928.317 196.719L930.126 197.045C929.981 197.578 929.721 198.045 929.346 198.445C928.975 198.841 928.509 199.15 927.946 199.372C927.388 199.589 926.751 199.698 926.035 199.698ZM932.368 199.5V189.682H934.215V191.241H934.317C934.496 190.713 934.812 190.297 935.263 189.995C935.719 189.688 936.235 189.535 936.81 189.535C936.93 189.535 937.07 189.539 937.232 189.547C937.398 189.556 937.528 189.567 937.622 189.579V191.408C937.545 191.386 937.409 191.363 937.213 191.337C937.017 191.307 936.821 191.292 936.625 191.292C936.173 191.292 935.771 191.388 935.417 191.58C935.067 191.768 934.79 192.03 934.586 192.366C934.381 192.699 934.279 193.078 934.279 193.504V199.5H932.368ZM939.276 199.5V189.682H941.187V199.5H939.276ZM940.241 188.167C939.909 188.167 939.623 188.056 939.385 187.834C939.15 187.609 939.033 187.34 939.033 187.029C939.033 186.714 939.15 186.445 939.385 186.224C939.623 185.998 939.909 185.885 940.241 185.885C940.574 185.885 940.857 185.998 941.091 186.224C941.33 186.445 941.449 186.714 941.449 187.029C941.449 187.34 941.33 187.609 941.091 187.834C940.857 188.056 940.574 188.167 940.241 188.167ZM945.67 193.67V199.5H943.758V189.682H945.593V191.28H945.714C945.94 190.76 946.294 190.342 946.775 190.027C947.261 189.712 947.873 189.554 948.61 189.554C949.279 189.554 949.865 189.694 950.368 189.976C950.871 190.253 951.261 190.666 951.538 191.216C951.815 191.766 951.953 192.445 951.953 193.255V199.5H950.042V193.485C950.042 192.773 949.856 192.217 949.486 191.817C949.115 191.412 948.606 191.209 947.958 191.209C947.515 191.209 947.121 191.305 946.775 191.497C946.435 191.689 946.164 191.97 945.964 192.341C945.768 192.707 945.67 193.15 945.67 193.67ZM958.633 203.386C957.853 203.386 957.182 203.284 956.619 203.079C956.061 202.875 955.605 202.604 955.251 202.268C954.898 201.931 954.633 201.562 954.459 201.162L956.101 200.484C956.217 200.672 956.37 200.87 956.562 201.079C956.758 201.292 957.022 201.473 957.354 201.622C957.691 201.771 958.123 201.846 958.652 201.846C959.376 201.846 959.975 201.669 960.448 201.315C960.921 200.966 961.158 200.408 961.158 199.641V197.71H961.036C960.921 197.919 960.755 198.151 960.538 198.407C960.324 198.663 960.03 198.884 959.655 199.072C959.28 199.259 958.793 199.353 958.192 199.353C957.416 199.353 956.717 199.172 956.095 198.81C955.477 198.443 954.987 197.904 954.625 197.192C954.267 196.476 954.088 195.596 954.088 194.552C954.088 193.508 954.265 192.614 954.619 191.868C954.976 191.122 955.467 190.551 956.089 190.155C956.711 189.754 957.416 189.554 958.204 189.554C958.814 189.554 959.306 189.656 959.681 189.861C960.056 190.061 960.348 190.295 960.557 190.564C960.77 190.832 960.934 191.069 961.049 191.273H961.19V189.682H963.062V199.717C963.062 200.561 962.866 201.253 962.474 201.795C962.082 202.336 961.552 202.736 960.883 202.996C960.218 203.256 959.468 203.386 958.633 203.386ZM958.614 197.768C959.163 197.768 959.628 197.64 960.007 197.384C960.391 197.124 960.68 196.753 960.876 196.272C961.077 195.786 961.177 195.204 961.177 194.527C961.177 193.866 961.079 193.285 960.883 192.782C960.687 192.279 960.399 191.887 960.02 191.606C959.641 191.32 959.172 191.177 958.614 191.177C958.038 191.177 957.559 191.327 957.175 191.625C956.792 191.919 956.502 192.319 956.306 192.827C956.114 193.334 956.018 193.9 956.018 194.527C956.018 195.17 956.116 195.735 956.312 196.221C956.508 196.707 956.798 197.086 957.182 197.359C957.57 197.631 958.047 197.768 958.614 197.768Z" fill="#0D1019"/>
<rect x="786.001" y="340" width="232" height="48" rx="24" fill="#E8E8E8"/>
<path d="M820.78 355.681L819.209 356.236C819.084 356.28 819.001 356.394 819.001 356.52C819.001 356.646 819.084 356.76 819.209 356.803L820.78 357.359L821.368 358.843C821.413 358.961 821.534 359.04 821.668 359.04C821.801 359.04 821.922 358.961 821.968 358.843L822.555 357.359L824.126 356.803C824.251 356.76 824.334 356.646 824.334 356.52C824.334 356.394 824.251 356.28 824.126 356.236L822.555 355.681L821.968 354.197C821.922 354.079 821.801 354 821.668 354C821.534 354 821.413 354.079 821.368 354.197L820.78 355.681ZM812.922 369.569C812.143 370.305 812.143 371.502 812.922 372.242L814.363 373.605C815.143 374.341 816.409 374.341 817.193 373.605L833.08 358.587C833.859 357.851 833.859 356.654 833.08 355.914L831.638 354.555C830.859 353.819 829.593 353.819 828.809 354.555L812.922 369.569ZM831.193 357.252L826.818 361.387L825.847 360.469L830.222 356.335L831.193 357.252ZM811.313 358.615C811.126 358.682 811.001 358.851 811.001 359.04C811.001 359.229 811.126 359.398 811.313 359.465L813.668 360.3L814.551 362.525C814.622 362.702 814.801 362.82 815.001 362.82C815.201 362.82 815.38 362.702 815.451 362.525L816.334 360.3L818.688 359.465C818.876 359.398 819.001 359.229 819.001 359.04C819.001 358.851 818.876 358.682 818.688 358.615L816.334 357.78L815.451 355.555C815.38 355.378 815.201 355.26 815.001 355.26C814.801 355.26 814.622 355.378 814.551 355.555L813.668 357.78L811.313 358.615ZM825.98 368.695C825.793 368.762 825.668 368.931 825.668 369.12C825.668 369.309 825.793 369.478 825.98 369.545L828.334 370.38L829.218 372.605C829.288 372.782 829.468 372.9 829.668 372.9C829.868 372.9 830.047 372.782 830.118 372.605L831.001 370.38L833.355 369.545C833.543 369.478 833.668 369.309 833.668 369.12C833.668 368.931 833.543 368.762 833.355 368.695L831.001 367.86L830.118 365.635C830.047 365.458 829.868 365.34 829.668 365.34C829.468 365.34 829.288 365.458 829.218 365.635L828.334 367.86L825.98 368.695Z" fill="#0D1019"/>
<path d="M845.439 371V357.909H850.105C851.124 357.909 851.968 358.094 852.637 358.465C853.306 358.836 853.806 359.343 854.139 359.986C854.471 360.626 854.637 361.346 854.637 362.147C854.637 362.952 854.469 363.677 854.132 364.32C853.8 364.959 853.297 365.466 852.624 365.841C851.955 366.212 851.113 366.398 850.099 366.398H846.89V364.723H849.92C850.563 364.723 851.085 364.612 851.486 364.391C851.887 364.165 852.181 363.858 852.368 363.47C852.556 363.082 852.649 362.641 852.649 362.147C852.649 361.653 852.556 361.214 852.368 360.83C852.181 360.447 851.884 360.146 851.48 359.929C851.079 359.712 850.551 359.603 849.894 359.603H847.414V371H845.439ZM856.799 371V361.182H858.647V362.741H858.749C858.928 362.213 859.243 361.797 859.695 361.495C860.151 361.188 860.667 361.035 861.242 361.035C861.361 361.035 861.502 361.039 861.664 361.047C861.83 361.056 861.96 361.067 862.054 361.079V362.908C861.977 362.886 861.841 362.863 861.645 362.837C861.449 362.807 861.253 362.792 861.057 362.792C860.605 362.792 860.202 362.888 859.848 363.08C859.499 363.268 859.222 363.53 859.017 363.866C858.813 364.199 858.711 364.578 858.711 365.004V371H856.799ZM867.492 371.198C866.571 371.198 865.768 370.987 865.082 370.565C864.396 370.143 863.863 369.553 863.484 368.795C863.105 368.036 862.915 367.15 862.915 366.136C862.915 365.117 863.105 364.226 863.484 363.464C863.863 362.701 864.396 362.109 865.082 361.687C865.768 361.265 866.571 361.054 867.492 361.054C868.412 361.054 869.215 361.265 869.902 361.687C870.588 362.109 871.12 362.701 871.5 363.464C871.879 364.226 872.068 365.117 872.068 366.136C872.068 367.15 871.879 368.036 871.5 368.795C871.12 369.553 870.588 370.143 869.902 370.565C869.215 370.987 868.412 371.198 867.492 371.198ZM867.498 369.594C868.095 369.594 868.589 369.436 868.981 369.121C869.373 368.805 869.663 368.386 869.85 367.861C870.042 367.337 870.138 366.76 870.138 366.129C870.138 365.503 870.042 364.927 869.85 364.403C869.663 363.875 869.373 363.451 868.981 363.131C868.589 362.812 868.095 362.652 867.498 362.652C866.897 362.652 866.399 362.812 866.002 363.131C865.61 363.451 865.318 363.875 865.127 364.403C864.939 364.927 864.845 365.503 864.845 366.129C864.845 366.76 864.939 367.337 865.127 367.861C865.318 368.386 865.61 368.805 866.002 369.121C866.399 369.436 866.897 369.594 867.498 369.594ZM877.877 371.192C877.085 371.192 876.377 370.989 875.755 370.584C875.137 370.175 874.651 369.594 874.298 368.839C873.948 368.081 873.774 367.171 873.774 366.11C873.774 365.049 873.95 364.141 874.304 363.387C874.662 362.633 875.152 362.055 875.774 361.655C876.396 361.254 877.102 361.054 877.89 361.054C878.499 361.054 878.989 361.156 879.36 361.361C879.735 361.561 880.025 361.795 880.229 362.064C880.438 362.332 880.6 362.569 880.715 362.773H880.83V357.909H882.742V371H880.875V369.472H880.715C880.6 369.681 880.434 369.92 880.217 370.188C880.004 370.457 879.71 370.691 879.335 370.891C878.96 371.091 878.474 371.192 877.877 371.192ZM878.299 369.562C878.849 369.562 879.313 369.417 879.693 369.127C880.076 368.833 880.366 368.426 880.562 367.906C880.762 367.386 880.862 366.781 880.862 366.091C880.862 365.409 880.764 364.812 880.568 364.301C880.372 363.79 880.085 363.391 879.705 363.106C879.326 362.82 878.857 362.677 878.299 362.677C877.724 362.677 877.244 362.827 876.861 363.125C876.477 363.423 876.188 363.83 875.992 364.346C875.8 364.861 875.704 365.443 875.704 366.091C875.704 366.747 875.802 367.337 875.998 367.861C876.194 368.386 876.484 368.801 876.867 369.108C877.255 369.41 877.732 369.562 878.299 369.562ZM891.689 366.928V361.182H893.606V371H891.727V369.3H891.625C891.399 369.824 891.037 370.261 890.538 370.61C890.044 370.955 889.428 371.128 888.691 371.128C888.06 371.128 887.502 370.989 887.016 370.712C886.535 370.431 886.155 370.016 885.878 369.466C885.606 368.916 885.469 368.236 885.469 367.427V361.182H887.381V367.197C887.381 367.866 887.566 368.398 887.937 368.795C888.307 369.191 888.789 369.389 889.381 369.389C889.739 369.389 890.095 369.3 890.449 369.121C890.807 368.942 891.103 368.671 891.337 368.309C891.576 367.947 891.693 367.486 891.689 366.928ZM900.31 371.198C899.36 371.198 898.542 370.983 897.856 370.552C897.174 370.118 896.65 369.519 896.283 368.756C895.917 367.993 895.733 367.12 895.733 366.136C895.733 365.138 895.921 364.258 896.296 363.496C896.671 362.729 897.199 362.13 897.881 361.699C898.563 361.269 899.366 361.054 900.291 361.054C901.037 361.054 901.701 361.192 902.285 361.469C902.869 361.742 903.34 362.126 903.698 362.62C904.06 363.114 904.275 363.692 904.343 364.352H902.483C902.381 363.892 902.147 363.496 901.78 363.163C901.418 362.831 900.932 362.665 900.323 362.665C899.79 362.665 899.324 362.805 898.923 363.087C898.527 363.364 898.218 363.76 897.996 364.275C897.775 364.787 897.664 365.392 897.664 366.091C897.664 366.807 897.772 367.425 897.99 367.944C898.207 368.464 898.514 368.867 898.91 369.153C899.311 369.438 899.782 369.581 900.323 369.581C900.685 369.581 901.013 369.515 901.307 369.383C901.606 369.246 901.855 369.052 902.055 368.801C902.26 368.55 902.402 368.247 902.483 367.893H904.343C904.275 368.528 904.069 369.095 903.723 369.594C903.378 370.092 902.916 370.484 902.336 370.77C901.761 371.055 901.086 371.198 900.31 371.198ZM910.97 361.182V362.716H905.608V361.182H910.97ZM907.046 358.829H908.957V368.117C908.957 368.488 909.012 368.767 909.123 368.954C909.234 369.138 909.377 369.263 909.551 369.332C909.73 369.395 909.924 369.427 910.133 369.427C910.286 369.427 910.421 369.417 910.536 369.395C910.651 369.374 910.74 369.357 910.804 369.344L911.149 370.923C911.039 370.966 910.881 371.008 910.676 371.051C910.472 371.098 910.216 371.123 909.909 371.128C909.407 371.136 908.938 371.047 908.503 370.859C908.068 370.672 907.717 370.382 907.448 369.99C907.18 369.598 907.046 369.106 907.046 368.513V358.829ZM922.24 371H918.002V357.909H922.374C923.657 357.909 924.758 358.171 925.679 358.695C926.599 359.215 927.304 359.963 927.794 360.939C928.289 361.91 928.536 363.076 928.536 364.435C928.536 365.799 928.286 366.971 927.788 367.951C927.294 368.931 926.578 369.685 925.64 370.214C924.703 370.738 923.569 371 922.24 371ZM919.977 369.274H922.131C923.128 369.274 923.957 369.087 924.617 368.712C925.278 368.332 925.772 367.785 926.1 367.069C926.429 366.349 926.593 365.471 926.593 364.435C926.593 363.408 926.429 362.537 926.1 361.821C925.777 361.105 925.293 360.562 924.649 360.191C924.006 359.82 923.207 359.635 922.252 359.635H919.977V369.274ZM935.07 371.198C934.103 371.198 933.27 370.991 932.571 370.578C931.876 370.16 931.339 369.574 930.96 368.82C930.585 368.062 930.397 367.173 930.397 366.155C930.397 365.149 930.585 364.263 930.96 363.496C931.339 362.729 931.868 362.13 932.545 361.699C933.227 361.269 934.024 361.054 934.936 361.054C935.49 361.054 936.027 361.145 936.547 361.329C937.066 361.512 937.533 361.8 937.946 362.192C938.36 362.584 938.686 363.093 938.924 363.719C939.163 364.341 939.282 365.098 939.282 365.989V366.666H931.478V365.234H937.41C937.41 364.731 937.307 364.286 937.103 363.898C936.898 363.506 936.611 363.197 936.24 362.971C935.873 362.746 935.443 362.633 934.949 362.633C934.412 362.633 933.943 362.765 933.542 363.029C933.146 363.289 932.839 363.63 932.622 364.052C932.409 364.469 932.302 364.923 932.302 365.413V366.532C932.302 367.188 932.417 367.746 932.647 368.207C932.882 368.667 933.208 369.018 933.625 369.261C934.043 369.5 934.531 369.619 935.089 369.619C935.451 369.619 935.782 369.568 936.08 369.466C936.378 369.359 936.636 369.202 936.853 368.993C937.071 368.784 937.237 368.526 937.352 368.219L939.161 368.545C939.016 369.078 938.756 369.545 938.381 369.945C938.01 370.341 937.544 370.65 936.981 370.872C936.423 371.089 935.786 371.198 935.07 371.198ZM948.76 363.579L947.028 363.886C946.956 363.664 946.84 363.453 946.683 363.253C946.529 363.052 946.321 362.888 946.056 362.761C945.792 362.633 945.462 362.569 945.066 362.569C944.524 362.569 944.073 362.69 943.71 362.933C943.348 363.172 943.167 363.481 943.167 363.86C943.167 364.188 943.289 364.452 943.532 364.653C943.774 364.853 944.166 365.017 944.708 365.145L946.267 365.503C947.171 365.712 947.844 366.033 948.287 366.468C948.73 366.903 948.952 367.467 948.952 368.162C948.952 368.75 948.782 369.274 948.441 369.734C948.104 370.19 947.633 370.548 947.028 370.808C946.427 371.068 945.73 371.198 944.938 371.198C943.838 371.198 942.941 370.964 942.247 370.495C941.552 370.022 941.126 369.351 940.968 368.481L942.816 368.2C942.931 368.682 943.167 369.046 943.525 369.293C943.883 369.536 944.35 369.658 944.925 369.658C945.551 369.658 946.052 369.528 946.427 369.268C946.802 369.003 946.99 368.682 946.99 368.302C946.99 367.996 946.875 367.738 946.644 367.529C946.419 367.32 946.071 367.163 945.603 367.056L943.941 366.692C943.024 366.483 942.347 366.15 941.908 365.694C941.473 365.239 941.256 364.661 941.256 363.962C941.256 363.383 941.418 362.876 941.742 362.441C942.066 362.006 942.513 361.667 943.084 361.425C943.655 361.177 944.309 361.054 945.046 361.054C946.108 361.054 946.943 361.284 947.552 361.744C948.161 362.2 948.564 362.812 948.76 363.579ZM951.053 371V361.182H952.965V371H951.053ZM952.019 359.667C951.686 359.667 951.401 359.556 951.162 359.334C950.928 359.109 950.81 358.84 950.81 358.529C950.81 358.214 950.928 357.945 951.162 357.724C951.401 357.498 951.686 357.385 952.019 357.385C952.351 357.385 952.634 357.498 952.869 357.724C953.107 357.945 953.227 358.214 953.227 358.529C953.227 358.84 953.107 359.109 952.869 359.334C952.634 359.556 952.351 359.667 952.019 359.667ZM959.652 374.886C958.872 374.886 958.201 374.784 957.639 374.579C957.081 374.375 956.625 374.104 956.271 373.768C955.917 373.431 955.653 373.062 955.478 372.662L957.121 371.984C957.236 372.172 957.389 372.37 957.581 372.579C957.777 372.792 958.041 372.973 958.374 373.122C958.71 373.271 959.143 373.346 959.671 373.346C960.396 373.346 960.995 373.169 961.468 372.815C961.941 372.466 962.177 371.908 962.177 371.141V369.21H962.056C961.941 369.419 961.774 369.651 961.557 369.907C961.344 370.163 961.05 370.384 960.675 370.572C960.3 370.759 959.812 370.853 959.211 370.853C958.436 370.853 957.737 370.672 957.115 370.31C956.497 369.943 956.007 369.404 955.644 368.692C955.286 367.976 955.108 367.096 955.108 366.052C955.108 365.008 955.284 364.114 955.638 363.368C955.996 362.622 956.486 362.051 957.108 361.655C957.73 361.254 958.436 361.054 959.224 361.054C959.833 361.054 960.326 361.156 960.701 361.361C961.076 361.561 961.367 361.795 961.576 362.064C961.789 362.332 961.953 362.569 962.068 362.773H962.209V361.182H964.082V371.217C964.082 372.061 963.886 372.753 963.494 373.295C963.102 373.836 962.571 374.236 961.902 374.496C961.237 374.756 960.487 374.886 959.652 374.886ZM959.633 369.268C960.183 369.268 960.647 369.14 961.027 368.884C961.41 368.624 961.7 368.253 961.896 367.772C962.096 367.286 962.196 366.704 962.196 366.027C962.196 365.366 962.098 364.785 961.902 364.282C961.706 363.779 961.419 363.387 961.039 363.106C960.66 362.82 960.191 362.677 959.633 362.677C959.058 362.677 958.578 362.827 958.195 363.125C957.811 363.419 957.522 363.819 957.326 364.327C957.134 364.834 957.038 365.4 957.038 366.027C957.038 366.67 957.136 367.235 957.332 367.721C957.528 368.207 957.818 368.586 958.201 368.859C958.589 369.131 959.066 369.268 959.633 369.268ZM968.556 365.17V371H966.645V361.182H968.48V362.78H968.601C968.827 362.26 969.181 361.842 969.662 361.527C970.148 361.212 970.759 361.054 971.497 361.054C972.166 361.054 972.752 361.194 973.255 361.476C973.757 361.753 974.147 362.166 974.424 362.716C974.701 363.266 974.84 363.945 974.84 364.755V371H972.929V364.985C972.929 364.273 972.743 363.717 972.372 363.317C972.002 362.912 971.492 362.709 970.845 362.709C970.402 362.709 970.007 362.805 969.662 362.997C969.321 363.189 969.051 363.47 968.85 363.841C968.654 364.207 968.556 364.65 968.556 365.17ZM981.634 371.198C980.667 371.198 979.834 370.991 979.135 370.578C978.441 370.16 977.904 369.574 977.524 368.82C977.149 368.062 976.962 367.173 976.962 366.155C976.962 365.149 977.149 364.263 977.524 363.496C977.904 362.729 978.432 362.13 979.11 361.699C979.791 361.269 980.588 361.054 981.5 361.054C982.054 361.054 982.591 361.145 983.111 361.329C983.631 361.512 984.098 361.8 984.511 362.192C984.924 362.584 985.25 363.093 985.489 363.719C985.728 364.341 985.847 365.098 985.847 365.989V366.666H978.042V365.234H983.974C983.974 364.731 983.872 364.286 983.667 363.898C983.463 363.506 983.175 363.197 982.804 362.971C982.438 362.746 982.007 362.633 981.513 362.633C980.976 362.633 980.507 362.765 980.107 363.029C979.71 363.289 979.404 363.63 979.186 364.052C978.973 364.469 978.867 364.923 978.867 365.413V366.532C978.867 367.188 978.982 367.746 979.212 368.207C979.446 368.667 979.772 369.018 980.19 369.261C980.608 369.5 981.095 369.619 981.654 369.619C982.016 369.619 982.346 369.568 982.644 369.466C982.943 369.359 983.201 369.202 983.418 368.993C983.635 368.784 983.801 368.526 983.916 368.219L985.725 368.545C985.581 369.078 985.321 369.545 984.946 369.945C984.575 370.341 984.108 370.65 983.546 370.872C982.987 371.089 982.35 371.198 981.634 371.198ZM987.967 371V361.182H989.815V362.741H989.917C990.096 362.213 990.411 361.797 990.863 361.495C991.319 361.188 991.835 361.035 992.41 361.035C992.529 361.035 992.67 361.039 992.832 361.047C992.998 361.056 993.128 361.067 993.222 361.079V362.908C993.145 362.886 993.009 362.863 992.813 362.837C992.617 362.807 992.421 362.792 992.225 362.792C991.773 362.792 991.37 362.888 991.016 363.08C990.667 363.268 990.39 363.53 990.185 363.866C989.981 364.199 989.879 364.578 989.879 365.004V371H987.967Z" fill="#0D1019"/>
<path d="M697.9 301.624C694.153 301.624 691.123 304.667 691.123 308.411C691.123 312.156 694.153 315.199 697.9 315.199C701.647 315.199 704.678 312.156 704.678 308.411C704.678 304.667 701.647 301.624 697.9 301.624Z" fill="#FF0000" stroke="white" stroke-width="4"/>
<path d="M287.069 186C283.322 186 280.292 189.043 280.292 192.788C280.292 196.532 283.322 199.575 287.069 199.575C290.816 199.575 293.847 196.532 293.847 192.788C293.847 189.043 290.816 186 287.069 186Z" fill="#FF0000" stroke="white" stroke-width="4"/>
<path d="M263.777 355C260.03 355 257 358.043 257 361.788C257 365.532 260.03 368.575 263.777 368.575C267.524 368.575 270.555 365.532 270.555 361.788C270.555 358.043 267.524 355 263.777 355Z" fill="#FF0000" stroke="white" stroke-width="4"/>
<path d="M268.777 14.9998C265.03 14.9998 262 18.0428 262 21.7875C262 25.5322 265.03 28.5752 268.777 28.5752C272.524 28.5752 275.555 25.5322 275.555 21.7875C275.555 18.0428 272.524 14.9998 268.777 14.9998Z" fill="#FF0000" stroke="white" stroke-width="4"/>
<rect x="2" y="-0.00012207" width="213" height="48" rx="24" fill="#E8E8E8"/>
<path d="M33.9385 14.3288C33.5594 13.9062 32.926 13.8885 32.526 14.2891L26.6219 20.2145C25.7927 21.0465 25.7927 22.4464 26.6219 23.2784L32.526 29.2037C32.926 29.6043 33.5594 29.5867 33.9385 29.1641C34.3177 28.7415 34.301 28.0724 33.901 27.6718L27.9969 21.7464L33.901 15.8211C34.301 15.4205 34.3177 14.7514 33.9385 14.3288ZM39.8802 15.4073C39.8802 14.8526 39.5719 14.3464 39.0885 14.1219C38.6052 13.8974 38.0469 13.9898 37.6552 14.3596L30.9885 20.6987C30.7094 20.9672 30.5469 21.3458 30.5469 21.7464C30.5469 22.147 30.7094 22.5256 30.9885 22.7941L37.6552 29.1333C38.0469 29.5075 38.6094 29.5999 39.0885 29.371C39.5677 29.1421 39.8802 28.6402 39.8802 28.0856V25.2682H41.2135C43.4219 25.2682 45.2135 27.1611 45.2135 29.4943C45.2135 30.8325 44.6802 31.6029 44.2885 31.9903C44.0594 32.2148 43.8802 32.5185 43.8802 32.8487C43.8802 33.3285 44.2469 33.7159 44.701 33.7159C44.8177 33.7159 44.9344 33.6895 45.0385 33.6323C45.8177 33.1877 49.2135 30.9602 49.2135 25.9725C49.2135 21.6936 45.9302 18.2247 41.8802 18.2247H39.8802V15.4073Z" fill="#0D1019"/>
<path d="M68.5781 21.3479C68.5099 20.7428 68.2287 20.274 67.7344 19.9416C67.2401 19.605 66.6179 19.4367 65.8679 19.4367C65.331 19.4367 64.8665 19.5219 64.4744 19.6923C64.0824 19.8585 63.7777 20.0887 63.5604 20.3827C63.3473 20.6725 63.2408 21.0027 63.2408 21.3735C63.2408 21.6845 63.3132 21.953 63.4581 22.1789C63.6072 22.4047 63.8011 22.5943 64.0398 22.7477C64.2827 22.8969 64.5426 23.0226 64.8196 23.1249C65.0966 23.2229 65.3629 23.3039 65.6186 23.3678L66.897 23.7002C67.3146 23.8024 67.7429 23.9409 68.1818 24.1156C68.6207 24.2904 69.0277 24.5205 69.4027 24.806C69.7777 25.0915 70.0803 25.4452 70.3104 25.8671C70.5447 26.2889 70.6619 26.7939 70.6619 27.382C70.6619 28.1235 70.4702 28.7818 70.0866 29.3571C69.7074 29.9324 69.1555 30.3862 68.4311 30.7186C67.7109 31.051 66.8395 31.2172 65.8168 31.2172C64.8366 31.2172 63.9886 31.0617 63.2727 30.7506C62.5568 30.4395 61.9964 29.9985 61.5916 29.4274C61.1868 28.8522 60.9631 28.1703 60.9205 27.382H62.902C62.9403 27.855 63.0938 28.2492 63.3622 28.5645C63.6349 28.8756 63.9822 29.1078 64.4041 29.2612C64.8303 29.4104 65.2969 29.485 65.804 29.485C66.3622 29.485 66.8587 29.3976 67.2933 29.2229C67.7322 29.0439 68.0774 28.7968 68.3288 28.4814C68.5803 28.1618 68.706 27.7889 68.706 27.3628C68.706 26.975 68.5952 26.6575 68.3736 26.4104C68.1563 26.1632 67.8601 25.9587 67.4851 25.7968C67.1143 25.6348 66.6946 25.4921 66.2259 25.3685L64.679 24.9466C63.6307 24.6611 62.7997 24.2414 62.1861 23.6874C61.5767 23.1334 61.272 22.4004 61.272 21.4885C61.272 20.7343 61.4766 20.0759 61.8857 19.5134C62.2947 18.9509 62.8487 18.5141 63.5476 18.203C64.2464 17.8877 65.0348 17.73 65.9126 17.73C66.799 17.73 67.581 17.8855 68.2585 18.1966C68.9403 18.5077 69.4773 18.936 69.8693 19.4814C70.2614 20.0226 70.4659 20.6448 70.483 21.3479H68.5781ZM77.1003 31.198C76.133 31.198 75.2999 30.9914 74.601 30.578C73.9064 30.1604 73.3695 29.5745 72.9902 28.8202C72.6152 28.0617 72.4277 27.1732 72.4277 26.1547C72.4277 25.149 72.6152 24.2627 72.9902 23.4956C73.3695 22.7286 73.8979 22.1298 74.5755 21.6995C75.2573 21.2691 76.0542 21.0539 76.9661 21.0539C77.5201 21.0539 78.057 21.1455 78.5769 21.3287C79.0968 21.512 79.5634 21.7996 79.9767 22.1916C80.3901 22.5837 80.7161 23.0929 80.9547 23.7193C81.1934 24.3415 81.3127 25.0979 81.3127 25.9885V26.6661H73.508V25.2343H79.4398C79.4398 24.7314 79.3375 24.2861 79.133 23.8983C78.9284 23.5063 78.6408 23.1973 78.2701 22.9715C77.9036 22.7456 77.4732 22.6327 76.9789 22.6327C76.4419 22.6327 75.9732 22.7648 75.5726 23.029C75.1763 23.2889 74.8695 23.6298 74.6522 24.0517C74.4391 24.4693 74.3326 24.9232 74.3326 25.4132V26.5318C74.3326 27.1881 74.4476 27.7463 74.6777 28.2066C74.9121 28.6668 75.2381 29.0183 75.6557 29.2612C76.0733 29.4999 76.5613 29.6192 77.1195 29.6192C77.4817 29.6192 77.812 29.5681 78.1103 29.4658C78.4086 29.3593 78.6664 29.2016 78.8837 28.9928C79.101 28.784 79.2672 28.5262 79.3823 28.2193L81.1912 28.5453C81.0463 29.078 80.7864 29.5446 80.4114 29.9452C80.0407 30.3415 79.574 30.6504 79.0115 30.872C78.4533 31.0894 77.8162 31.198 77.1003 31.198ZM90.7905 23.5787L89.0582 23.8855C88.9858 23.6639 88.8707 23.453 88.7131 23.2527C88.5597 23.0524 88.3509 22.8884 88.0866 22.7605C87.8224 22.6327 87.4922 22.5688 87.0959 22.5688C86.5547 22.5688 86.103 22.6902 85.7408 22.9331C85.3786 23.1718 85.1974 23.4807 85.1974 23.86C85.1974 24.1881 85.3189 24.4523 85.5618 24.6526C85.8047 24.8529 86.1967 25.0169 86.7379 25.1448L88.2976 25.5027C89.201 25.7115 89.8743 26.0333 90.3175 26.4679C90.7607 26.9026 90.9822 27.4672 90.9822 28.1618C90.9822 28.7499 90.8118 29.274 90.4709 29.7343C90.1342 30.1902 89.6634 30.5482 89.0582 30.8081C88.4574 31.0681 87.7607 31.198 86.968 31.198C85.8686 31.198 84.9716 30.9637 84.277 30.4949C83.5824 30.0219 83.1563 29.3507 82.9986 28.4814L84.8459 28.2002C84.9609 28.6817 85.1974 29.046 85.5554 29.2932C85.9134 29.5361 86.38 29.6575 86.9553 29.6575C87.5817 29.6575 88.0824 29.5276 88.4574 29.2676C88.8324 29.0034 89.0199 28.6817 89.0199 28.3024C89.0199 27.9956 88.9048 27.7378 88.6747 27.529C88.4489 27.3202 88.1016 27.1625 87.6328 27.056L85.9709 26.6916C85.0547 26.4828 84.3771 26.1504 83.9382 25.6945C83.5036 25.2385 83.2862 24.6611 83.2862 23.9622C83.2862 23.3827 83.4482 22.8756 83.772 22.4409C84.0959 22.0063 84.5433 21.6675 85.1143 21.4246C85.6854 21.1774 86.3395 21.0539 87.0767 21.0539C88.1378 21.0539 88.973 21.284 89.5824 21.7442C90.1918 22.2002 90.5945 22.8117 90.7905 23.5787ZM100.441 23.5787L98.7086 23.8855C98.6362 23.6639 98.5211 23.453 98.3635 23.2527C98.21 23.0524 98.0012 22.8884 97.737 22.7605C97.4728 22.6327 97.1426 22.5688 96.7463 22.5688C96.2051 22.5688 95.7534 22.6902 95.3912 22.9331C95.0289 23.1718 94.8478 23.4807 94.8478 23.86C94.8478 24.1881 94.9693 24.4523 95.2122 24.6526C95.4551 24.8529 95.8471 25.0169 96.3883 25.1448L97.948 25.5027C98.8514 25.7115 99.5247 26.0333 99.9679 26.4679C100.411 26.9026 100.633 27.4672 100.633 28.1618C100.633 28.7499 100.462 29.274 100.121 29.7343C99.7846 30.1902 99.3137 30.5482 98.7086 30.8081C98.1078 31.0681 97.411 31.198 96.6184 31.198C95.519 31.198 94.622 30.9637 93.9274 30.4949C93.2328 30.0219 92.8066 29.3507 92.649 28.4814L94.4963 28.2002C94.6113 28.6817 94.8478 29.046 95.2058 29.2932C95.5637 29.5361 96.0304 29.6575 96.6056 29.6575C97.2321 29.6575 97.7328 29.5276 98.1078 29.2676C98.4828 29.0034 98.6703 28.6817 98.6703 28.3024C98.6703 27.9956 98.5552 27.7378 98.3251 27.529C98.0993 27.3202 97.752 27.1625 97.2832 27.056L95.6213 26.6916C94.7051 26.4828 94.0275 26.1504 93.5886 25.6945C93.1539 25.2385 92.9366 24.6611 92.9366 23.9622C92.9366 23.3827 93.0985 22.8756 93.4224 22.4409C93.7463 22.0063 94.1937 21.6675 94.7647 21.4246C95.3358 21.1774 95.9899 21.0539 96.7271 21.0539C97.7882 21.0539 98.6234 21.284 99.2328 21.7442C99.8422 22.2002 100.245 22.8117 100.441 23.5787ZM102.734 30.9999V21.1817H104.645V30.9999H102.734ZM103.699 19.6668C103.367 19.6668 103.081 19.556 102.843 19.3344C102.608 19.1085 102.491 18.8401 102.491 18.529C102.491 18.2137 102.608 17.9452 102.843 17.7236C103.081 17.4977 103.367 17.3848 103.699 17.3848C104.032 17.3848 104.315 17.4977 104.549 17.7236C104.788 17.9452 104.907 18.2137 104.907 18.529C104.907 18.8401 104.788 19.1085 104.549 19.3344C104.315 19.556 104.032 19.6668 103.699 19.6668ZM111.352 31.198C110.432 31.198 109.628 30.9871 108.942 30.5652C108.256 30.1433 107.724 29.5531 107.344 28.7946C106.965 28.0361 106.775 27.1497 106.775 26.1355C106.775 25.1171 106.965 24.2264 107.344 23.4637C107.724 22.7009 108.256 22.1085 108.942 21.6867C109.628 21.2648 110.432 21.0539 111.352 21.0539C112.273 21.0539 113.076 21.2648 113.762 21.6867C114.448 22.1085 114.981 22.7009 115.36 23.4637C115.739 24.2264 115.929 25.1171 115.929 26.1355C115.929 27.1497 115.739 28.0361 115.36 28.7946C114.981 29.5531 114.448 30.1433 113.762 30.5652C113.076 30.9871 112.273 31.198 111.352 31.198ZM111.358 29.5936C111.955 29.5936 112.449 29.436 112.841 29.1206C113.233 28.8053 113.523 28.3855 113.711 27.8614C113.903 27.3372 113.998 26.7598 113.998 26.1291C113.998 25.5027 113.903 24.9274 113.711 24.4033C113.523 23.8749 113.233 23.4509 112.841 23.1313C112.449 22.8117 111.955 22.6519 111.358 22.6519C110.758 22.6519 110.259 22.8117 109.863 23.1313C109.471 23.4509 109.179 23.8749 108.987 24.4033C108.8 24.9274 108.706 25.5027 108.706 26.1291C108.706 26.7598 108.8 27.3372 108.987 27.8614C109.179 28.3855 109.471 28.8053 109.863 29.1206C110.259 29.436 110.758 29.5936 111.358 29.5936ZM119.973 25.1703V30.9999H118.062V21.1817H119.897V22.7797H120.018C120.244 22.2598 120.598 21.8422 121.079 21.5269C121.565 21.2115 122.176 21.0539 122.914 21.0539C123.583 21.0539 124.169 21.1945 124.672 21.4757C125.174 21.7527 125.564 22.1661 125.841 22.7158C126.118 23.2655 126.257 23.9452 126.257 24.7548V30.9999H124.346V24.985C124.346 24.2733 124.16 23.7172 123.789 23.3166C123.419 22.9118 122.909 22.7094 122.262 22.7094C121.819 22.7094 121.424 22.8053 121.079 22.997C120.738 23.1888 120.468 23.47 120.267 23.8408C120.071 24.2073 119.973 24.6504 119.973 25.1703ZM133.737 30.9999V17.909H138.403C139.417 17.909 140.259 18.0837 140.928 18.4331C141.601 18.7825 142.104 19.2662 142.437 19.8841C142.769 20.4977 142.935 21.2073 142.935 22.0127C142.935 22.8138 142.767 23.5191 142.43 24.1284C142.098 24.7335 141.595 25.2044 140.922 25.5411C140.253 25.8777 139.411 26.046 138.397 26.046H134.862V24.3458H138.218C138.857 24.3458 139.377 24.2541 139.778 24.0709C140.182 23.8877 140.479 23.6213 140.666 23.2719C140.854 22.9225 140.947 22.5027 140.947 22.0127C140.947 21.5183 140.851 21.0901 140.66 20.7279C140.472 20.3656 140.176 20.0887 139.771 19.8969C139.371 19.7009 138.844 19.6029 138.192 19.6029H135.712V30.9999H133.737ZM140.199 25.0936L143.434 30.9999H141.184L138.013 25.0936H140.199ZM149.294 31.198C148.326 31.198 147.493 30.9914 146.794 30.578C146.1 30.1604 145.563 29.5745 145.184 28.8202C144.809 28.0617 144.621 27.1732 144.621 26.1547C144.621 25.149 144.809 24.2627 145.184 23.4956C145.563 22.7286 146.091 22.1298 146.769 21.6995C147.451 21.2691 148.248 21.0539 149.159 21.0539C149.713 21.0539 150.25 21.1455 150.77 21.3287C151.29 21.512 151.757 21.7996 152.17 22.1916C152.583 22.5837 152.909 23.0929 153.148 23.7193C153.387 24.3415 153.506 25.0979 153.506 25.9885V26.6661H145.701V25.2343H151.633C151.633 24.7314 151.531 24.2861 151.326 23.8983C151.122 23.5063 150.834 23.1973 150.463 22.9715C150.097 22.7456 149.667 22.6327 149.172 22.6327C148.635 22.6327 148.167 22.7648 147.766 23.029C147.37 23.2889 147.063 23.6298 146.846 24.0517C146.632 24.4693 146.526 24.9232 146.526 25.4132V26.5318C146.526 27.1881 146.641 27.7463 146.871 28.2066C147.105 28.6668 147.431 29.0183 147.849 29.2612C148.267 29.4999 148.755 29.6192 149.313 29.6192C149.675 29.6192 150.005 29.5681 150.304 29.4658C150.602 29.3593 150.86 29.2016 151.077 28.9928C151.294 28.784 151.461 28.5262 151.576 28.2193L153.385 28.5453C153.24 29.078 152.98 29.5446 152.605 29.9452C152.234 30.3415 151.767 30.6504 151.205 30.872C150.647 31.0894 150.01 31.198 149.294 31.198ZM155.627 34.6817V21.1817H157.493V22.7733H157.653C157.764 22.5688 157.923 22.3323 158.132 22.0638C158.341 21.7953 158.631 21.561 159.002 21.3607C159.372 21.1561 159.862 21.0539 160.472 21.0539C161.264 21.0539 161.972 21.2541 162.594 21.6547C163.216 22.0553 163.704 22.6327 164.058 23.387C164.416 24.1412 164.595 25.0489 164.595 26.11C164.595 27.171 164.418 28.0808 164.064 28.8394C163.71 29.5936 163.225 30.1753 162.607 30.5844C161.989 30.9892 161.284 31.1916 160.491 31.1916C159.894 31.1916 159.406 31.0915 159.027 30.8912C158.652 30.6909 158.358 30.4566 158.145 30.1881C157.932 29.9196 157.768 29.681 157.653 29.4722H157.538V34.6817H155.627ZM157.499 26.0908C157.499 26.7811 157.6 27.3862 157.8 27.9061C158 28.426 158.29 28.833 158.669 29.127C159.048 29.4168 159.513 29.5617 160.063 29.5617C160.634 29.5617 161.111 29.4104 161.494 29.1078C161.878 28.801 162.168 28.3855 162.364 27.8614C162.564 27.3372 162.664 26.747 162.664 26.0908C162.664 25.4431 162.566 24.8614 162.37 24.3458C162.178 23.8301 161.889 23.4232 161.501 23.1249C161.117 22.8266 160.638 22.6774 160.063 22.6774C159.509 22.6774 159.04 22.8202 158.656 23.1057C158.277 23.3912 157.99 23.7897 157.794 24.301C157.597 24.8124 157.499 25.409 157.499 26.0908ZM168.647 17.909V30.9999H166.736V17.909H168.647ZM174.076 31.2172C173.453 31.2172 172.891 31.1022 172.388 30.872C171.885 30.6377 171.487 30.2989 171.193 29.8557C170.903 29.4125 170.758 28.8692 170.758 28.2257C170.758 27.6718 170.865 27.2158 171.078 26.8578C171.291 26.4999 171.578 26.2165 171.941 26.0077C172.303 25.7989 172.708 25.6412 173.155 25.5347C173.603 25.4281 174.059 25.3472 174.523 25.2918C175.111 25.2236 175.588 25.1682 175.955 25.1256C176.321 25.0787 176.588 25.0041 176.754 24.9019C176.92 24.7996 177.003 24.6334 177.003 24.4033V24.3585C177.003 23.8003 176.846 23.3678 176.53 23.061C176.219 22.7541 175.755 22.6007 175.137 22.6007C174.493 22.6007 173.986 22.7435 173.615 23.029C173.249 23.3102 172.995 23.6235 172.855 23.9686L171.059 23.5595C171.272 22.9629 171.583 22.4814 171.992 22.1149C172.405 21.7442 172.88 21.4757 173.417 21.3095C173.954 21.1391 174.519 21.0539 175.111 21.0539C175.503 21.0539 175.919 21.1007 176.358 21.1945C176.801 21.284 177.214 21.4502 177.598 21.6931C177.985 21.936 178.303 22.2833 178.55 22.735C178.797 23.1824 178.921 23.7641 178.921 24.48V30.9999H177.054V29.6575H176.978C176.854 29.9047 176.669 30.1476 176.422 30.3862C176.174 30.6249 175.857 30.823 175.469 30.9807C175.081 31.1384 174.617 31.2172 174.076 31.2172ZM174.491 29.6831C175.02 29.6831 175.471 29.5787 175.846 29.3699C176.225 29.1611 176.513 28.8884 176.709 28.5517C176.909 28.2108 177.01 27.8465 177.01 27.4587V26.1931C176.941 26.2612 176.809 26.3252 176.613 26.3848C176.422 26.4402 176.202 26.4892 175.955 26.5318C175.708 26.5702 175.467 26.6064 175.233 26.6405C174.998 26.6703 174.802 26.6959 174.645 26.7172C174.274 26.7641 173.935 26.8429 173.628 26.9537C173.326 27.0645 173.083 27.2243 172.9 27.4331C172.721 27.6377 172.631 27.9104 172.631 28.2513C172.631 28.7243 172.806 29.0823 173.155 29.3252C173.505 29.5638 173.95 29.6831 174.491 29.6831ZM182.323 34.6817C182.037 34.6817 181.778 34.6583 181.543 34.6114C181.309 34.5688 181.134 34.5219 181.019 34.4708L181.479 32.9047C181.829 32.9985 182.14 33.0389 182.412 33.0262C182.685 33.0134 182.926 32.9111 183.135 32.7193C183.348 32.5276 183.535 32.2144 183.697 31.7797L183.934 31.1277L180.341 21.1817H182.387L184.873 28.801H184.976L187.462 21.1817H189.514L185.468 32.3102C185.28 32.8216 185.042 33.2541 184.752 33.6078C184.462 33.9658 184.117 34.2343 183.716 34.4132C183.316 34.5922 182.851 34.6817 182.323 34.6817Z" fill="#0D1019"/>
<rect x="62" y="168.5" width="162" height="48" rx="24" fill="#E8E8E8"/>
<path d="M98.3333 192.344V183.181C98.3333 182.812 98.625 182.5 99 182.5C104.154 182.5 108.333 186.614 108.333 191.687C108.333 192.057 108.017 192.344 107.642 192.344H98.3333ZM87 193.656C87 188.681 90.7542 184.563 95.625 183.907C96.0083 183.853 96.3333 184.157 96.3333 184.538V194.312L102.854 200.731C103.133 201.006 103.112 201.457 102.792 201.679C101.158 202.827 99.1583 203.5 97 203.5C91.4792 203.5 87 199.095 87 193.656ZM108.933 194.312C109.321 194.312 109.625 194.632 109.575 195.01C109.254 197.302 108.133 199.341 106.496 200.846C106.246 201.076 105.854 201.059 105.612 200.817L99 194.312H108.933Z" fill="#0D1019"/>
<path d="M122.544 199.5H120.447L125.158 186.409H127.44L132.151 199.5H130.055L126.354 188.787H126.251L122.544 199.5ZM122.896 194.373H129.697V196.035H122.896V194.373ZM135.8 193.67V199.5H133.888V189.682H135.723V191.28H135.844C136.07 190.76 136.424 190.342 136.905 190.027C137.391 189.712 138.003 189.554 138.74 189.554C139.409 189.554 139.995 189.694 140.498 189.976C141.001 190.253 141.39 190.666 141.667 191.216C141.944 191.766 142.083 192.445 142.083 193.255V199.5H140.172V193.485C140.172 192.773 139.986 192.217 139.616 191.817C139.245 191.412 138.736 191.209 138.088 191.209C137.645 191.209 137.251 191.305 136.905 191.497C136.564 191.689 136.294 191.97 136.094 192.341C135.898 192.707 135.8 193.15 135.8 193.67ZM147.503 199.717C146.881 199.717 146.319 199.602 145.816 199.372C145.313 199.138 144.915 198.799 144.621 198.356C144.331 197.913 144.186 197.369 144.186 196.726C144.186 196.172 144.292 195.716 144.506 195.358C144.719 195 145.006 194.716 145.368 194.508C145.731 194.299 146.135 194.141 146.583 194.035C147.03 193.928 147.486 193.847 147.951 193.792C148.539 193.724 149.016 193.668 149.383 193.626C149.749 193.579 150.015 193.504 150.182 193.402C150.348 193.3 150.431 193.133 150.431 192.903V192.859C150.431 192.3 150.273 191.868 149.958 191.561C149.647 191.254 149.182 191.101 148.564 191.101C147.921 191.101 147.414 191.243 147.043 191.529C146.677 191.81 146.423 192.123 146.282 192.469L144.486 192.06C144.699 191.463 145.01 190.981 145.42 190.615C145.833 190.244 146.308 189.976 146.845 189.81C147.382 189.639 147.947 189.554 148.539 189.554C148.931 189.554 149.346 189.601 149.785 189.694C150.229 189.784 150.642 189.95 151.025 190.193C151.413 190.436 151.731 190.783 151.978 191.235C152.225 191.682 152.349 192.264 152.349 192.98V199.5H150.482V198.158H150.405C150.282 198.405 150.096 198.648 149.849 198.886C149.602 199.125 149.285 199.323 148.897 199.481C148.509 199.638 148.045 199.717 147.503 199.717ZM147.919 198.183C148.447 198.183 148.899 198.079 149.274 197.87C149.653 197.661 149.941 197.388 150.137 197.052C150.337 196.711 150.437 196.346 150.437 195.959V194.693C150.369 194.761 150.237 194.825 150.041 194.885C149.849 194.94 149.63 194.989 149.383 195.032C149.135 195.07 148.895 195.106 148.66 195.141C148.426 195.17 148.23 195.196 148.072 195.217C147.702 195.264 147.363 195.343 147.056 195.454C146.753 195.565 146.51 195.724 146.327 195.933C146.148 196.138 146.059 196.41 146.059 196.751C146.059 197.224 146.233 197.582 146.583 197.825C146.932 198.064 147.378 198.183 147.919 198.183ZM156.805 186.409V199.5H154.894V186.409H156.805ZM160.585 203.182C160.299 203.182 160.039 203.158 159.805 203.111C159.57 203.069 159.396 203.022 159.281 202.971L159.741 201.405C160.09 201.498 160.401 201.539 160.674 201.526C160.947 201.513 161.188 201.411 161.396 201.219C161.61 201.028 161.797 200.714 161.959 200.28L162.195 199.628L158.603 189.682H160.649L163.135 197.301H163.237L165.724 189.682H167.776L163.73 200.81C163.542 201.322 163.303 201.754 163.014 202.108C162.724 202.466 162.379 202.734 161.978 202.913C161.578 203.092 161.113 203.182 160.585 203.182ZM174.155 189.682V191.216H168.792V189.682H174.155ZM170.23 187.329H172.142V196.617C172.142 196.988 172.197 197.267 172.308 197.454C172.419 197.638 172.561 197.763 172.736 197.832C172.915 197.895 173.109 197.927 173.318 197.927C173.471 197.927 173.605 197.917 173.72 197.895C173.835 197.874 173.925 197.857 173.989 197.844L174.334 199.423C174.223 199.466 174.066 199.508 173.861 199.551C173.656 199.598 173.401 199.623 173.094 199.628C172.591 199.636 172.122 199.547 171.688 199.359C171.253 199.172 170.901 198.882 170.633 198.49C170.365 198.098 170.23 197.606 170.23 197.013V187.329ZM176.269 199.5V189.682H178.18V199.5H176.269ZM177.234 188.167C176.902 188.167 176.616 188.056 176.378 187.834C176.143 187.609 176.026 187.34 176.026 187.029C176.026 186.714 176.143 186.445 176.378 186.224C176.616 185.998 176.902 185.885 177.234 185.885C177.567 185.885 177.85 185.998 178.085 186.224C178.323 186.445 178.442 186.714 178.442 187.029C178.442 187.34 178.323 187.609 178.085 187.834C177.85 188.056 177.567 188.167 177.234 188.167ZM184.887 199.698C183.937 199.698 183.119 199.483 182.433 199.052C181.751 198.618 181.227 198.019 180.86 197.256C180.494 196.493 180.311 195.62 180.311 194.636C180.311 193.638 180.498 192.758 180.873 191.996C181.248 191.229 181.776 190.63 182.458 190.199C183.14 189.769 183.943 189.554 184.868 189.554C185.614 189.554 186.279 189.692 186.862 189.969C187.446 190.242 187.917 190.626 188.275 191.12C188.637 191.614 188.852 192.192 188.921 192.852H187.061C186.958 192.392 186.724 191.996 186.357 191.663C185.995 191.331 185.509 191.165 184.9 191.165C184.367 191.165 183.901 191.305 183.5 191.587C183.104 191.864 182.795 192.26 182.573 192.775C182.352 193.287 182.241 193.892 182.241 194.591C182.241 195.307 182.35 195.925 182.567 196.444C182.784 196.964 183.091 197.367 183.487 197.653C183.888 197.938 184.359 198.081 184.9 198.081C185.262 198.081 185.59 198.015 185.884 197.883C186.183 197.746 186.432 197.552 186.632 197.301C186.837 197.05 186.98 196.747 187.061 196.393H188.921C188.852 197.028 188.646 197.595 188.301 198.094C187.955 198.592 187.493 198.984 186.914 199.27C186.338 199.555 185.663 199.698 184.887 199.698ZM198.322 192.079L196.589 192.386C196.517 192.164 196.402 191.953 196.244 191.753C196.091 191.552 195.882 191.388 195.618 191.261C195.354 191.133 195.023 191.069 194.627 191.069C194.086 191.069 193.634 191.19 193.272 191.433C192.91 191.672 192.729 191.981 192.729 192.36C192.729 192.688 192.85 192.952 193.093 193.153C193.336 193.353 193.728 193.517 194.269 193.645L195.829 194.003C196.732 194.212 197.406 194.533 197.849 194.968C198.292 195.403 198.513 195.967 198.513 196.662C198.513 197.25 198.343 197.774 198.002 198.234C197.665 198.69 197.195 199.048 196.589 199.308C195.989 199.568 195.292 199.698 194.499 199.698C193.4 199.698 192.503 199.464 191.808 198.995C191.114 198.522 190.688 197.851 190.53 196.981L192.377 196.7C192.492 197.182 192.729 197.546 193.087 197.793C193.445 198.036 193.911 198.158 194.487 198.158C195.113 198.158 195.614 198.028 195.989 197.768C196.364 197.503 196.551 197.182 196.551 196.802C196.551 196.496 196.436 196.238 196.206 196.029C195.98 195.82 195.633 195.663 195.164 195.556L193.502 195.192C192.586 194.983 191.908 194.65 191.469 194.194C191.035 193.739 190.817 193.161 190.817 192.462C190.817 191.883 190.979 191.376 191.303 190.941C191.627 190.506 192.075 190.167 192.646 189.925C193.217 189.677 193.871 189.554 194.608 189.554C195.669 189.554 196.504 189.784 197.114 190.244C197.723 190.7 198.126 191.312 198.322 192.079Z" fill="#0D1019"/>
<rect y="340" width="222" height="48" rx="24" fill="#E8E8E8"/>
<path d="M28.6657 355C28.6657 354.469 28.8764 353.961 29.2515 353.586C29.6265 353.211 30.1352 353 30.6657 353C31.1961 353 31.7048 353.211 32.0799 353.586C32.455 353.961 32.6657 354.469 32.6657 355C32.6657 355.53 32.455 356.039 32.0799 356.414C31.7048 356.789 31.1961 357 30.6657 357C30.1352 357 29.6265 356.789 29.2515 356.414C28.8764 356.039 28.6657 355.53 28.6657 355ZM30.3323 367.667V373C30.3323 373.737 29.7365 374.333 28.999 374.333C28.2615 374.333 27.6657 373.737 27.6657 373V363.704L26.474 365.687C26.0948 366.317 25.274 366.521 24.6448 366.142C24.0157 365.762 23.8115 364.942 24.1907 364.312L26.6198 360.271C27.3448 359.067 28.6448 358.329 30.049 358.329H31.2865C32.6907 358.329 33.9907 359.067 34.7157 360.271L36.5865 363.383C35.9157 364.117 35.3948 364.987 35.0615 365.946C34.9823 365.871 34.9157 365.783 34.8573 365.683L33.6657 363.704V373C33.6657 373.737 33.0698 374.333 32.3323 374.333C31.5948 374.333 30.999 373.737 30.999 373V367.667H30.3323ZM41.999 362.333C43.5903 362.333 45.1164 362.965 46.2416 364.091C47.3669 365.216 47.999 366.742 47.999 368.333C47.999 369.925 47.3669 371.451 46.2416 372.576C45.1164 373.701 43.5903 374.333 41.999 374.333C40.4077 374.333 38.8816 373.701 37.7564 372.576C36.6311 371.451 35.999 369.925 35.999 368.333C35.999 366.742 36.6311 365.216 37.7564 364.091C38.8816 362.965 40.4077 362.333 41.999 362.333ZM44.4698 366.804C44.7282 366.546 44.7282 366.121 44.4698 365.862C44.2115 365.604 43.7865 365.604 43.5282 365.862L41.999 367.392L40.4698 365.862C40.2115 365.604 39.7865 365.604 39.5282 365.862C39.2698 366.121 39.2698 366.546 39.5282 366.804L41.0573 368.333L39.5282 369.862C39.2698 370.121 39.2698 370.546 39.5282 370.804C39.7865 371.062 40.2115 371.062 40.4698 370.804L41.999 369.275L43.5282 370.804C43.7865 371.062 44.2115 371.062 44.4698 370.804C44.7282 370.546 44.7282 370.121 44.4698 369.862L42.9407 368.333L44.4698 366.804Z" fill="#0D1019"/>
<path d="M67.8565 357.909H69.8381V366.519C69.8381 367.435 69.6229 368.247 69.1925 368.954C68.7621 369.658 68.157 370.212 67.3771 370.616C66.5973 371.017 65.6832 371.217 64.6349 371.217C63.5909 371.217 62.679 371.017 61.8991 370.616C61.1193 370.212 60.5142 369.658 60.0838 368.954C59.6534 368.247 59.4382 367.435 59.4382 366.519V357.909H61.4134V366.359C61.4134 366.952 61.5433 367.478 61.8033 367.938C62.0675 368.398 62.4403 368.761 62.9219 369.025C63.4034 369.285 63.9744 369.415 64.6349 369.415C65.2997 369.415 65.8729 369.285 66.3544 369.025C66.8402 368.761 67.2109 368.398 67.4666 367.938C67.7266 367.478 67.8565 366.952 67.8565 366.359V357.909ZM79.9135 363.579L78.1813 363.886C78.1088 363.664 77.9938 363.453 77.8361 363.253C77.6827 363.052 77.4739 362.888 77.2097 362.761C76.9455 362.633 76.6152 362.569 76.2189 362.569C75.6777 362.569 75.226 362.69 74.8638 362.933C74.5016 363.172 74.3205 363.481 74.3205 363.86C74.3205 364.188 74.4419 364.452 74.6848 364.653C74.9277 364.853 75.3198 365.017 75.861 365.145L77.4206 365.503C78.324 365.712 78.9973 366.033 79.4405 366.468C79.8837 366.903 80.1053 367.467 80.1053 368.162C80.1053 368.75 79.9348 369.274 79.5939 369.734C79.2573 370.19 78.7864 370.548 78.1813 370.808C77.5804 371.068 76.8837 371.198 76.0911 371.198C74.9917 371.198 74.0946 370.964 73.4 370.495C72.7054 370.022 72.2793 369.351 72.1216 368.481L73.9689 368.2C74.084 368.682 74.3205 369.046 74.6784 369.293C75.0364 369.536 75.503 369.658 76.0783 369.658C76.7047 369.658 77.2054 369.528 77.5804 369.268C77.9554 369.003 78.1429 368.682 78.1429 368.302C78.1429 367.996 78.0279 367.738 77.7978 367.529C77.5719 367.32 77.2246 367.163 76.7559 367.056L75.0939 366.692C74.1777 366.483 73.5002 366.15 73.0613 365.694C72.6266 365.239 72.4093 364.661 72.4093 363.962C72.4093 363.383 72.5712 362.876 72.8951 362.441C73.2189 362.006 73.6664 361.667 74.2374 361.425C74.8084 361.177 75.4625 361.054 76.1998 361.054C77.2608 361.054 78.0961 361.284 78.7054 361.744C79.3148 362.2 79.7175 362.812 79.9135 363.579ZM86.4382 371.198C85.4709 371.198 84.6378 370.991 83.9389 370.578C83.2443 370.16 82.7074 369.574 82.3281 368.82C81.9531 368.062 81.7656 367.173 81.7656 366.155C81.7656 365.149 81.9531 364.263 82.3281 363.496C82.7074 362.729 83.2358 362.13 83.9134 361.699C84.5952 361.269 85.392 361.054 86.304 361.054C86.858 361.054 87.3949 361.145 87.9148 361.329C88.4347 361.512 88.9013 361.8 89.3146 362.192C89.728 362.584 90.054 363.093 90.2926 363.719C90.5313 364.341 90.6506 365.098 90.6506 365.989V366.666H82.8459V365.234H88.7777C88.7777 364.731 88.6754 364.286 88.4709 363.898C88.2663 363.506 87.9787 363.197 87.608 362.971C87.2415 362.746 86.8111 362.633 86.3168 362.633C85.7798 362.633 85.3111 362.765 84.9105 363.029C84.5142 363.289 84.2074 363.63 83.9901 364.052C83.777 364.469 83.6705 364.923 83.6705 365.413V366.532C83.6705 367.188 83.7855 367.746 84.0156 368.207C84.25 368.667 84.576 369.018 84.9936 369.261C85.4112 369.5 85.8991 369.619 86.4574 369.619C86.8196 369.619 87.1499 369.568 87.4482 369.466C87.7464 369.359 88.0043 369.202 88.2216 368.993C88.4389 368.784 88.6051 368.526 88.7202 368.219L90.5291 368.545C90.3842 369.078 90.1243 369.545 89.7493 369.945C89.3786 370.341 88.9119 370.65 88.3494 370.872C87.7912 371.089 87.1541 371.198 86.4382 371.198ZM92.7711 371V361.182H94.6184V362.741H94.7207C94.8997 362.213 95.215 361.797 95.6667 361.495C96.1227 361.188 96.6383 361.035 97.2136 361.035C97.3329 361.035 97.4735 361.039 97.6355 361.047C97.8017 361.056 97.9316 361.067 98.0254 361.079V362.908C97.9487 362.886 97.8123 362.863 97.6163 362.837C97.4203 362.807 97.2243 362.792 97.0282 362.792C96.5765 362.792 96.1738 362.888 95.8201 363.08C95.4707 363.268 95.1937 363.53 94.9892 363.866C94.7846 364.199 94.6824 364.578 94.6824 365.004V371H92.7711ZM104.596 371V357.909H112.714V359.609H106.572V363.598H112.133V365.292H106.572V371H104.596ZM114.867 371V361.182H116.714V362.741H116.816C116.995 362.213 117.311 361.797 117.762 361.495C118.218 361.188 118.734 361.035 119.309 361.035C119.429 361.035 119.569 361.039 119.731 361.047C119.897 361.056 120.027 361.067 120.121 361.079V362.908C120.044 362.886 119.908 362.863 119.712 362.837C119.516 362.807 119.32 362.792 119.124 362.792C118.672 362.792 118.27 362.888 117.916 363.08C117.566 363.268 117.289 363.53 117.085 363.866C116.88 364.199 116.778 364.578 116.778 365.004V371H114.867ZM127.994 366.928V361.182H129.912V371H128.033V369.3H127.931C127.705 369.824 127.343 370.261 126.844 370.61C126.35 370.955 125.734 371.128 124.997 371.128C124.366 371.128 123.808 370.989 123.322 370.712C122.84 370.431 122.461 370.016 122.184 369.466C121.911 368.916 121.775 368.236 121.775 367.427V361.182H123.686V367.197C123.686 367.866 123.872 368.398 124.242 368.795C124.613 369.191 125.095 369.389 125.687 369.389C126.045 369.389 126.401 369.3 126.754 369.121C127.112 368.942 127.409 368.671 127.643 368.309C127.882 367.947 127.999 367.486 127.994 366.928ZM139.837 363.579L138.105 363.886C138.033 363.664 137.918 363.453 137.76 363.253C137.607 363.052 137.398 362.888 137.134 362.761C136.869 362.633 136.539 362.569 136.143 362.569C135.602 362.569 135.15 362.69 134.788 362.933C134.425 363.172 134.244 363.481 134.244 363.86C134.244 364.188 134.366 364.452 134.609 364.653C134.852 364.853 135.244 365.017 135.785 365.145L137.344 365.503C138.248 365.712 138.921 366.033 139.364 366.468C139.808 366.903 140.029 367.467 140.029 368.162C140.029 368.75 139.859 369.274 139.518 369.734C139.181 370.19 138.71 370.548 138.105 370.808C137.504 371.068 136.808 371.198 136.015 371.198C134.915 371.198 134.018 370.964 133.324 370.495C132.629 370.022 132.203 369.351 132.045 368.481L133.893 368.2C134.008 368.682 134.244 369.046 134.602 369.293C134.96 369.536 135.427 369.658 136.002 369.658C136.629 369.658 137.129 369.528 137.504 369.268C137.879 369.003 138.067 368.682 138.067 368.302C138.067 367.996 137.952 367.738 137.722 367.529C137.496 367.32 137.148 367.163 136.68 367.056L135.018 366.692C134.102 366.483 133.424 366.15 132.985 365.694C132.55 365.239 132.333 364.661 132.333 363.962C132.333 363.383 132.495 362.876 132.819 362.441C133.143 362.006 133.59 361.667 134.161 361.425C134.732 361.177 135.386 361.054 136.124 361.054C137.185 361.054 138.02 361.284 138.629 361.744C139.239 362.2 139.641 362.812 139.837 363.579ZM146.714 361.182V362.716H141.351V361.182H146.714ZM142.789 358.829H144.7V368.117C144.7 368.488 144.756 368.767 144.866 368.954C144.977 369.138 145.12 369.263 145.295 369.332C145.474 369.395 145.667 369.427 145.876 369.427C146.03 369.427 146.164 369.417 146.279 369.395C146.394 369.374 146.483 369.357 146.547 369.344L146.893 370.923C146.782 370.966 146.624 371.008 146.42 371.051C146.215 371.098 145.959 371.123 145.653 371.128C145.15 371.136 144.681 371.047 144.246 370.859C143.812 370.672 143.46 370.382 143.192 369.99C142.923 369.598 142.789 369.106 142.789 368.513V358.829ZM148.828 371V361.182H150.675V362.741H150.777C150.956 362.213 151.272 361.797 151.723 361.495C152.179 361.188 152.695 361.035 153.27 361.035C153.39 361.035 153.53 361.039 153.692 361.047C153.858 361.056 153.988 361.067 154.082 361.079V362.908C154.005 362.886 153.869 362.863 153.673 362.837C153.477 362.807 153.281 362.792 153.085 362.792C152.633 362.792 152.23 362.888 151.877 363.08C151.527 363.268 151.25 363.53 151.046 363.866C150.841 364.199 150.739 364.578 150.739 365.004V371H148.828ZM158.505 371.217C157.883 371.217 157.321 371.102 156.818 370.872C156.315 370.638 155.917 370.299 155.623 369.856C155.333 369.413 155.188 368.869 155.188 368.226C155.188 367.672 155.294 367.216 155.507 366.858C155.721 366.5 156.008 366.216 156.37 366.008C156.733 365.799 157.137 365.641 157.585 365.535C158.032 365.428 158.488 365.347 158.953 365.292C159.541 365.224 160.018 365.168 160.385 365.126C160.751 365.079 161.017 365.004 161.184 364.902C161.35 364.8 161.433 364.633 161.433 364.403V364.359C161.433 363.8 161.275 363.368 160.96 363.061C160.649 362.754 160.184 362.601 159.566 362.601C158.923 362.601 158.416 362.743 158.045 363.029C157.679 363.31 157.425 363.623 157.284 363.969L155.488 363.56C155.701 362.963 156.012 362.481 156.422 362.115C156.835 361.744 157.31 361.476 157.847 361.31C158.384 361.139 158.949 361.054 159.541 361.054C159.933 361.054 160.348 361.101 160.787 361.194C161.23 361.284 161.644 361.45 162.027 361.693C162.415 361.936 162.733 362.283 162.98 362.735C163.227 363.182 163.35 363.764 163.35 364.48V371H161.484V369.658H161.407C161.284 369.905 161.098 370.148 160.851 370.386C160.604 370.625 160.287 370.823 159.899 370.981C159.511 371.138 159.047 371.217 158.505 371.217ZM158.921 369.683C159.449 369.683 159.901 369.579 160.276 369.37C160.655 369.161 160.943 368.888 161.139 368.552C161.339 368.211 161.439 367.846 161.439 367.459V366.193C161.371 366.261 161.239 366.325 161.043 366.385C160.851 366.44 160.632 366.489 160.385 366.532C160.137 366.57 159.897 366.606 159.662 366.641C159.428 366.67 159.232 366.696 159.074 366.717C158.703 366.764 158.365 366.843 158.058 366.954C157.755 367.065 157.512 367.224 157.329 367.433C157.15 367.638 157.061 367.91 157.061 368.251C157.061 368.724 157.235 369.082 157.585 369.325C157.934 369.564 158.38 369.683 158.921 369.683ZM170.479 361.182V362.716H165.116V361.182H170.479ZM166.555 358.829H168.466V368.117C168.466 368.488 168.521 368.767 168.632 368.954C168.743 369.138 168.885 369.263 169.06 369.332C169.239 369.395 169.433 369.427 169.642 369.427C169.795 369.427 169.93 369.417 170.045 369.395C170.16 369.374 170.249 369.357 170.313 369.344L170.658 370.923C170.547 370.966 170.39 371.008 170.185 371.051C169.981 371.098 169.725 371.123 169.418 371.128C168.915 371.136 168.447 371.047 168.012 370.859C167.577 370.672 167.226 370.382 166.957 369.99C166.689 369.598 166.555 369.106 166.555 368.513V358.829ZM172.593 371V361.182H174.505V371H172.593ZM173.559 359.667C173.226 359.667 172.941 359.556 172.702 359.334C172.468 359.109 172.35 358.84 172.35 358.529C172.35 358.214 172.468 357.945 172.702 357.724C172.941 357.498 173.226 357.385 173.559 357.385C173.891 357.385 174.174 357.498 174.409 357.724C174.647 357.945 174.767 358.214 174.767 358.529C174.767 358.84 174.647 359.109 174.409 359.334C174.174 359.556 173.891 359.667 173.559 359.667ZM181.211 371.198C180.291 371.198 179.488 370.987 178.802 370.565C178.116 370.143 177.583 369.553 177.204 368.795C176.824 368.036 176.635 367.15 176.635 366.136C176.635 365.117 176.824 364.226 177.204 363.464C177.583 362.701 178.116 362.109 178.802 361.687C179.488 361.265 180.291 361.054 181.211 361.054C182.132 361.054 182.935 361.265 183.621 361.687C184.307 362.109 184.84 362.701 185.219 363.464C185.599 364.226 185.788 365.117 185.788 366.136C185.788 367.15 185.599 368.036 185.219 368.795C184.84 369.553 184.307 370.143 183.621 370.565C182.935 370.987 182.132 371.198 181.211 371.198ZM181.218 369.594C181.814 369.594 182.309 369.436 182.701 369.121C183.093 368.805 183.383 368.386 183.57 367.861C183.762 367.337 183.858 366.76 183.858 366.129C183.858 365.503 183.762 364.927 183.57 364.403C183.383 363.875 183.093 363.451 182.701 363.131C182.309 362.812 181.814 362.652 181.218 362.652C180.617 362.652 180.118 362.812 179.722 363.131C179.33 363.451 179.038 363.875 178.846 364.403C178.659 364.927 178.565 365.503 178.565 366.129C178.565 366.76 178.659 367.337 178.846 367.861C179.038 368.386 179.33 368.805 179.722 369.121C180.118 369.436 180.617 369.594 181.218 369.594ZM189.833 365.17V371H187.922V361.182H189.756V362.78H189.877C190.103 362.26 190.457 361.842 190.939 361.527C191.424 361.212 192.036 361.054 192.773 361.054C193.442 361.054 194.028 361.194 194.531 361.476C195.034 361.753 195.424 362.166 195.701 362.716C195.978 363.266 196.116 363.945 196.116 364.755V371H194.205V364.985C194.205 364.273 194.02 363.717 193.649 363.317C193.278 362.912 192.769 362.709 192.121 362.709C191.678 362.709 191.284 362.805 190.939 362.997C190.598 363.189 190.327 363.47 190.127 363.841C189.931 364.207 189.833 364.65 189.833 365.17Z" fill="#0D1019"/>
<path d="M470.699 125C494.613 111.193 533.387 111.193 557.301 125L647.368 177C671.283 190.807 671.283 213.193 647.368 227L557.301 279C533.387 292.807 494.613 292.807 470.699 279L380.632 227C356.717 213.193 356.717 190.807 380.632 177L470.699 125Z" fill="#CD3535"/>
<path d="M362.701 182.326L362.701 201.928L380.462 213.835L380.462 182.326L362.701 182.326Z" fill="#CD3535"/>
<path d="M665.272 181.261L665.272 200.864L647.512 212.77L647.512 181.261L665.272 181.261Z" fill="#CD3535"/>
<rect width="204" height="204" rx="50" transform="matrix(0.866025 0.5 -0.866025 0.5 514 80)" fill="#F82727"/>
<path d="M529.321 201.693C532.926 203.774 538.727 203.8 542.278 201.75C545.829 199.7 545.785 196.351 542.179 194.269C538.574 192.187 532.773 192.162 529.222 194.212C525.671 196.262 525.716 199.611 529.321 201.693Z" fill="#FF0000"/>
<path d="M475.029 144.5L481.599 148.293L470.199 154.875L470.267 154.914L488.931 152.526L495.813 156.499L474.663 158.875L471.035 171.443L463.352 167.008L467.283 156.629L467.214 156.59L456.261 162.914L449.698 159.125L475.029 144.5Z" fill="white"/>
<path d="M497.727 157.604L503.495 160.935L495.418 165.598L495.487 165.638C496.841 165.419 498.144 165.46 499.403 165.765C500.662 166.07 501.81 166.522 502.854 167.125C503.318 167.393 503.752 167.69 504.162 168.016C504.572 168.343 504.917 168.691 505.212 169.056C505.503 169.424 505.726 169.803 505.882 170.193C506.037 170.584 506.083 170.974 506.02 171.359C505.955 171.877 505.814 172.335 505.588 172.731C505.361 173.128 505.042 173.522 504.621 173.912C504.2 174.302 503.684 174.695 503.069 175.09C502.453 175.485 501.723 175.927 500.877 176.415L490.265 182.542L484.496 179.211L494.834 173.243C495.061 173.112 495.382 172.907 495.791 172.631C496.203 172.353 496.53 172.038 496.777 171.681C497.025 171.324 497.101 170.926 497.003 170.487C496.906 170.047 496.477 169.609 495.711 169.166C494.9 168.698 494.119 168.427 493.371 168.351C492.624 168.275 491.945 168.297 491.337 168.422C490.731 168.546 490.195 168.721 489.741 168.943C489.284 169.167 488.942 169.345 488.715 169.476L478.171 175.563L472.402 172.233L497.733 157.608L497.727 157.604Z" fill="white"/>
<path d="M513.686 196.069L507.918 192.738L509.972 191.552L509.903 191.512C509.192 191.629 508.466 191.671 507.733 191.643C506.996 191.612 506.258 191.518 505.519 191.353C504.784 191.191 504.079 190.975 503.407 190.708C502.739 190.44 502.121 190.145 501.564 189.824C500.036 188.941 498.942 187.994 498.284 186.981C497.627 185.968 497.354 184.955 497.47 183.94C497.583 182.927 498.03 181.938 498.812 180.979C499.594 180.02 500.67 179.145 502.037 178.356C503.59 177.459 505.256 176.803 507.047 176.387C508.835 175.97 510.608 175.763 512.368 175.763C514.124 175.765 515.824 175.969 517.463 176.372C519.102 176.779 520.569 177.356 521.864 178.104C522.651 178.559 523.274 179.016 523.727 179.477C524.179 179.937 524.506 180.376 524.709 180.794C524.909 181.214 525.006 181.598 525 181.951C524.995 182.303 524.934 182.616 524.822 182.895L524.891 182.935L526.911 181.768L532.679 185.099L513.683 196.067L513.686 196.069ZM507.735 181.723C507.278 181.987 506.863 182.326 506.49 182.743C506.117 183.161 505.877 183.621 505.768 184.124C505.659 184.627 505.737 185.149 506.014 185.688C506.284 186.227 506.86 186.751 507.739 187.259C508.619 187.767 509.568 188.123 510.515 188.287C511.461 188.45 512.369 188.502 513.241 188.439C514.113 188.375 514.916 188.225 515.649 187.992C516.383 187.755 516.976 187.508 517.433 187.244C518.005 186.914 518.473 186.528 518.849 186.085C519.222 185.644 519.441 185.169 519.502 184.665C519.564 184.161 519.428 183.649 519.104 183.13C518.773 182.61 518.204 182.118 517.393 181.65C516.582 181.181 515.691 180.847 514.792 180.683C513.893 180.52 513.01 180.463 512.134 180.512C511.258 180.562 510.445 180.698 509.691 180.919C508.934 181.142 508.283 181.411 507.735 181.727L507.735 181.723Z" fill="white"/>
<path d="M525.566 191.94C526.73 191.268 528.124 190.709 529.751 190.265C531.379 189.822 533.104 189.568 534.934 189.503C536.761 189.436 538.631 189.602 540.546 189.996C542.46 190.39 544.297 191.095 546.056 192.111C547.816 193.127 549.04 194.189 549.719 195.292C550.402 196.398 550.686 197.476 550.574 198.532C550.462 199.589 550.021 200.585 549.253 201.525C548.484 202.464 547.517 203.269 546.353 203.941C545.188 204.613 543.795 205.172 542.167 205.616C540.54 206.059 538.815 206.313 536.984 206.378C535.154 206.443 533.287 206.279 531.373 205.885C529.458 205.491 527.621 204.786 525.862 203.77C524.103 202.755 522.878 201.692 522.199 200.589C521.516 199.483 521.232 198.405 521.345 197.349C521.457 196.292 521.897 195.296 522.666 194.356C523.434 193.417 524.402 192.612 525.566 191.94ZM531.335 195.271C530.651 195.665 530.132 196.104 529.78 196.588C529.432 197.071 529.258 197.557 529.264 198.049C529.271 198.541 529.43 199.016 529.75 199.474C530.066 199.934 530.539 200.344 531.164 200.705C531.79 201.066 532.499 201.339 533.296 201.521C534.093 201.704 534.912 201.798 535.765 201.802C536.617 201.806 537.461 201.707 538.294 201.504C539.13 201.303 539.89 201.003 540.577 200.607C541.264 200.21 541.78 199.773 542.131 199.289C542.48 198.806 542.65 198.318 542.647 197.828C542.641 197.336 542.481 196.861 542.161 196.403C541.845 195.943 541.373 195.533 540.747 195.172C540.122 194.811 539.412 194.538 538.616 194.356C537.819 194.173 536.996 194.081 536.147 194.075C535.298 194.069 534.45 194.17 533.617 194.373C532.781 194.574 532.021 194.874 531.335 195.271Z" fill="white"/>
<path d="M561.022 207.628C561.114 207.575 561.228 207.489 561.363 207.372C561.501 207.252 561.585 207.117 561.617 206.964C561.649 206.81 561.602 206.631 561.47 206.425C561.341 206.218 561.069 205.995 560.653 205.755C560.052 205.407 559.48 205.249 558.939 205.28C558.397 205.312 558.003 205.4 557.752 205.545C557.228 205.848 557.114 206.263 557.407 206.787C557.701 207.312 558.114 207.863 558.653 208.437C559.237 209.036 559.801 209.647 560.351 210.265C560.898 210.886 561.278 211.503 561.477 212.122C561.68 212.739 561.647 213.354 561.379 213.965C561.111 214.576 560.464 215.175 559.435 215.769C558.407 216.363 557.321 216.748 556.106 216.969C554.892 217.19 553.641 217.253 552.365 217.161C551.089 217.069 549.824 216.835 548.581 216.457C547.332 216.08 546.18 215.583 545.115 214.968C544.372 214.539 543.663 214.024 542.99 213.425C542.314 212.823 541.835 212.164 541.549 211.448C541.264 210.728 541.247 209.976 541.502 209.186C541.754 208.398 542.443 207.6 543.554 206.795L549.288 210.106C548.924 210.396 548.727 210.673 548.696 210.928C548.665 211.188 548.719 211.415 548.858 211.616C549.001 211.816 549.163 211.984 549.346 212.116C549.532 212.251 549.659 212.336 549.728 212.376C550.215 212.657 550.804 212.845 551.494 212.943C552.188 213.038 552.76 212.954 553.216 212.69C553.582 212.479 553.787 212.254 553.828 212.016C553.869 211.778 553.794 211.48 553.591 211.129C553.392 210.776 553.08 210.345 552.66 209.841C552.238 209.336 551.739 208.715 551.153 207.982C550.734 207.502 550.393 207.016 550.134 206.523C549.876 206.03 549.74 205.545 549.737 205.067C549.73 204.59 549.868 204.13 550.151 203.685C550.432 203.241 550.894 202.836 551.533 202.466C552.467 201.927 553.526 201.55 554.71 201.335C555.89 201.121 557.096 201.052 558.328 201.13C559.56 201.208 560.777 201.422 561.975 201.774C563.176 202.124 564.273 202.585 565.27 203.161C565.895 203.522 566.532 203.983 567.184 204.543C567.835 205.103 568.307 205.719 568.606 206.392C568.901 207.063 568.941 207.785 568.72 208.552C568.501 209.321 567.823 210.101 566.681 210.891L561.015 207.62L561.022 207.628Z" fill="white"/>
<rect opacity="0.02" width="142.342" height="142.342" rx="50" transform="matrix(0.866025 0.5 -0.866025 0.5 514 110.829)" fill="white"/>
<rect opacity="0.02" width="162" height="162" rx="50" transform="matrix(0.866025 0.5 -0.866025 0.5 514 101)" fill="white"/>
<rect opacity="0.04" width="186" height="186" rx="50" transform="matrix(0.866025 0.5 -0.866025 0.5 514 89)" fill="white"/>
<rect opacity="0.04" width="122.141" height="122.141" rx="50" transform="matrix(0.866025 0.5 -0.866025 0.5 514 120.93)" fill="white"/>
<rect opacity="0.05" width="101.16" height="101.16" rx="50" transform="matrix(0.866025 0.5 -0.866025 0.5 514 131.42)" fill="white"/>
<rect opacity="0.06" width="72.1523" height="72.1523" rx="36.0762" transform="matrix(0.866025 0.5 -0.866025 0.5 514 145.924)" fill="white"/>
<defs>
<linearGradient id="paint0_linear_1482_32261" x1="323.045" y1="87.0059" x2="363.063" y2="87.0059" gradientUnits="userSpaceOnUse">
<stop stop-color="#DFDFDF"/>
<stop offset="1" stop-color="#DFDFDF" stop-opacity="0"/>
</linearGradient>
<linearGradient id="paint1_linear_1482_32261" x1="326" y1="193" x2="363.5" y2="193" gradientUnits="userSpaceOnUse">
<stop stop-color="#DFDFDF"/>
<stop offset="1" stop-color="#DFDFDF" stop-opacity="0"/>
</linearGradient>
<linearGradient id="paint2_linear_1482_32261" x1="712.5" y1="87.9927" x2="662" y2="87.9839" gradientUnits="userSpaceOnUse">
<stop stop-color="#DFDFDF"/>
<stop offset="1" stop-color="#DFDFDF" stop-opacity="0"/>
</linearGradient>
<linearGradient id="paint3_linear_1482_32261" x1="694.001" y1="194" x2="673.501" y2="194" gradientUnits="userSpaceOnUse">
<stop stop-color="#DFDFDF"/>
<stop offset="1" stop-color="#DFDFDF" stop-opacity="0"/>
</linearGradient>
<linearGradient id="paint4_linear_1482_32261" x1="697" y1="299.998" x2="658" y2="299.991" gradientUnits="userSpaceOnUse">
<stop stop-color="#DFDFDF"/>
<stop offset="1" stop-color="#DFDFDF" stop-opacity="0"/>
</linearGradient>
<linearGradient id="paint5_linear_1482_32261" x1="335" y1="235" x2="372" y2="235" gradientUnits="userSpaceOnUse">
<stop stop-color="#DFDFDF"/>
<stop offset="1" stop-color="#DFDFDF" stop-opacity="0"/>
</linearGradient>
<clipPath id="clip0_1482_32261">
<rect width="24" height="24" fill="white" transform="translate(809.001 11.9999)"/>
</clipPath>
<clipPath id="clip1_1482_32261">
<rect width="24" height="24" fill="white" transform="translate(828.001 180.5)"/>
</clipPath>
</defs>
</svg>
